<svg width="24" height="24" viewBox="0 0 24 24" fill="none" xmlns="http://www.w3.org/2000/svg">
<g clip-path="url(#clip0_291_1524)">
<path d="M12 24C18.6274 24 24 18.6274 24 12C24 5.37258 18.6274 0 12 0C5.37258 0 0 5.37258 0 12C0 18.6274 5.37258 24 12 24Z" fill="#2D374B"/>
<path d="M11.1999 3.40986C11.695 3.13004 12.3051 3.13004 12.8002 3.40986L19.2002 7.0268C19.6951 7.30652 20 7.82336 20 8.38272V15.6173C20 16.1766 19.6951 16.6935 19.2002 16.9732L12.8002 20.5901C12.3051 20.87 11.695 20.87 11.1999 20.5901L4.79996 16.9732C4.30504 16.6935 4.00012 16.1766 4.00012 15.6173V8.38272C4.00012 7.82336 4.30504 7.30652 4.79996 7.0268L11.1999 3.40986Z" fill="#96BEDC"/>
<path d="M11.7599 4.34804C11.925 4.25472 12.1284 4.25472 12.2934 4.34804L18.6268 7.92836C18.7917 8.0216 18.8933 8.19388 18.8933 8.38028V15.5414C18.8933 15.7278 18.7917 15.9001 18.6268 15.9934L12.2934 19.5737C12.1284 19.667 11.925 19.667 11.7599 19.5737L5.42659 15.9934C5.26167 15.9001 5.16003 15.7278 5.16003 15.5414V8.38028C5.16003 8.19388 5.26167 8.0216 5.42659 7.92836L11.7599 4.34804Z" fill="#2D374B"/>
<path d="M5.75632 17.5138L4.6144 16.8684C4.23476 16.6538 4 16.2515 4 15.8154L8.29008 9.39116C8.75796 8.69052 9.55548 8.26824 10.4107 8.26824H11.6466L5.75632 17.5138Z" fill="white"/>
<path d="M8.48263 19.0545L6.42883 17.8938L12.4133 8.26824H15.0066L8.48263 19.0545Z" fill="white"/>
<path fill-rule="evenodd" clip-rule="evenodd" d="M16.8215 17.0139L14.5452 18.3007L12.0667 14.5052L13.5867 12.013L16.8215 17.0139ZM18.8933 14.4393V15.5414C18.8933 15.7278 18.7917 15.9001 18.6268 15.9934L17.4703 16.6472L14.0267 11.2367L15.3466 9.07072L18.8933 14.4393Z" fill="#28A0F0"/>
</g>
<defs>
<clipPath id="clip0_291_1524">
<rect width="24" height="24" fill="white"/>
</clipPath>
</defs>
</svg>
