<svg width="24" height="24" viewBox="0 0 24 24" fill="none" xmlns="http://www.w3.org/2000/svg">
<g clip-path="url(#clip0_291_1552)">
<path d="M12 24C18.6274 24 24 18.6274 24 12C24 5.37258 18.6274 0 12 0C5.37258 0 0 5.37258 0 12C0 18.6274 5.37258 24 12 24Z" fill="#D64F4A"/>
<path fill-rule="evenodd" clip-rule="evenodd" d="M8.98512 17H6.63996C6.08392 17 5.80588 17 5.6394 16.8902C5.45944 16.7717 5.34592 16.5727 5.33388 16.3549C5.32272 16.1532 5.46044 15.9074 5.73584 15.4158L5.73596 15.4156L10.8706 6.24988C11.15 5.751 11.2898 5.50152 11.4676 5.40868C11.6597 5.30836 11.8874 5.3082 12.0796 5.40824C12.2576 5.5008 12.3977 5.75008 12.6778 6.24852L13.8621 8.35532L13.8621 8.35536C14.0658 8.7178 14.1677 8.89904 14.2125 9.09024C14.2613 9.2984 14.2614 9.51528 14.2128 9.72344C14.1682 9.91468 14.0664 10.096 13.863 10.4587L10.7925 15.9319C10.5861 16.2998 10.4829 16.4838 10.3415 16.6214C10.1876 16.771 10.0009 16.8814 9.79692 16.9432C9.60944 17 9.40136 17 8.98512 17ZM17.352 17H14.6331C14.072 17 13.7914 17 13.6244 16.8893C13.4439 16.7697 13.3308 16.5693 13.3201 16.3504C13.3102 16.1478 13.4514 15.9009 13.7338 15.4073L15.091 13.0346C15.3698 12.5473 15.5093 12.3036 15.6858 12.2123C15.8765 12.1136 16.1021 12.1135 16.293 12.2118C16.4696 12.3028 16.6094 12.5463 16.8888 13.0332L16.8889 13.0334L18.2506 15.406C18.5341 15.8999 18.6758 16.1469 18.6661 16.3496C18.6556 16.5687 18.5425 16.7694 18.362 16.8892C18.1949 17 17.914 17 17.352 17Z" fill="white"/>
</g>
<defs>
<clipPath id="clip0_291_1552">
<rect width="24" height="24" fill="white"/>
</clipPath>
</defs>
</svg>
