<svg width="24" height="24" viewBox="0 0 24 24" fill="none" xmlns="http://www.w3.org/2000/svg">
<g clip-path="url(#clip0_291_1502)">
<path d="M12 24C18.6274 24 24 18.6274 24 12C24 5.37258 18.6274 0 12 0C5.37258 0 0 5.37258 0 12C0 18.6274 5.37258 24 12 24Z" fill="#F0B90B"/>
<path d="M8.31616 7.3444L12.0001 5.2L15.684 7.3444L14.3296 8.13656L12.0001 6.7844L9.67044 8.13656L8.31616 7.3444ZM15.684 10.0488L14.3296 9.25656L12.0001 10.6088L9.67044 9.25656L8.31616 10.0488V11.6332L10.6456 12.9853V15.6898L12.0001 16.482L13.3545 15.6898V12.9853L15.684 11.6332V10.0488ZM15.684 14.3375V12.7531L14.3296 13.5453V15.1297L15.684 14.3375ZM16.6456 14.8976L14.3161 16.2497V17.8341L18 15.6898V11.401L16.6456 12.1931V14.8976ZM15.2912 8.69656L16.6456 9.48876V11.0732L18 10.281V8.69656L16.6456 7.9044L15.2912 8.69656ZM10.6456 16.8234V18.4078L12.0001 19.2L13.3545 18.4078V16.8234L12.0001 17.6156L10.6456 16.8234ZM8.31616 14.3375L9.67044 15.1297V13.5453L8.31616 12.7531V14.3375ZM10.6456 8.69656L12.0001 9.48876L13.3545 8.69656L12.0001 7.9044L10.6456 8.69656ZM7.3544 9.48876L8.70884 8.69656L7.3544 7.9044L6 8.69656V10.281L7.3544 11.0732V9.48876ZM7.3544 12.1931L6 11.401V15.6898L9.68404 17.8341V16.2497L7.3544 14.8976V12.1931Z" fill="white"/>
</g>
<defs>
<clipPath id="clip0_291_1502">
<rect width="24" height="24" fill="white"/>
</clipPath>
</defs>
</svg>
