<svg width="24" height="24" viewBox="0 0 24 24" fill="none" xmlns="http://www.w3.org/2000/svg">
<g clip-path="url(#clip0_291_1429)">
<path d="M12 24C18.6274 24 24 18.6274 24 12C24 5.37258 18.6274 0 12 0C5.37258 0 0 5.37258 0 12C0 18.6274 5.37258 24 12 24Z" fill="#627EEA"/>
<path d="M11.9984 5.6L11.911 5.89172V14.3562L11.9984 14.4418L15.9975 12.1194L11.9984 5.6Z" fill="#C0CBF6"/>
<path d="M11.9992 5.6L8 12.1194L11.9992 14.4418V10.3334V5.6Z" fill="white"/>
<path d="M11.9985 15.1846L11.9492 15.2436V18.2587L11.9985 18.4L16 12.8633L11.9985 15.1846Z" fill="#C0CBF6"/>
<path d="M11.9992 18.4V15.1845L8 12.8632L11.9992 18.4Z" fill="white"/>
<path d="M11.9985 14.4464L15.9976 12.1239L11.9985 10.338V14.4464Z" fill="#8197EE"/>
<path d="M8 12.1239L11.9992 14.4464V10.338L8 12.1239Z" fill="#C0CBF6"/>
</g>
<defs>
<clipPath id="clip0_291_1429">
<rect width="24" height="24" fill="white"/>
</clipPath>
</defs>
</svg>
