<svg width="24" height="24" viewBox="0 0 24 24" fill="none" xmlns="http://www.w3.org/2000/svg">
<g clip-path="url(#clip0_291_1534)">
<path d="M12 24C18.6274 24 24 18.6274 24 12C24 5.37258 18.6274 0 12 0C5.37258 0 0 5.37258 0 12C0 18.6274 5.37258 24 12 24Z" fill="#0A15EE"/>
<path d="M11.2681 3.81834C11.6788 3.61611 12.3037 3.61611 12.7144 3.81834L16.9051 5.88188C17.1525 6.00368 17.2883 6.18516 17.3127 6.37252H17.3167V16.745C17.3112 16.9493 17.1741 17.1523 16.9051 17.2848L12.7144 19.3483C12.3037 19.5506 11.6788 19.5506 11.2681 19.3483L7.07733 17.2848C6.80949 17.1529 6.68097 16.9485 6.67461 16.745C6.67397 16.725 6.67389 16.7082 6.67449 16.6944V6.43916C6.67405 6.42792 6.67401 6.41668 6.67437 6.40552L6.67461 6.37252H6.67649C6.69509 6.18312 6.82477 6.00624 7.07733 5.88188L11.2681 3.81834ZM16.6569 12.1593L12.7144 14.1006C12.3037 14.3028 11.6788 14.3028 11.2681 14.1006L7.33413 12.1636V16.7244L11.2681 18.6513C11.4902 18.762 11.7208 18.8698 11.9462 18.8836L11.9912 18.885C12.2261 18.8857 12.4542 18.7745 12.6855 18.6692L16.6569 16.7079V12.1593ZM5.99297 16.5195C5.99297 16.9168 6.04253 17.178 6.14089 17.3621C6.22241 17.5146 6.34477 17.6312 6.56813 17.773L6.58089 17.7811C6.62989 17.8119 6.68389 17.8442 6.74961 17.882L6.82713 17.9263L7.06517 18.0602L6.72377 18.5865L6.45737 18.4364L6.41257 18.4108C6.33553 18.3664 6.27169 18.3284 6.21213 18.291C5.57553 17.8908 5.33809 17.4546 5.33341 16.5471L5.33337 16.5195H5.99297ZM11.6613 9.37912C11.6308 9.38892 11.6022 9.4002 11.5761 9.41304L7.38537 11.4766C7.38101 11.4788 7.37681 11.4809 7.37281 11.483L7.36925 11.4849L7.37585 11.4884L7.38537 11.4933L11.5761 13.5568C11.6022 13.5697 11.6308 13.581 11.6613 13.5907V9.37912ZM12.3211 9.37912V13.5907C12.3517 13.581 12.3803 13.5697 12.4063 13.5568L16.5971 11.4933C16.6015 11.4911 16.6057 11.489 16.6097 11.4868L16.6132 11.4849L16.6066 11.4814L16.5971 11.4766L12.4063 9.41304C12.3803 9.4002 12.3517 9.38892 12.3211 9.37912ZM16.6569 7.10832L12.8976 8.95944L16.6569 10.8106V7.10832ZM7.33413 7.11264V10.8062L11.0848 8.95944L7.33413 7.11264ZM12.4063 4.36212C12.1884 4.2548 11.7941 4.2548 11.5761 4.36212L7.38537 6.42568C7.38101 6.42784 7.37681 6.43 7.37281 6.43208L7.36925 6.434L7.37585 6.43752L7.38537 6.44236L11.5761 8.50592C11.7941 8.61324 12.1884 8.61324 12.4063 8.50592L16.5971 6.44236C16.6015 6.4402 16.6057 6.43804 16.6097 6.43592L16.6132 6.434L16.6066 6.43052L16.5971 6.42568L12.4063 4.36212ZM17.2763 4.5884L17.5427 4.73844L17.5875 4.76404C17.6645 4.8084 17.7283 4.84648 17.7879 4.88388C18.4245 5.28404 18.6619 5.72028 18.6665 6.62776L18.6667 6.6554H18.0071C18.0071 6.258 17.9575 5.9968 17.8591 5.81276C17.7776 5.66024 17.6553 5.54368 17.4319 5.40184L17.4192 5.3938C17.3701 5.363 17.3161 5.33072 17.2504 5.29276L17.1729 5.24852L16.9349 5.1146L17.2763 4.5884Z" fill="white"/>
</g>
<defs>
<clipPath id="clip0_291_1534">
<rect width="24" height="24" fill="white"/>
</clipPath>
</defs>
</svg>
