<svg width="24" height="24" viewBox="0 0 24 24" fill="none" xmlns="http://www.w3.org/2000/svg">
<g clip-path="url(#clip0_291_1543)">
<path d="M12 24C18.6274 24 24 18.6274 24 12C24 5.37258 18.6274 0 12 0C5.37258 0 0 5.37258 0 12C0 18.6274 5.37258 24 12 24Z" fill="#037A5B"/>
<path fill-rule="evenodd" clip-rule="evenodd" d="M5.14893 6.66252L12.0284 13.3517L18.8219 6.80168L18.5629 6.52336C16.8794 4.71168 14.4608 3.66668 11.9424 3.66668H11.9278C9.43777 3.66668 7.12077 4.64252 5.42261 6.38416L5.14893 6.66252ZM12.0293 12.2508L6.27213 6.66252C7.79729 5.22752 9.79753 4.44668 11.9424 4.44668H11.957C14.1156 4.44668 16.1882 5.29752 17.7142 6.77416L12.0293 12.2508Z" fill="white"/>
<path d="M18.3331 8.44668L18.9665 7.83336L19.1241 8.08416C19.915 9.34916 20.3333 10.7996 20.3334 12.2784C20.3196 16.7242 16.591 20.3334 12.0001 20.3334H11.9854C7.39449 20.3334 3.65216 16.6958 3.66679 12.2508C3.66805 10.7704 4.09129 9.31912 4.88985 8.05668L5.03357 7.82L5.79617 8.55836C5.65241 8.76668 5.52245 8.99 5.43637 9.24084C4.83225 10.8434 5.69545 12.6134 7.36521 13.1984C8.35845 13.5325 9.40937 13.3792 10.2296 12.85L12.0001 14.5784L14.0296 12.6134C14.2172 12.7392 14.4324 12.8367 14.6631 12.92C16.2898 13.4775 18.074 12.655 18.6498 11.0942C18.9949 10.175 18.8366 9.21336 18.3331 8.44668Z" fill="white"/>
<path d="M6.38745 10.4675C6.38709 10.1057 6.50821 9.75352 6.73261 9.46416L9.12189 11.7634C8.83441 11.9858 8.47465 12.1117 8.08561 12.1117C7.15005 12.1117 6.38745 11.3734 6.38745 10.4675Z" fill="white"/>
<path d="M15.0658 11.6234C15.3395 11.8042 15.6562 11.9017 16.016 11.9017C16.9516 11.9017 17.7142 11.1634 17.7142 10.2575C17.7142 9.92336 17.6135 9.60252 17.4267 9.33752L15.0658 11.6234Z" fill="white"/>
</g>
<defs>
<clipPath id="clip0_291_1543">
<rect width="24" height="24" fill="white"/>
</clipPath>
</defs>
</svg>
