<svg width="24" height="24" viewBox="0 0 24 24" fill="none" xmlns="http://www.w3.org/2000/svg">
<g clip-path="url(#clip0_291_1514)">
<path d="M11.9997 23.7334C18.4798 23.7334 23.733 18.4802 23.733 12.0002C23.733 5.51999 18.4798 0.266796 11.9997 0.266796C5.51955 0.266796 0.266357 5.51999 0.266357 12.0002C0.266357 18.4802 5.51955 23.7334 11.9997 23.7334Z" fill="#FF0420"/>
<path fill-rule="evenodd" clip-rule="evenodd" d="M6.86203 14.6252C7.30823 14.954 7.88063 15.1184 8.57926 15.1184C9.4247 15.1184 10.0999 14.9217 10.6048 14.5283C11.1097 14.1291 11.4649 13.5274 11.6704 12.723C11.7937 12.2298 11.8993 11.722 11.9874 11.1995C12.0168 11.0116 12.0315 10.856 12.0315 10.7327C12.0315 10.3218 11.9287 9.96952 11.7232 9.676C11.5177 9.37656 11.2359 9.15344 10.8778 9.00664C10.5197 8.85408 10.1145 8.77776 9.66254 8.77776C8.00102 8.77776 6.97063 9.58496 6.57143 11.1995C6.43053 11.7925 6.32192 12.3003 6.24556 12.723C6.21623 12.9109 6.20154 13.0694 6.20154 13.1986C6.20154 13.815 6.42171 14.2906 6.86203 14.6252ZM9.53918 13.5596C9.31022 13.7534 9.03142 13.8502 8.70254 13.8502C8.13902 13.8502 7.85716 13.5802 7.85716 13.04C7.85716 12.9109 7.86889 12.7876 7.89241 12.6702C7.99806 12.1007 8.10374 11.6193 8.20942 11.2259C8.30926 10.8267 8.47366 10.5302 8.70254 10.3364C8.93742 10.1427 9.21918 10.0458 9.54806 10.0458C10.1057 10.0458 10.3846 10.313 10.3846 10.8472C10.3846 10.9764 10.3729 11.1026 10.3494 11.2259C10.2789 11.6369 10.1762 12.1183 10.0412 12.6702C9.94134 13.0694 9.77406 13.3659 9.53918 13.5596ZM12.2869 14.9684C12.3221 15.0095 12.3721 15.0301 12.4367 15.0301H13.6344C13.693 15.0301 13.7489 15.0095 13.8017 14.9684C13.8545 14.9273 13.8868 14.8745 13.8985 14.8099L14.3037 12.8813H15.4925C16.2616 12.8813 16.8663 12.7198 17.3067 12.397C17.7529 12.0741 18.0493 11.575 18.1961 10.8998C18.2313 10.7414 18.2489 10.5886 18.2489 10.4419C18.2489 9.93112 18.0493 9.54072 17.6501 9.27064C17.2567 9.00056 16.7342 8.86552 16.0825 8.86552H13.74C13.6813 8.86552 13.6256 8.88608 13.5727 8.9272C13.5198 8.96832 13.4876 9.02112 13.4758 9.08568L12.2605 14.8099C12.2488 14.8686 12.2576 14.9214 12.2869 14.9684ZM16.197 11.4634C16.015 11.5985 15.8007 11.666 15.5541 11.666H14.5414L14.8761 10.0897H15.9329C16.1736 10.0897 16.3438 10.1366 16.4436 10.2306C16.5434 10.3186 16.5933 10.4478 16.5933 10.618C16.5933 10.6943 16.5845 10.7824 16.5669 10.8822C16.5082 11.1347 16.3849 11.3284 16.197 11.4634Z" fill="white"/>
</g>
<defs>
<clipPath id="clip0_291_1514">
<rect width="24" height="24" fill="white"/>
</clipPath>
</defs>
</svg>
