<svg width="175" height="142" viewBox="0 0 175 142" fill="none" xmlns="http://www.w3.org/2000/svg">
    <path opacity="0.3" fill-rule="evenodd" clip-rule="evenodd"
        d="M0.227978 -55.1891C0.0826722 -54.9253 0 -54.6222 0 -54.2997V-53.6562C0 -54.1814 0.0783825 -54.6975 0.227978 -55.1891ZM0.00113246 141.999H75.5305C115.928 141.999 150.678 117.82 166.099 83.1451L71.6069 83.1451L0.00113246 141.999Z"
        fill="#ffffff44" />
    <path opacity="0.6" d="M0 -53.6562C0 -55.2319 0.705425 -56.7248 1.9227 -57.7253L71.6069 -115V83.145L0 142V-53.6562Z"
        fill="#ffffff44" />
    <path opacity="0.9"
        d="M71.6074 -115H153.024C207.74 -115 252.096 -70.6437 252.096 -15.9275C252.096 38.7888 207.74 83.1451 153.023 83.1451H71.6074V-115Z"
        fill="#ffffff44" />
</svg>