<svg width="21" height="20" viewBox="0 0 21 20" fill="none" xmlns="http://www.w3.org/2000/svg">
<path d="M8.83325 10.8333C9.19113 11.3118 9.64772 11.7077 10.172 11.9941C10.6964 12.2806 11.2762 12.4509 11.8721 12.4936C12.4681 12.5363 13.0662 12.4503 13.626 12.2415C14.1858 12.0327 14.6942 11.7059 15.1166 11.2833L17.6166 8.78335C18.3756 7.9975 18.7956 6.94499 18.7861 5.85251C18.7766 4.76002 18.3384 3.71497 17.5658 2.94243C16.7933 2.1699 15.7482 1.7317 14.6558 1.7222C13.5633 1.71271 12.5108 2.13269 11.7249 2.89168L10.2916 4.31668" stroke="black" stroke-width="1.5" stroke-linecap="round" stroke-linejoin="round"/>
<path d="M12.1666 9.16668C11.8087 8.68824 11.3521 8.29236 10.8278 8.0059C10.3035 7.71943 9.72367 7.54908 9.12771 7.5064C8.53176 7.46372 7.9336 7.54971 7.3738 7.75853C6.814 7.96735 6.30566 8.29412 5.88326 8.71668L3.38326 11.2167C2.62426 12.0025 2.20429 13.055 2.21378 14.1475C2.22327 15.24 2.66148 16.2851 3.43401 17.0576C4.20655 17.8301 5.2516 18.2683 6.34408 18.2778C7.43657 18.2873 8.48908 17.8673 9.27492 17.1083L10.6999 15.6833" stroke="black" stroke-width="1.5" stroke-linecap="round" stroke-linejoin="round"/>
</svg>
