<svg width="60" height="56" viewBox="0 0 60 56" fill="none" xmlns="http://www.w3.org/2000/svg">
<path d="M55.0241 42.7954H53.182V13.0454C53.182 12.1172 52.7938 11.2269 52.1029 10.5705C51.412 9.91416 50.4749 9.54541 49.4978 9.54541H8.97145C7.99434 9.54541 7.05724 9.91416 6.36632 10.5705C5.67539 11.2269 5.28724 12.1172 5.28724 13.0454V42.7954H3.44513C2.95658 42.7954 2.48803 42.9798 2.14257 43.308C1.79711 43.6362 1.60303 44.0813 1.60303 44.5454C1.60303 45.0095 1.79711 45.4547 2.14257 45.7828C2.48803 46.111 2.95658 46.2954 3.44513 46.2954H55.0241C55.5126 46.2954 55.9812 46.111 56.3266 45.7828C56.6721 45.4547 56.8662 45.0095 56.8662 44.5454C56.8662 44.0813 56.6721 43.6362 56.3266 43.308C55.9812 42.9798 55.5126 42.7954 55.0241 42.7954ZM45.8136 42.7954H29.2346V39.2954C29.2346 38.8313 29.4287 38.3862 29.7741 38.058C30.1196 37.7298 30.5882 37.5454 31.0767 37.5454H43.9714C44.46 37.5454 44.9286 37.7298 45.274 38.058C45.6195 38.3862 45.8136 38.8313 45.8136 39.2954V42.7954Z" fill="#101828"/>
</svg>
