<svg width="24" height="24" viewBox="0 0 24 24" fill="none" xmlns="http://www.w3.org/2000/svg">
<g clip-path="url(#clip0_413_1653)">
<path d="M4.0969 2.28504L1.5166 3.57001L4.17462 4.90161L6.82746 6.22803L9.4803 4.90161L12.1383 3.57519L9.57356 2.28504C7.87409 1.4353 6.95181 1.00007 6.843 1.00007C6.72383 0.994888 5.91555 1.37312 4.0969 2.28504Z" fill="#396AFF"/>
<path d="M0.869141 7.8964C0.869141 10.8187 0.874322 11.0881 0.962404 11.2539C1.04531 11.4197 1.2422 11.5337 3.60488 12.7202L6.15409 14V10.684V7.3679L3.51162 6.04667L0.869141 4.72543V7.8964Z" fill="#396AFF"/>
<path d="M10.1336 6.05185L7.50146 7.3679V10.684V14L10.0507 12.7202C11.7605 11.8549 12.631 11.3938 12.6932 11.3057C12.7812 11.1865 12.7864 10.9793 12.7761 7.95857L12.7605 4.73579L10.1336 6.05185Z" fill="#396AFF"/>
<path d="M16.5937 5.88909C16.2562 6.00628 16.1015 6.50784 16.3172 6.7844C16.5281 7.05159 16.4953 7.0469 18.8437 7.0469H21V8.60315C21 10.3657 21.0094 10.4078 21.3422 10.5766C21.6984 10.7594 22.1297 10.5157 22.1953 10.0891C22.2094 9.97659 22.2187 9.0719 22.2094 8.07815C22.1953 6.09534 22.2 6.12815 21.9047 5.93596C21.7875 5.85628 21.5765 5.85159 19.2656 5.84221C17.4 5.83284 16.7156 5.8469 16.5937 5.88909Z" fill="#396AFF"/>
<path d="M18.8624 13.0216C18.8014 13.039 17.8044 13.5266 16.6419 14.1101L14.5303 15.168L16.7638 16.2826L18.993 17.3972L21.1917 16.2957C22.4021 15.6949 23.3904 15.1855 23.3904 15.1637C23.3904 15.1289 19.1889 13.0346 19.0583 13.0042C19.0104 12.9955 18.9233 12.9998 18.8624 13.0216Z" fill="#396AFF"/>
<path d="M6.16094 16.5172C6.07187 16.5641 5.95469 16.6625 5.90312 16.7328C5.80937 16.8641 5.80469 16.9156 5.80469 18.8469C5.80469 20.6563 5.80937 20.8344 5.88906 20.9516C6.08594 21.2516 5.97344 21.2422 8.71094 21.2563C11.4672 21.2703 11.4859 21.2703 11.6734 20.9891C11.8422 20.7406 11.8234 20.4641 11.6219 20.2438L11.4625 20.0703L9.23125 20.0563L7 20.0422V18.4953C7 16.8172 6.98594 16.7188 6.74687 16.5594C6.55469 16.4375 6.34375 16.4188 6.16094 16.5172Z" fill="#396AFF"/>
<path d="M13.9858 18.834C13.9858 21.1503 13.9945 21.5334 14.0511 21.6422C14.1077 21.7511 14.4473 21.934 16.2498 22.8396C17.421 23.4273 18.3919 23.9062 18.405 23.9062C18.4181 23.9062 18.4268 22.6567 18.4268 21.1285V18.3551L16.2281 17.2536C15.0177 16.6527 14.0207 16.1564 14.0076 16.1564C13.9945 16.1564 13.9858 17.3624 13.9858 18.834Z" fill="#396AFF"/>
<path d="M21.7491 17.2579L19.5591 18.3551V21.1285C19.5591 22.6567 19.5721 23.9063 19.5939 23.9019C19.6113 23.9019 20.5648 23.4273 21.7142 22.8483C23.5037 21.947 23.8172 21.7729 23.9042 21.6466L24 21.4986V18.8297C24 17.3581 23.987 16.1564 23.9695 16.1607C23.9478 16.1607 22.9507 16.6527 21.7491 17.2579Z" fill="#396AFF"/>
</g>
<defs>
<clipPath id="clip0_413_1653">
<rect width="24" height="24" fill="white"/>
</clipPath>
</defs>
</svg>
