<svg width="180" height="70" viewBox="0 0 180 70" fill="none" xmlns="http://www.w3.org/2000/svg">
<g id="Frame 12112">
<rect width="180" height="70" fill="white"/>
<g id="Group 114">
<path id="Vector" d="M65.5741 22.0009C62.1722 22.0009 60.2314 23.9272 60.2314 27.1164C60.2314 30.2055 62.1729 32.1996 65.508 32.1996C68.5779 32.1996 70.3693 30.6219 70.6682 28.1138H68.3452C68.129 29.5426 67.2498 30.4062 65.5245 30.4062C63.6167 30.4062 62.4883 29.2939 62.4883 27.1006C62.4883 24.9073 63.5003 23.795 65.5245 23.795C67.1838 23.795 68.0464 24.6247 68.2783 26.0701H70.5848C70.286 23.6454 68.7101 22.0009 65.5741 22.0009Z" fill="#121212"/>
<path id="Vector_2" fill-rule="evenodd" clip-rule="evenodd" d="M76.6069 32.1996C79.8586 32.1996 81.8497 30.2228 81.8497 27.0668C81.8497 23.7785 79.6762 22.0009 76.6069 22.0009C73.3553 22.0009 71.3641 23.8454 71.3641 27.1337C71.3641 30.422 73.5377 32.1996 76.6069 32.1996ZM76.6069 23.7942C78.3991 23.7942 79.5936 24.8404 79.5936 27.1329C79.5936 29.3584 78.4982 30.4047 76.6069 30.4047C74.8149 30.4047 73.6203 29.2915 73.6203 27.066C73.6203 24.8404 74.7158 23.7942 76.6069 23.7942Z" fill="#121212"/>
<path id="Vector_3" d="M85.2838 22.1661H83.0607V32.0334H85.2838V25.3395C85.865 24.2263 86.6607 23.7115 87.9386 23.7115C89.5311 23.7115 90.3442 24.4428 90.3442 26.037V32.0326H92.5673V25.7205C92.5673 23.3619 91.2736 22 88.9837 22C86.9597 22 85.8476 23.047 85.2838 24.7908V22.1661Z" fill="#121212"/>
<path id="Vector_4" d="M95.8195 29.0095H93.4965C93.7451 30.9863 95.2226 32.1994 98.4083 32.1994C101.594 32.1994 102.938 30.8871 102.938 29.1268C102.938 27.6326 102.225 26.6021 100.068 26.3533L97.0974 26.0046C96.2182 25.9046 95.9029 25.5559 95.9029 24.9749C95.9029 24.2774 96.4336 23.746 98.126 23.746C99.8183 23.746 100.399 24.3104 100.531 25.174H102.838C102.556 23.2973 101.344 22.0015 98.1921 22.0015C95.0403 22.0015 93.7624 23.3469 93.7624 25.1071C93.7624 26.6517 94.5755 27.5822 96.7491 27.831L99.6028 28.1632C100.549 28.2797 100.797 28.6781 100.797 29.2095C100.797 29.9235 100.15 30.4549 98.4579 30.4549C96.7656 30.4549 96.002 29.9896 95.8195 29.0095Z" fill="#121212"/>
<path id="Vector_5" fill-rule="evenodd" clip-rule="evenodd" d="M103.783 27.1328C103.783 30.0228 105.575 32.1987 108.927 32.1987C111.731 32.1987 113.456 30.8699 113.954 28.8435H111.681C111.349 29.8236 110.503 30.4046 108.993 30.4046C107.317 30.4046 106.239 29.4245 106.04 27.6642H114.02C114.037 24.209 112.543 22 108.943 22C105.707 22 103.783 24.0767 103.783 27.1328ZM111.681 26.1527H106.073C106.355 24.5751 107.384 23.7445 108.927 23.7445C110.685 23.7445 111.531 24.6908 111.681 26.1527Z" fill="#121212"/>
<path id="Vector_6" d="M117.338 22.1661H115.115V32.0334H117.338V25.3395C117.919 24.2263 118.715 23.7115 119.993 23.7115C121.585 23.7115 122.398 24.4428 122.398 26.037V32.0326H124.621V25.7205C124.621 23.3619 123.328 22 121.038 22C119.014 22 117.902 23.047 117.338 24.7908V22.1661Z" fill="#121212"/>
<path id="Vector_7" d="M127.874 29.0095H125.551C125.8 30.9863 127.277 32.1994 130.463 32.1994C133.648 32.1994 134.992 30.8871 134.992 29.1268C134.992 27.6326 134.279 26.6021 132.122 26.3533L129.152 26.0046C128.273 25.9046 127.957 25.5559 127.957 24.9749C127.957 24.2774 128.488 23.746 130.18 23.746C131.873 23.746 132.453 24.3104 132.586 25.174H134.892C134.61 23.2973 133.398 22.0015 130.246 22.0015C127.095 22.0015 125.817 23.3469 125.817 25.1071C125.817 26.6517 126.63 27.5822 128.803 27.831L131.657 28.1632C132.603 28.2797 132.852 28.6781 132.852 29.2095C132.852 29.9235 132.204 30.4549 130.512 30.4549C128.82 30.4549 128.056 29.9896 127.874 29.0095Z" fill="#121212"/>
<path id="Vector_8" d="M141.461 34.4581L145.593 22.1669H143.269L140.415 30.8037L137.445 22.1669H134.99L138.225 30.9533H140.366L139.818 32.6309H136.069V34.4581H141.461Z" fill="#121212"/>
<path id="Vector_9" d="M147.882 29.0106H145.559C145.807 30.9874 147.285 32.2005 150.47 32.2005C153.656 32.2005 155 30.8882 155 29.1279C155 27.6337 154.287 26.6032 152.13 26.3544L149.16 26.0057C148.28 25.9057 147.965 25.557 147.965 24.976C147.965 24.2785 148.496 23.7471 150.188 23.7471C151.88 23.7471 152.461 24.3115 152.594 25.1752H154.9C154.618 23.2984 153.406 22.0026 150.254 22.0026C147.102 22.0026 145.825 23.348 145.825 25.1082C145.825 26.6528 146.638 27.5833 148.811 27.8321L151.665 28.1643C152.611 28.2808 152.86 28.6792 152.86 29.2106C152.86 29.9246 152.212 30.456 150.52 30.456C148.828 30.456 148.064 29.9907 147.882 29.0106Z" fill="#121212"/>
<path id="Vector_10" fill-rule="evenodd" clip-rule="evenodd" d="M55.1025 35.7332V32.0331V22.1666H45.2469H41.5508C34.0669 22.1666 28 28.2402 28 35.7324C28 43.2246 34.0677 49.2989 41.5516 49.2989C49.0356 49.2989 55.1025 43.2253 55.1025 35.7332ZM38.4714 28.9495L45.2469 22.1666V32.0331H55.1025L48.3255 38.8191H38.4714V28.9495Z" fill="#121212"/>
</g>
</g>
</svg>
