<svg width="18" height="17" viewBox="0 0 18 17" fill="none" xmlns="http://www.w3.org/2000/svg">
<path d="M17.1491 0H5.81575C5.62789 0 5.44773 0.0746279 5.31489 0.207466C5.18205 0.340304 5.10742 0.520472 5.10742 0.708333V4.25H1.56576C1.37789 4.25 1.19773 4.32463 1.06489 4.45747C0.93205 4.5903 0.857422 4.77047 0.857422 4.95833V16.2917C0.857422 16.4795 0.93205 16.6597 1.06489 16.7925C1.19773 16.9254 1.37789 17 1.56576 17H12.8991C13.087 17 13.2671 16.9254 13.4 16.7925C13.5328 16.6597 13.6074 16.4795 13.6074 16.2917V12.75H17.1491C17.337 12.75 17.5171 12.6754 17.65 12.5425C17.7828 12.4097 17.8574 12.2295 17.8574 12.0417V0.708333C17.8574 0.520472 17.7828 0.340304 17.65 0.207466C17.5171 0.0746279 17.337 0 17.1491 0ZM16.4408 11.3333H13.6074V4.95833C13.6074 4.77047 13.5328 4.5903 13.4 4.45747C13.2671 4.32463 13.087 4.25 12.8991 4.25H6.52409V1.41667H16.4408V11.3333Z" fill="#101828"/>
</svg>
