<svg width="24" height="24" viewBox="0 0 24 24" fill="none" xmlns="http://www.w3.org/2000/svg">
<g id="Frame 12106">
<path id="Subtract" fill-rule="evenodd" clip-rule="evenodd" d="M9.08333 5H18.4167C18.5714 5 18.7197 5.06146 18.8291 5.17085C18.9385 5.28025 19 5.42862 19 5.58333V14.9167C19 15.0714 18.9385 15.2197 18.8291 15.3291C18.7197 15.4385 18.5714 15.5 18.4167 15.5H15.5V18.4167C15.5 18.5714 15.4385 18.7197 15.3291 18.8291C15.2197 18.9385 15.0714 19 14.9167 19H5.58333C5.42862 19 5.28025 18.9385 5.17085 18.8291C5.06146 18.7197 5 18.5714 5 18.4167V9.08333C5 8.92862 5.06146 8.78025 5.17085 8.67085C5.28025 8.56146 5.42862 8.5 5.58333 8.5H8.5V5.58333C8.5 5.42862 8.56146 5.28025 8.67085 5.17085C8.78025 5.06146 8.92862 5 9.08333 5ZM15.5 14.3333H17.8333V6.16667H9.66667V8.5H14.9167C15.0714 8.5 15.2197 8.56146 15.3291 8.67085C15.4385 8.78025 15.5 8.92862 15.5 9.08333V14.3333ZM14.2996 9.7H6.09961V17.9H14.2996V9.7Z" fill="#94A3B8"/>
</g>
</svg>
