<svg width="16" height="17" viewBox="0 0 16 17" fill="none" xmlns="http://www.w3.org/2000/svg">
<path fill-rule="evenodd" clip-rule="evenodd" d="M1.5 2.25C1.5 1.83579 1.16421 1.5 0.75 1.5C0.335786 1.5 0 1.83579 0 2.25V14.75C0 15.1642 0.335786 15.5 0.75 15.5H15.25C15.6642 15.5 16 15.1642 16 14.75C16 14.3358 15.6642 14 15.25 14H1.5V2.25ZM15.7803 4.78033C16.0732 4.48744 16.0732 4.01256 15.7803 3.71967C15.4874 3.42678 15.0126 3.42678 14.7197 3.71967L10 8.43934L7.53033 5.96967C7.23744 5.67678 6.76256 5.67678 6.46967 5.96967L3.21967 9.21967C2.92678 9.51256 2.92678 9.98744 3.21967 10.2803C3.51256 10.5732 3.98744 10.5732 4.28033 10.2803L7 7.56066L9.46967 10.0303C9.61032 10.171 9.80109 10.25 10 10.25C10.1989 10.25 10.3897 10.171 10.5303 10.0303L15.7803 4.78033Z" fill="#24292E"/>
</svg>
