<svg width="23" height="19" viewBox="0 0 23 19" fill="none" xmlns="http://www.w3.org/2000/svg">
    <path
        d="M19.4705 2.20884C18.0045 1.53621 16.4325 1.04064 14.7889 0.756806C14.759 0.751328 14.7291 0.765018 14.7137 0.792397C14.5115 1.15198 14.2875 1.62108 14.1307 1.98979C12.3629 1.72513 10.6041 1.72513 8.87256 1.98979C8.7157 1.61289 8.48363 1.15198 8.28055 0.792397C8.26513 0.765931 8.23523 0.752242 8.2053 0.756806C6.56258 1.03973 4.99058 1.5353 3.52373 2.20884C3.51103 2.21432 3.50015 2.22345 3.49292 2.23531C0.511167 6.68999 -0.305661 11.0352 0.0950476 15.3265C0.0968607 15.3475 0.108646 15.3676 0.124965 15.3803C2.09224 16.8251 3.99789 17.7021 5.86814 18.2835C5.89808 18.2926 5.92979 18.2817 5.94884 18.257C6.39125 17.6529 6.78562 17.0158 7.12375 16.3459C7.1437 16.3067 7.12466 16.2601 7.08387 16.2446C6.45834 16.0073 5.8627 15.718 5.28974 15.3895C5.24442 15.363 5.24079 15.2982 5.28249 15.2671C5.40306 15.1768 5.52366 15.0828 5.63879 14.9879C5.65962 14.9705 5.68865 14.9669 5.71314 14.9778C9.47723 16.6964 13.5523 16.6964 17.272 14.9778C17.2965 14.966 17.3255 14.9696 17.3472 14.987C17.4624 15.0819 17.583 15.1768 17.7045 15.2671C17.7462 15.2982 17.7434 15.363 17.6981 15.3895C17.1252 15.7244 16.5295 16.0073 15.9031 16.2437C15.8623 16.2592 15.8442 16.3067 15.8641 16.3459C16.2095 17.0149 16.6039 17.6519 17.0381 18.2561C17.0562 18.2817 17.0889 18.2926 17.1188 18.2835C18.9981 17.7021 20.9038 16.8251 22.871 15.3803C22.8883 15.3676 22.8992 15.3484 22.901 15.3274C23.3805 10.3662 22.0977 6.05661 19.5004 2.23622C19.494 2.22345 19.4832 2.21432 19.4705 2.20884ZM7.68586 12.7135C6.5526 12.7135 5.61884 11.6731 5.61884 10.3954C5.61884 9.11765 6.53449 8.07725 7.68586 8.07725C8.84625 8.07725 9.77098 9.12679 9.75284 10.3954C9.75284 11.6731 8.83718 12.7135 7.68586 12.7135ZM15.3283 12.7135C14.1951 12.7135 13.2613 11.6731 13.2613 10.3954C13.2613 9.11765 14.1769 8.07725 15.3283 8.07725C16.4887 8.07725 17.4134 9.12679 17.3953 10.3954C17.3953 11.6731 16.4887 12.7135 15.3283 12.7135Z"
        fill="#929F9E" />
</svg>