<svg width="75" height="25" viewBox="0 0 75 25" fill="none" xmlns="http://www.w3.org/2000/svg">
<g id="EAS">
<g id="Union">
<path d="M29.0001 8.11687H40.0001V4.87012H27.3334C26.4129 4.87012 25.6667 5.59693 25.6667 6.49349V16.2338C25.6667 18.3855 27.4576 20.1299 29.6667 20.1299H40.0001V16.8831H29.0001V8.11687Z" fill="#647ACB"/>
<path d="M38.6667 11.0389H29.3334V14.2857H38.6667V11.0389Z" fill="#647ACB"/>
<path fill-rule="evenodd" clip-rule="evenodd" d="M56.3334 4.87012C56.8857 4.87012 57.3334 5.3062 57.3334 5.84414V20.1299H54.0001V16.5584H45.1667V20.1299H41.8334V12.013C41.8334 8.06808 45.1166 4.87012 49.1667 4.87012H56.3334ZM45.1667 13.3117H54.0001V8.11687H49.1667C46.9576 8.11687 45.1667 9.86122 45.1667 12.013V13.3117Z" fill="#647ACB"/>
<path d="M64.1667 4.87012C61.4973 4.87012 59.3334 6.97787 59.3334 9.57791C59.3334 12.178 61.4973 14.2857 64.1667 14.2857H70.25C71.0325 14.2857 71.6667 14.9035 71.6667 15.6656C71.6667 16.4277 71.0325 17.0454 70.25 17.0454H59.5001V20.2922H70.25C72.8734 20.2922 75 18.2208 75 15.6656C75 13.1104 72.8734 11.0389 70.25 11.0389H64.1667C63.3383 11.0389 62.6667 10.3848 62.6667 9.57791C62.6667 8.771 63.3383 8.11687 64.1667 8.11687H73.6667V4.87012H64.1667Z" fill="#647ACB"/>
</g>
<path id="Rectangle 96" d="M7.66666 0H11.6667L19.3333 22.4026V25H0V22.4026L7.66666 0Z" fill="#647ACB"/>
<path id="Rectangle 97" d="M8.35628 5.51941H10.977L15.6666 19.3835V21.1038H3.66663V19.3835L8.35628 5.51941Z" fill="#8093D6"/>
<path id="Rectangle 98" d="M9.08429 10.3896H10.249L12.3333 17.0687V17.8572H7V17.0687L9.08429 10.3896Z" fill="#C1CFF4"/>
</g>
</svg>
