<svg width="18" height="16" viewBox="0 0 18 16" fill="none" xmlns="http://www.w3.org/2000/svg">
<path d="M17.0452 5.73079L9.35289 0.602601C9.24751 0.53559 9.12521 0.5 9.00033 0.5C8.87544 0.5 8.75314 0.53559 8.64776 0.602601L0.95548 5.73079C0.866106 5.78877 0.792813 5.86837 0.742388 5.96222C0.691964 6.05606 0.66604 6.16112 0.667019 6.26765V14.601C0.667019 14.941 0.802091 15.2671 1.04252 15.5075C1.28295 15.7479 1.60905 15.883 1.94907 15.883H16.0516C16.3916 15.883 16.7177 15.7479 16.9581 15.5075C17.1986 15.2671 17.3336 14.941 17.3336 14.601V6.26765C17.3346 6.16112 17.3087 6.05606 17.2583 5.96222C17.2078 5.86837 17.1345 5.78877 17.0452 5.73079V5.73079ZM6.49232 10.7548L1.94907 13.9599V7.50963L6.49232 10.7548ZM7.80642 11.3958H10.1942L14.7295 14.601H3.27118L7.80642 11.3958ZM11.5083 10.7548L16.0516 7.50963V13.9599L11.5083 10.7548Z" fill="#101828"/>
</svg>
