<svg width="24" height="24" viewBox="0 0 24 24" fill="none" xmlns="http://www.w3.org/2000/svg">
<path d="M12.1253 2V9.36194C12.1253 9.39319 12.094 9.42444 12.0628 9.42444C11.844 9.51998 11.6565 9.61463 11.4377 9.70927C11.1565 9.83517 10.844 9.96196 10.5627 10.12L9.53141 10.5932L8.68762 10.9727L7.65632 11.4468C7.37506 11.5736 7.0938 11.6995 6.78128 11.8576C6.56253 11.9522 6.31251 12.079 6.09375 12.1737C6.0625 12.1737 6.0625 12.2049 6.03125 12.1737H6C6.09375 12.0156 6.18751 11.8888 6.28126 11.7317C6.78128 10.8781 7.31256 10.0254 7.81258 9.17175C8.34385 8.25653 8.90638 7.33952 9.43765 6.42341C9.93768 5.5707 10.4377 4.71798 10.9377 3.89651C11.3127 3.26345 11.6878 2.66432 12.0315 2.03125C12.094 2.03125 12.094 2 12.1253 2C12.1253 2 12.094 2 12.1253 2Z" fill="#8C8C8C"/>
<path d="M18.188 12.1735C17.7192 12.4896 17.2192 12.7736 16.7505 13.0575C15.2191 13.9745 13.7191 14.8594 12.1877 15.7755C12.1565 15.7755 12.1565 15.8067 12.1252 15.8067C12.094 15.8067 12.094 15.7755 12.094 15.7755V9.42432C12.094 9.39307 12.1252 9.39307 12.1565 9.39307C12.2815 9.45557 12.4065 9.51986 12.5628 9.58236C12.9378 9.77255 13.344 9.93059 13.7191 10.1199C14.0628 10.2779 14.3753 10.436 14.7191 10.5619C15.0629 10.7199 15.3754 10.878 15.7192 11.036C16.0004 11.1628 16.3129 11.2887 16.5942 11.4467C16.8755 11.5735 17.188 11.6994 17.4692 11.8575C17.688 11.9521 17.9068 12.0789 18.1568 12.1735C18.1568 12.1423 18.1568 12.1735 18.188 12.1735Z" fill="#141414"/>
<path d="M12.1253 21.9999C12.094 21.9999 12.1253 21.9999 12.1253 21.9999C12.094 21.9999 12.094 21.9999 12.0628 21.9678C11.4377 21.0838 10.844 20.2302 10.2189 19.3453L8.34385 16.6916C7.75008 15.8389 7.12505 14.9862 6.53127 14.1004L6.0625 13.437C6.0625 13.4058 6.03125 13.4058 6.03125 13.3745C6.0625 13.3745 6.0625 13.4058 6.09375 13.4058C6.93754 13.9111 7.81258 14.4165 8.65637 14.9219C9.62516 15.5228 10.6252 16.0916 11.594 16.6916C11.7503 16.7863 11.9378 16.8809 12.094 16.9756C12.1253 16.9756 12.1253 17.0077 12.1253 17.039V21.9999Z" fill="#8C8C8C"/>
<path d="M6 11.843C6 11.8117 6 11.8117 6 11.843C6.31251 11.6849 6.62503 11.559 6.93754 11.401L8.15635 10.8322C8.46886 10.6742 8.78137 10.5483 9.09389 10.3902C9.53141 10.1688 10.0002 9.97951 10.4377 9.75807C10.7502 9.63128 11.0627 9.47324 11.3752 9.34734C11.594 9.25269 11.8128 9.15804 12.0315 9.03125C12.0628 9.03125 12.0628 9 12.094 9V15.4449C12.0628 15.4771 12.0628 15.4449 12.0315 15.4449C11.9378 15.3824 11.844 15.3503 11.7815 15.2869L6.0625 11.8751C6.03125 11.843 6 11.843 6 11.843ZM18.0943 13.0127C18.0943 13.0439 18.0943 13.0439 18.063 13.0752C16.2505 15.6664 14.4379 18.2254 12.6253 20.8166C12.4378 21.1005 12.2503 21.3532 12.0628 21.6381V16.6137C12.469 16.361 12.8753 16.1084 13.2816 15.8878L18.063 13.0439C18.063 13.0127 18.0943 13.0127 18.0943 13.0127Z" fill="#3C3C3B"/>
<path d="M12.1253 9.39287V2.03271L18.1256 12.0796C18.1568 12.1108 18.1881 12.1421 18.1881 12.1742C18.0631 12.1117 17.9381 12.0474 17.7818 11.9849C17.6256 11.9215 17.4693 11.8269 17.313 11.7635C17.2193 11.7323 17.1255 11.6689 17.0005 11.6367C16.8443 11.5742 16.6568 11.4787 16.5005 11.4162C16.4067 11.384 16.313 11.3215 16.2192 11.2894L15.563 11.0054C15.438 10.942 15.3442 10.9108 15.2192 10.8474C15.0629 10.784 14.9067 10.6894 14.7504 10.626C14.6567 10.5947 14.5629 10.5313 14.4692 10.5001L13.8129 10.2152C13.6879 10.1527 13.5941 10.1206 13.4691 10.0572C13.3129 9.99468 13.1566 9.89914 13.0003 9.83574C12.9066 9.77324 12.7816 9.7411 12.6878 9.67859L12.1253 9.39376V9.39287Z" fill="#343434"/>
</svg>
