<svg width="20" height="20" viewBox="0 0 20 20" fill="none" xmlns="http://www.w3.org/2000/svg">
<path d="M0.833313 4.78864C0.833313 4.18166 1.07476 3.59953 1.50453 3.17033C1.9343 2.74112 2.51719 2.5 3.12498 2.5H16.875C17.4828 2.5 18.0657 2.74112 18.4954 3.17033C18.9252 3.59953 19.1666 4.18166 19.1666 4.78864V13.9432C19.1666 14.5502 18.9252 15.1323 18.4954 15.5615C18.0657 15.9907 17.4828 16.2319 16.875 16.2319H5.89102C5.58715 16.2319 5.29575 16.3525 5.08092 16.5672L1.81185 19.8319C1.7318 19.9121 1.62973 19.9667 1.51856 19.9889C1.4074 20.0111 1.29214 19.9999 1.18737 19.9566C1.08261 19.9134 0.993044 19.84 0.930018 19.7459C0.866992 19.6518 0.833337 19.5412 0.833313 19.428V4.78864ZM9.07644 7.95384C9.00091 7.84126 8.91373 7.73694 8.81633 7.64258C8.6632 7.4851 8.48062 7.35913 8.27894 7.27182L8.26977 7.26725C7.99841 7.14142 7.70271 7.07657 7.40352 7.07729C6.30581 7.07729 5.41665 7.93095 5.41665 8.98487C5.41665 10.0377 6.30581 10.8913 7.40352 10.8913C7.79654 10.8913 8.16206 10.7826 8.47029 10.5938C8.31331 11.0389 8.02342 11.5138 7.54217 11.9899C7.49684 12.0341 7.46104 12.087 7.43699 12.1456C7.41294 12.2041 7.40114 12.2669 7.40233 12.3302C7.40351 12.3934 7.41764 12.4558 7.44386 12.5133C7.47008 12.5709 7.50782 12.6225 7.55477 12.665C7.753 12.8481 8.06696 12.8424 8.25831 12.6536C9.78685 11.1328 9.8281 9.49753 9.33654 8.41271C9.26434 8.25236 9.17726 8.09912 9.07644 7.95498V7.95384ZM13.4375 10.5938C13.2816 11.0389 12.9906 11.5138 12.5094 11.9899C12.4641 12.0341 12.4284 12.0872 12.4044 12.1457C12.3805 12.2043 12.3688 12.2672 12.3701 12.3304C12.3714 12.3937 12.3856 12.456 12.4119 12.5135C12.4382 12.5711 12.4761 12.6226 12.5231 12.665C12.7202 12.8481 13.0341 12.8424 13.2255 12.6536C14.754 11.1328 14.7953 9.49753 14.3049 8.41271C14.2323 8.25233 14.1448 8.09909 14.0436 7.95498C13.9682 7.842 13.881 7.73729 13.7835 7.64258C13.6304 7.48507 13.4478 7.3591 13.2461 7.27182L13.237 7.26725C12.9659 7.14158 12.6707 7.07674 12.3719 7.07729C11.2753 7.07729 10.385 7.93095 10.385 8.98487C10.385 10.0377 11.2753 10.8913 12.3719 10.8913C12.7649 10.8913 13.1304 10.7826 13.4386 10.5938H13.4375Z" fill="#101828"/>
</svg>
