<svg width="12" height="12" viewBox="0 0 12 12" fill="none" xmlns="http://www.w3.org/2000/svg">
<path d="M10.9815 2.66919L10.0832 1.77085L9.26067 0.948354C9.20628 0.893965 9.14171 0.850821 9.07065 0.821386C8.99959 0.79195 8.92342 0.7768 8.8465 0.7768C8.76959 0.7768 8.69342 0.79195 8.62236 0.821386C8.5513 0.850821 8.48673 0.893965 8.43234 0.948354C8.37795 1.00274 8.3348 1.06731 8.30537 1.13837C8.27593 1.20944 8.26078 1.2856 8.26078 1.36252C8.26078 1.43944 8.27593 1.5156 8.30537 1.58667C8.3348 1.65773 8.37795 1.7223 8.43234 1.77669L9.01567 2.36002L8.5315 3.81252C8.42912 4.12112 8.41472 4.45213 8.48994 4.76845C8.56515 5.08477 8.727 5.37388 8.95734 5.60335L10.6782 7.35335V10.0834C10.6782 10.2381 10.6167 10.3864 10.5073 10.4958C10.3979 10.6052 10.2495 10.6667 10.0948 10.6667C9.94013 10.6667 9.79175 10.6052 9.68236 10.4958C9.57296 10.3864 9.51151 10.2381 9.51151 10.0834V8.91669C9.51151 8.45256 9.32713 8.00744 8.99894 7.67925C8.67075 7.35106 8.22563 7.16669 7.7615 7.16669H7.1665V1.91669C7.1665 1.45256 6.98213 1.00744 6.65394 0.67925C6.32575 0.351062 5.88063 0.166687 5.4165 0.166687H1.9165C1.45238 0.166687 1.00726 0.351062 0.679067 0.67925C0.350878 1.00744 0.166504 1.45256 0.166504 1.91669V10.0834C0.166504 10.5475 0.350878 10.9926 0.679067 11.3208C1.00726 11.649 1.45238 11.8334 1.9165 11.8334H5.4165C5.88063 11.8334 6.32575 11.649 6.65394 11.3208C6.98213 10.9926 7.1665 10.5475 7.1665 10.0834V8.33335H7.74984C7.90455 8.33335 8.05292 8.39481 8.16232 8.50421C8.27171 8.6136 8.33317 8.76198 8.33317 8.91669V10.0834C8.33317 10.5475 8.51755 10.9926 8.84573 11.3208C9.17392 11.649 9.61904 11.8334 10.0832 11.8334C10.5473 11.8334 10.9924 11.649 11.3206 11.3208C11.6488 10.9926 11.8332 10.5475 11.8332 10.0834V4.73419C11.8339 4.35091 11.759 3.97125 11.6129 3.61693C11.4667 3.2626 11.2522 2.94055 10.9815 2.66919ZM5.99984 10.0834C5.99984 10.2381 5.93838 10.3864 5.82898 10.4958C5.71959 10.6052 5.57121 10.6667 5.4165 10.6667H1.9165C1.76179 10.6667 1.61342 10.6052 1.50403 10.4958C1.39463 10.3864 1.33317 10.2381 1.33317 10.0834V6.00002H5.99984V10.0834ZM5.99984 4.83335H1.33317V1.91669C1.33317 1.76198 1.39463 1.6136 1.50403 1.50421C1.61342 1.39481 1.76179 1.33335 1.9165 1.33335H5.4165C5.57121 1.33335 5.71959 1.39481 5.82898 1.50421C5.93838 1.6136 5.99984 1.76198 5.99984 1.91669V4.83335ZM10.6665 5.66169L9.76817 4.76335C9.69419 4.68792 9.6421 4.5938 9.61744 4.49106C9.59278 4.38832 9.59649 4.28082 9.62817 4.18002L9.92567 3.28169L10.1532 3.51502C10.4772 3.83859 10.6615 4.27629 10.6665 4.73419V5.66169Z" fill="#929F9E"/>
</svg>
