<svg width="16" height="17" viewBox="0 0 16 17" fill="none" xmlns="http://www.w3.org/2000/svg">
<g clip-path="url(#clip0_2894_2413)">
<path fill-rule="evenodd" clip-rule="evenodd" d="M7.4288 2.02471C7.61685 2.00836 7.80736 2 8 2C8.19264 2 8.38315 2.00836 8.5712 2.02471C8.60669 2.02779 8.67932 2.06149 8.70795 2.17093L8.99702 3.27622C9.14363 3.83676 9.54617 4.24277 9.99429 4.46473C10.1678 4.55067 10.3351 4.64753 10.4952 4.75443C10.9118 5.03261 11.4652 5.17836 12.0243 5.02497L13.1272 4.72235C13.2361 4.69246 13.3017 4.73831 13.3223 4.76758C13.5408 5.07848 13.7326 5.40924 13.8946 5.75654C13.9094 5.7884 13.9167 5.86792 13.8362 5.94746L13.0214 6.75258C12.6099 7.15921 12.4591 7.71008 12.4908 8.20918C12.4969 8.30524 12.5 8.4022 12.5 8.5C12.5 8.5978 12.4969 8.69476 12.4908 8.79082C12.4591 9.28992 12.6099 9.84079 13.0214 10.2474L13.8362 11.0525C13.9167 11.1321 13.9094 11.2116 13.8946 11.2435C13.7326 11.5908 13.5408 11.9215 13.3223 12.2324C13.3017 12.2617 13.2361 12.3075 13.1272 12.2777L12.0243 11.975C11.4652 11.8216 10.9118 11.9674 10.4952 12.2456C10.3351 12.3525 10.1678 12.4493 9.99429 12.5353C9.54617 12.7572 9.14363 13.1632 8.99702 13.7238L8.70795 14.8291C8.67932 14.9385 8.60669 14.9722 8.5712 14.9753C8.38315 14.9916 8.19264 15 8 15C7.80736 15 7.61685 14.9916 7.4288 14.9753C7.3933 14.9722 7.32067 14.9385 7.29205 14.8291L7.00296 13.7237C6.85636 13.1632 6.45383 12.7572 6.00572 12.5353C5.83221 12.4493 5.66496 12.3525 5.50487 12.2456C5.08825 11.9674 4.53481 11.8216 3.97577 11.975L2.87278 12.2777C2.76387 12.3075 2.69826 12.2617 2.67768 12.2324C2.45921 11.9215 2.26738 11.5908 2.10543 11.2435C2.09057 11.2116 2.08328 11.1321 2.16377 11.0525L2.97865 10.2474C3.39017 9.84074 3.541 9.28987 3.50924 8.79078C3.50314 8.69474 3.50003 8.59778 3.50003 8.5C3.50003 8.40222 3.50314 8.30526 3.50924 8.20922C3.541 7.71013 3.39017 7.15926 2.97865 6.75264L2.16377 5.94746C2.08328 5.86793 2.09057 5.78841 2.10543 5.75655C2.26738 5.40924 2.45921 5.07848 2.67769 4.76758C2.69826 4.73831 2.76387 4.69247 2.87278 4.72235L3.97577 5.02498C4.53481 5.17837 5.08825 5.03262 5.50487 4.75444C5.66496 4.64755 5.83221 4.55069 6.00572 4.46475C6.45382 4.24279 6.85636 3.83678 7.00296 3.27625L7.29205 2.17093C7.32067 2.06149 7.3933 2.02779 7.4288 2.02471ZM8 0.5C7.76394 0.5 7.53009 0.510245 7.29889 0.530344C6.55611 0.594914 6.00991 1.14504 5.84086 1.79138L5.55177 2.89671C5.53431 2.96349 5.47287 3.05476 5.33993 3.12061C5.10832 3.23533 4.88526 3.36452 4.67192 3.50697C4.54894 3.58908 4.43933 3.59674 4.37267 3.57845L3.26968 3.27581C2.62644 3.09932 1.87827 3.29629 1.45041 3.90515C1.18168 4.28757 0.945496 4.69473 0.745967 5.12262C0.430999 5.79808 0.634823 6.54545 1.10948 7.01446L1.92436 7.81963C1.9735 7.86819 2.02164 7.96677 2.01227 8.11399C2.00415 8.24171 2.00003 8.37043 2.00003 8.5C2.00003 8.62957 2.00415 8.75829 2.01227 8.88601C2.02164 9.03323 1.9735 9.13181 1.92436 9.18037L1.10948 9.98555C0.634822 10.4545 0.430999 11.2019 0.745967 11.8774C0.945495 12.3053 1.18168 12.7124 1.45041 13.0948C1.87827 13.7037 2.62644 13.9007 3.26968 13.7242L4.37267 13.4216C4.43933 13.4033 4.54895 13.4109 4.67192 13.493C4.88526 13.6355 5.10832 13.7647 5.33993 13.8794C5.47287 13.9452 5.53431 14.0365 5.55177 14.1033L5.84086 15.2086C6.00991 15.855 6.55611 16.4051 7.29889 16.4697C7.53009 16.4898 7.76394 16.5 8 16.5C8.23606 16.5 8.46991 16.4898 8.7011 16.4697C9.44388 16.4051 9.99009 15.855 10.1591 15.2086L10.4482 14.1033C10.4657 14.0365 10.5271 13.9453 10.6601 13.8794C10.8917 13.7647 11.1148 13.6355 11.3281 13.493C11.4511 13.4109 11.5607 13.4033 11.6274 13.4216L12.7303 13.7242C13.3736 13.9007 14.1217 13.7037 14.5496 13.0949C14.8183 12.7124 15.0545 12.3053 15.254 11.8774C15.569 11.2019 15.3652 10.4546 14.8905 9.98555L14.0757 9.18042C14.0265 9.13187 13.9784 9.03328 13.9878 8.88606C13.9959 8.75832 14 8.62959 14 8.5C14 8.37041 13.9959 8.24168 13.9878 8.11394C13.9784 7.96672 14.0265 7.86813 14.0757 7.81958L14.8905 7.01445C15.3652 6.54544 15.569 5.79807 15.254 5.12261C15.0545 4.69472 14.8183 4.28756 14.5496 3.90515C14.1217 3.29628 13.3736 3.09932 12.7303 3.27581L11.6274 3.57843C11.5607 3.59672 11.4511 3.58907 11.3281 3.50696C11.1148 3.3645 10.8917 3.2353 10.6601 3.12057C10.5271 3.05473 10.4657 2.96346 10.4482 2.89667L10.1591 1.79138C9.99009 1.14504 9.44388 0.594913 8.7011 0.530343C8.46991 0.510245 8.23606 0.5 8 0.5ZM9.5 8.5C9.5 9.32843 8.82843 10 8 10C7.17157 10 6.5 9.32843 6.5 8.5C6.5 7.67157 7.17157 7 8 7C8.82843 7 9.5 7.67157 9.5 8.5ZM11 8.5C11 10.1568 9.65685 11.5 8 11.5C6.34315 11.5 5 10.1568 5 8.5C5 6.84315 6.34315 5.5 8 5.5C9.65685 5.5 11 6.84315 11 8.5Z" fill="#24292E"/>
</g>
<defs>
<clipPath id="clip0_2894_2413">
<rect width="16" height="16" fill="white" transform="translate(0 0.5)"/>
</clipPath>
</defs>
</svg>
