<svg width="19" height="21" viewBox="0 0 19 21" fill="none" xmlns="http://www.w3.org/2000/svg">
    <path
        d="M5.0236 1.31058C5.64222 1.52096 6.40745 1.85626 7.14865 2.35611C8.0469 2.12454 9.0061 2 10.0001 2C10.993 2 11.9513 2.12429 12.8488 2.35541C13.5898 1.85581 14.3549 1.52068 14.9733 1.31041C15.6702 1.07347 16.6635 0.68873 17.2532 1.34204C17.6536 1.78558 17.7529 2.52998 17.8243 3.09751C17.9041 3.7317 17.9227 4.55836 17.7128 5.37797C18.5157 6.41477 19.0001 7.65244 19.0001 9C19.0001 11.0422 17.894 12.8148 16.2569 14.0426C15.5034 14.6077 14.6274 15.0673 13.6667 15.3988C13.8811 15.8891 14.0001 16.4307 14.0001 17V20C14.0001 20.5523 13.5523 21 13.0001 21H7.00005C6.44777 21 6.00005 20.5523 6.00005 20V19.0087C5.04473 19.1257 4.24413 19.0222 3.5626 18.7331C2.85081 18.4311 2.35469 17.9627 1.98181 17.5152C1.62811 17.0908 1.2425 16.1349 0.6838 15.9487C0.15986 15.774 -0.1233 15.2077 0.0513401 14.6838C0.22599 14.1598 0.79231 13.8767 1.31625 14.0513C1.98203 14.2732 2.41554 14.7534 2.71319 15.1386C3.19225 15.7585 3.58364 16.5695 4.3437 16.8919C4.65626 17.0245 5.11546 17.1125 5.8323 17.0137L6.0001 16.9802C6.00283 16.4181 6.12149 15.8834 6.33341 15.3988C5.37273 15.0673 4.49666 14.6077 3.7432 14.0426C2.10606 12.8148 1.00005 11.0422 1.00005 9C1.00005 7.65402 1.48329 6.41765 2.28448 5.38159C2.07379 4.56134 2.09217 3.73379 2.17192 3.09897C2.17352 3.08622 2.17512 3.07342 2.17673 3.06057C2.24961 2.47909 2.33549 1.79383 2.74307 1.34215C3.33266 0.6888 4.32676 1.07361 5.0236 1.31058Z"
        fill="#929F9E" />
</svg>