<svg width="147" height="21" viewBox="0 0 147 21" fill="none" xmlns="http://www.w3.org/2000/svg">
<g id="infura-logo (1) 1">
<g id="Clip path group">
<mask id="mask0_4775_10968" style="mask-type:luminance" maskUnits="userSpaceOnUse" x="0" y="0" width="147" height="21">
<g id="clip0_7909_15580">
<path id="Vector" d="M146.736 0H0V20.9999H146.736V0Z" fill="white"/>
</g>
</mask>
<g mask="url(#mask0_4775_10968)">
<g id="Group">
<path id="Vector_2" fill-rule="evenodd" clip-rule="evenodd" d="M136.314 11.7255L138.625 5.40202H139.187L141.5 11.7255H136.314ZM140.318 1.79858H137.501L131.084 19.281H133.554L135.489 13.9872H142.328L144.264 19.281H146.736L140.318 1.79858Z" fill="#121212"/>
<path id="Vector_3" fill-rule="evenodd" clip-rule="evenodd" d="M115.317 10.5242V4.10329H120.488C121.932 4.10329 124.355 4.52176 124.355 7.32493C124.355 9.96908 122.252 10.5242 120.488 10.5242H115.317ZM126.681 7.32489C126.681 4.57417 124.766 1.79834 120.487 1.79834H112.986V19.2808H115.316V12.8504H119.798L123.732 19.2808H126.541L122.438 12.6121C123.543 12.3527 126.681 11.2679 126.681 7.32489Z" fill="#121212"/>
<path id="Vector_4" fill-rule="evenodd" clip-rule="evenodd" d="M103.803 12.319C103.803 12.5093 103.751 16.9829 99.2904 16.9829C95.1386 16.9829 94.7869 13.4117 94.7785 12.319V1.31226H92.4427V12.319C92.4427 15.53 94.2364 19.2803 99.2904 19.2803C104.344 19.2803 106.138 15.53 106.138 12.319V1.31226H103.803V12.319Z" fill="#121212"/>
<path id="Vector_5" fill-rule="evenodd" clip-rule="evenodd" d="M73.8564 1.79858V19.281H76.187V11.0046H86.2805V8.7053H76.187V4.12574H87.5517V1.79858H73.8564Z" fill="#121212"/>
<path id="Vector_6" fill-rule="evenodd" clip-rule="evenodd" d="M64.0915 1.79858V15.6923H63.5614L54.9891 1.79858H51.8465V19.281H54.2751V5.82702H54.8051L62.9889 19.281H66.5201V1.79858H64.0915Z" fill="#121212"/>
<path id="Vector_7" fill-rule="evenodd" clip-rule="evenodd" d="M32.7714 1.79858V3.95676H37.9617V17.1234H32.7714V19.281H45.4883V17.1234H40.2985V3.95676H45.4883V1.79858H32.7714Z" fill="#121212"/>
<path id="Vector_8" fill-rule="evenodd" clip-rule="evenodd" d="M0.61323 1.79858V4.45836L7.09856 3.80444H9.49225V8.11019L5.46157 9.31816L0 10.6092L0.810807 13.2099L6.04462 11.2398L9.49225 10.207V17.2757H7.09856L0.61323 16.6207V19.281H20.4188V16.6207L13.9335 17.2757H11.5392V10.207L14.9698 11.2342L20.2213 13.2099L21.032 10.6092L15.5847 9.32206L11.5392 8.11019V3.80444H13.9335L20.4188 4.45836V1.79858H0.61323Z" fill="#FF5833"/>
</g>
</g>
</g>
</g>
</svg>
