<svg width="180" height="70" xmlns="http://www.w3.org/2000/svg" fill="none" stroke="null">
 <g id="Layer_1" stroke="null">
  <title stroke="null">Layer 1</title>
  <path fill="#232323" d="m81.45829,40.45279c-0.67631,-0.51983 -1.04523,-1.31451 -1.10831,-2.3827l2.60806,-1.28196c0.0535,0.59985 0.20842,1.04701 0.46811,1.34126c0.25991,0.29424 0.6402,0.43936 1.14465,0.43936c0.66093,0 1.17496,-0.24253 1.53809,-0.72981c0.3629,-0.48728 0.63619,-1.24384 0.81764,-2.27169l1.62792,-9.22851l2.87756,0l-1.67562,9.50938c-0.33637,1.90879 -1.02227,3.28236 -2.05791,4.12318c-1.03564,0.8406 -2.24115,1.26101 -3.61695,1.26101c-1.07376,0.00201 -1.9469,-0.25791 -2.62322,-0.77952l-0.00002,0z" id="svg_1" stroke="null"/>
  <path fill="#232323" d="m93.05434,32.9476c0.62861,-0.82722 1.38695,-1.46542 2.27169,-1.91258c0.88652,-0.44694 1.798,-0.67052 2.73802,-0.67052c0.92664,0 1.75007,0.22358 2.47231,0.67052c0.72223,0.44716 1.25165,1.08535 1.58779,1.91258c0.33637,0.82745 0.41082,1.78084 0.21979,2.86218c-0.19103,1.08156 -0.60008,2.03495 -1.22869,2.86218c-0.62861,0.82745 -1.38138,1.46163 -2.26032,1.90121c-0.87872,0.43936 -1.78061,0.66115 -2.70725,0.66115c-0.94002,0 -1.77504,-0.21979 -2.50485,-0.66115c-0.73003,-0.43958 -1.26301,-1.07376 -1.59939,-1.90121c-0.33816,-0.82722 -0.41082,-1.78061 -0.21957,-2.86218c0.19282,-1.08134 0.60186,-2.03473 1.23047,-2.86218zm1.92773,5.05384c0.36112,0.54056 0.88652,0.81006 1.57442,0.81006c0.6879,0 1.30492,-0.2695 1.84949,-0.81006c0.54457,-0.54078 0.89989,-1.27059 1.06039,-2.19166c0.1625,-0.92085 0.06687,-1.65467 -0.28644,-2.20303c-0.35354,-0.54635 -0.87515,-0.82143 -1.56305,-0.82143c-0.6879,0 -1.30871,0.27307 -1.86086,0.82143c-0.55416,0.54658 -0.91148,1.28018 -1.07399,2.20303c-0.1605,0.92107 -0.06108,1.65088 0.30004,2.19166z" id="svg_2" stroke="null"/>
  <path fill="#232323" d="m111.71756,30.6242l2.87733,0l-6.69491,11.73158c-0.70886,1.24184 -1.43867,2.13794 -2.19166,2.6921c-0.75277,0.55416 -1.61833,0.83123 -2.59847,0.83123c-0.47569,0 -0.91126,-0.07089 -1.30291,-0.21021c-0.39188,-0.13954 -0.72045,-0.33058 -0.98215,-0.56954l1.46542,-2.12256c0.34596,0.29424 0.75656,0.43936 1.23247,0.43936c0.30383,0 0.57689,-0.06308 0.81764,-0.18925c0.24074,-0.12795 0.48728,-0.34774 0.7414,-0.66093c0.25412,-0.31341 0.56753,-0.77774 0.94002,-1.39096l-2.60605,-10.54882l3.09712,0l1.45984,7.14586l3.7449,-7.14786l0.00001,0z" id="svg_3" stroke="null"/>
  <path fill="#232323" d="m117.25444,40.99357l-2.87733,0l2.58309,-14.65305l2.87756,0l-2.58332,14.65305z" id="svg_4" stroke="null"/>
  <path fill="#232323" d="m127.71944,26.34052c1.41571,0 2.64618,0.28666 3.6894,0.86177c1.04322,0.57511 1.80001,1.41013 2.26812,2.51265c0.46811,1.10051 0.56731,2.41123 0.29803,3.93393c-0.2695,1.52092 -0.83123,2.83543 -1.68721,3.94374c-0.85776,1.10809 -1.90477,1.9527 -3.14683,2.5316c-1.24005,0.58068 -2.57551,0.87114 -4.00482,0.87114l-4.84341,0l2.58309,-14.65283l4.84363,0l0,-0.00201l0,0.00001zm-2.4839,12.17094c1.56105,0 2.83364,-0.42019 3.81557,-1.26101c0.98215,-0.8406 1.61075,-2.04053 1.88583,-3.60336c0.27128,-1.5343 0.05929,-2.72464 -0.63039,-3.57304c-0.69169,-0.84639 -1.81137,-1.27059 -3.35905,-1.27059l-1.62792,0l-1.71196,9.708l1.62792,0z" id="svg_5" stroke="null"/>
  <path fill="#8CDD00" d="m67.90619,32.78889c0.92954,0 1.6832,-0.75344 1.6832,-1.6832c0,-0.92954 -0.75366,-1.6832 -1.6832,-1.6832c-0.92976,0 -1.68342,0.75366 -1.68342,1.6832c0,0.92976 0.75366,1.6832 1.68342,1.6832z" id="svg_6" stroke="null"/>
  <path fill="#8CDD00" d="m56.57384,29.42249c-0.8426,0 -1.52649,0.68389 -1.52649,1.52649c0,0.8426 0.68389,1.52672 1.52649,1.52672c0.8426,0 1.52672,-0.68411 1.52672,-1.52672c-0.00201,-0.8426 -0.68411,-1.52649 -1.52672,-1.52649z" id="svg_7" stroke="null"/>
  <path fill="#C1C1C1" d="m61.1745,28.17084l-1.68699,8.02101c-0.15671,0.74898 -0.82745,1.29177 -1.59158,1.29177c-0.49486,0 -0.9554,-0.2218 -1.2668,-0.60587c-0.24275,-0.29982 -0.36491,-0.66873 -0.35911,-1.04701l-3.04764,0.78732c0.12996,0.79847 0.45853,1.56105 0.98215,2.21239c0.90368,1.12169 2.24873,1.76545 3.6894,1.76545c2.228,0 4.17668,-1.582 4.63543,-3.76207l1.82274,-8.66098l-3.1776,0l0,-0.00201z" id="svg_8" stroke="null"/>
  <path fill="#8CDD00" d="m75.45507,22.47145c-1.02227,-1.25922 -2.5394,-1.98146 -4.16152,-1.98146l-3.75449,0l-0.65536,3.11072l4.40985,0c0.68032,0 1.31651,0.30182 1.7445,0.83101c0.42799,0.52741 0.59428,1.2133 0.45474,1.87825l-0.65536,3.11251l3.17938,0l0.52161,-2.47052c0.33236,-1.58779 -0.0613,-3.22151 -1.08335,-4.48051z" id="svg_9" stroke="null"/>
  <path fill="#8CDD00" d="m70.71643,39.50698c-0.45853,2.17806 -2.40543,3.75828 -4.63142,3.75828l-3.34166,0l-0.65536,3.1105l3.99702,0c3.68762,0 6.9167,-2.61943 7.67505,-6.2288l0.55037,-2.61764l-3.17938,0l-0.41461,1.97767l-0.00001,-0.00001z" id="svg_10" stroke="null"/>
  <path fill="#8CDD00" d="m47.80185,26.7188l-0.56931,2.70569l3.17938,0l0.43378,-2.06371c0.45853,-2.17806 2.40543,-3.75828 4.63142,-3.75828l3.20212,0l0.65536,-3.1105l-3.85747,0c-3.68762,-0.00178 -6.9167,2.61764 -7.67527,6.22679l-0.00001,0.00001z" id="svg_11" stroke="null"/>
  <path fill="#8CDD00" d="m48.52408,42.43224c-0.42799,-0.52741 -0.59406,-1.2133 -0.45474,-1.87825l0.58091,-2.75719l-3.36283,0.86757l-0.2637,1.24964c-0.33437,1.58757 0.0613,3.22129 1.08335,4.48051c1.02227,1.259 2.5394,1.98123 4.16152,1.98123l3.61495,0l0.65536,-3.1105l-4.27031,0c-0.68032,-0.00201 -1.31651,-0.30383 -1.7445,-0.83302l-0.00001,0.00001z" id="svg_12" stroke="null"/>
  <path fill="#232323" d="m81.45829,40.45279c-0.67631,-0.51983 -1.04523,-1.31451 -1.10831,-2.3827l2.60806,-1.28196c0.0535,0.59985 0.20842,1.04701 0.46811,1.34126c0.25991,0.29424 0.6402,0.43936 1.14465,0.43936c0.66093,0 1.17496,-0.24253 1.53809,-0.72981c0.3629,-0.48728 0.63619,-1.24384 0.81764,-2.27169l1.62792,-9.22851l2.87756,0l-1.67562,9.50938c-0.33637,1.90879 -1.02227,3.28236 -2.05791,4.12318c-1.03564,0.8406 -2.24115,1.26101 -3.61695,1.26101c-1.07376,0.00201 -1.9469,-0.25791 -2.62322,-0.77952l-0.00002,0z" id="svg_52" stroke="null"/>
  <path fill="#232323" d="m93.05434,32.9476c0.62861,-0.82722 1.38695,-1.46542 2.27169,-1.91258c0.88652,-0.44694 1.798,-0.67052 2.73802,-0.67052c0.92664,0 1.75007,0.22358 2.47231,0.67052c0.72223,0.44716 1.25165,1.08535 1.58779,1.91258c0.33637,0.82745 0.41082,1.78084 0.21979,2.86218c-0.19103,1.08156 -0.60008,2.03495 -1.22869,2.86218c-0.62861,0.82745 -1.38138,1.46163 -2.26032,1.90121c-0.87872,0.43936 -1.78061,0.66115 -2.70725,0.66115c-0.94002,0 -1.77504,-0.21979 -2.50485,-0.66115c-0.73003,-0.43958 -1.26301,-1.07376 -1.59939,-1.90121c-0.33816,-0.82722 -0.41082,-1.78061 -0.21957,-2.86218c0.19282,-1.08134 0.60186,-2.03473 1.23047,-2.86218zm1.92773,5.05384c0.36112,0.54056 0.88652,0.81006 1.57442,0.81006c0.6879,0 1.30492,-0.2695 1.84949,-0.81006c0.54457,-0.54078 0.89989,-1.27059 1.06039,-2.19166c0.1625,-0.92085 0.06687,-1.65467 -0.28644,-2.20303c-0.35354,-0.54635 -0.87515,-0.82143 -1.56305,-0.82143c-0.6879,0 -1.30871,0.27307 -1.86086,0.82143c-0.55416,0.54658 -0.91148,1.28018 -1.07399,2.20303c-0.1605,0.92107 -0.06108,1.65088 0.30004,2.19166z" id="svg_53" stroke="null"/>
  <path fill="#232323" d="m111.71756,30.6242l2.87733,0l-6.69491,11.73158c-0.70886,1.24184 -1.43867,2.13794 -2.19166,2.6921c-0.75277,0.55416 -1.61833,0.83123 -2.59847,0.83123c-0.47569,0 -0.91126,-0.07089 -1.30291,-0.21021c-0.39188,-0.13954 -0.72045,-0.33058 -0.98215,-0.56954l1.46542,-2.12256c0.34596,0.29424 0.75656,0.43936 1.23247,0.43936c0.30383,0 0.57689,-0.06308 0.81764,-0.18925c0.24074,-0.12795 0.48728,-0.34774 0.7414,-0.66093c0.25412,-0.31341 0.56753,-0.77774 0.94002,-1.39096l-2.60605,-10.54882l3.09712,0l1.45984,7.14586l3.7449,-7.14786l0.00001,0z" id="svg_54" stroke="null"/>
  <path fill="#232323" d="m117.25444,40.99357l-2.87733,0l2.58309,-14.65305l2.87756,0l-2.58332,14.65305z" id="svg_55" stroke="null"/>
  <path fill="#232323" d="m127.71944,26.34052c1.41571,0 2.64618,0.28666 3.6894,0.86177c1.04322,0.57511 1.80001,1.41013 2.26812,2.51265c0.46811,1.10051 0.56731,2.41123 0.29803,3.93393c-0.2695,1.52092 -0.83123,2.83543 -1.68721,3.94374c-0.85776,1.10809 -1.90477,1.9527 -3.14683,2.5316c-1.24005,0.58068 -2.57551,0.87114 -4.00482,0.87114l-4.84341,0l2.58309,-14.65283l4.84363,0l0,-0.00201l0,0.00001zm-2.4839,12.17094c1.56105,0 2.83364,-0.42019 3.81557,-1.26101c0.98215,-0.8406 1.61075,-2.04053 1.88583,-3.60336c0.27128,-1.5343 0.05929,-2.72464 -0.63039,-3.57304c-0.69169,-0.84639 -1.81137,-1.27059 -3.35905,-1.27059l-1.62792,0l-1.71196,9.708l1.62792,0z" id="svg_56" stroke="null"/>
  <path fill="#8CDD00" d="m67.90619,32.78889c0.92954,0 1.6832,-0.75344 1.6832,-1.6832c0,-0.92954 -0.75366,-1.6832 -1.6832,-1.6832c-0.92976,0 -1.68342,0.75366 -1.68342,1.6832c0,0.92976 0.75366,1.6832 1.68342,1.6832z" id="svg_57" stroke="null"/>
  <path fill="#8CDD00" d="m56.57384,29.42249c-0.8426,0 -1.52649,0.68389 -1.52649,1.52649c0,0.8426 0.68389,1.52672 1.52649,1.52672c0.8426,0 1.52672,-0.68411 1.52672,-1.52672c-0.00201,-0.8426 -0.68411,-1.52649 -1.52672,-1.52649z" id="svg_58" stroke="null"/>
  <path fill="#C1C1C1" d="m61.1745,28.17084l-1.68699,8.02101c-0.15671,0.74898 -0.82745,1.29177 -1.59158,1.29177c-0.49486,0 -0.9554,-0.2218 -1.2668,-0.60587c-0.24275,-0.29982 -0.36491,-0.66873 -0.35911,-1.04701l-3.04764,0.78732c0.12996,0.79847 0.45853,1.56105 0.98215,2.21239c0.90368,1.12169 2.24873,1.76545 3.6894,1.76545c2.228,0 4.17668,-1.582 4.63543,-3.76207l1.82274,-8.66098l-3.1776,0l0,-0.00201z" id="svg_59" stroke="null"/>
  <path fill="#8CDD00" d="m75.45507,22.47145c-1.02227,-1.25922 -2.5394,-1.98146 -4.16152,-1.98146l-3.75449,0l-0.65536,3.11072l4.40985,0c0.68032,0 1.31651,0.30182 1.7445,0.83101c0.42799,0.52741 0.59428,1.2133 0.45474,1.87825l-0.65536,3.11251l3.17938,0l0.52161,-2.47052c0.33236,-1.58779 -0.0613,-3.22151 -1.08335,-4.48051z" id="svg_60" stroke="null"/>
  <path fill="#8CDD00" d="m70.71643,39.50698c-0.45853,2.17806 -2.40543,3.75828 -4.63142,3.75828l-3.34166,0l-0.65536,3.1105l3.99702,0c3.68762,0 6.9167,-2.61943 7.67505,-6.2288l0.55037,-2.61764l-3.17938,0l-0.41461,1.97767l-0.00001,-0.00001z" id="svg_61" stroke="null"/>
  <path fill="#8CDD00" d="m47.80185,26.7188l-0.56931,2.70569l3.17938,0l0.43378,-2.06371c0.45853,-2.17806 2.40543,-3.75828 4.63142,-3.75828l3.20212,0l0.65536,-3.1105l-3.85747,0c-3.68762,-0.00178 -6.9167,2.61764 -7.67527,6.22679l-0.00001,0.00001z" id="svg_62" stroke="null"/>
  <path fill="#8CDD00" d="m48.52408,42.43224c-0.42799,-0.52741 -0.59406,-1.2133 -0.45474,-1.87825l0.58091,-2.75719l-3.36283,0.86757l-0.2637,1.24964c-0.33437,1.58757 0.0613,3.22129 1.08335,4.48051c1.02227,1.259 2.5394,1.98123 4.16152,1.98123l3.61495,0l0.65536,-3.1105l-4.27031,0c-0.68032,-0.00201 -1.31651,-0.30383 -1.7445,-0.83302l-0.00001,0.00001z" id="svg_63" stroke="null"/>
 </g>

</svg>