<svg width="180" height="70" viewBox="0 0 180 70" fill="none" xmlns="http://www.w3.org/2000/svg">
<rect width="180" height="70" fill="white"/>
<path d="M41.0463 19.3277C39.4902 19.6414 38.0983 20.5479 37.2098 21.7498C36.311 22.9466 35.8282 24.3444 35.572 25.7511C35.3198 27.1629 35.3403 28.5934 35.4174 30.0006C35.5812 32.8383 36.2134 35.6385 37.2915 38.3032C37.8364 39.6356 38.4835 40.9264 39.2539 42.1647C40.0346 43.3994 40.9488 44.5583 41.9554 45.6434C42.9774 46.7088 44.0714 47.7747 45.5403 48.4338C45.9101 48.6021 46.3158 48.705 46.7369 48.7615C47.1786 48.8036 47.6049 48.7382 47.9952 48.6302C48.781 48.4109 49.4744 48.0369 50.1266 47.6297C51.0306 47.0599 51.8626 46.4007 52.6432 45.7135C52.9771 45.4091 53.3109 45.1053 53.6345 44.7972C53.691 44.7458 53.7423 44.6892 53.804 44.6336C54.8106 43.6565 55.7505 42.6182 56.6544 41.5664C58.5598 39.3271 60.3112 36.9943 61.893 34.5633C63.4698 32.1328 64.9694 29.6504 66.0942 26.9946C66.6694 25.6809 66.9827 24.1569 66.5924 22.7082C66.4024 21.9877 66.0172 21.2823 65.37 20.7723C64.7281 20.2632 63.8395 20.043 63.0127 20.0897C62.1755 20.1318 61.4257 20.4034 60.7066 20.6886C59.9825 20.9925 59.2891 21.3566 58.6625 21.7919C57.394 22.6469 56.3154 23.7226 55.4161 24.8815C53.6139 27.2237 52.3916 29.8603 51.4358 32.5437C50.5118 35.2225 49.6131 37.9858 49.7255 40.8698C49.762 41.585 49.8544 42.2956 50.0958 42.9927C50.178 43.226 50.2859 43.4602 50.4091 43.6794C49.7255 44.2923 49.0276 44.858 48.3496 45.2969C47.8617 45.6059 46.9732 45.9842 46.9732 45.9842C46.9732 45.9842 46.8807 45.9659 46.8242 45.9332C46.511 45.835 46.0282 45.5307 45.5659 45.1712C45.1032 44.8154 44.6312 44.3853 44.1746 43.9178C43.7216 43.4602 43.2394 42.9361 42.849 42.4457C42.433 41.959 42.0581 41.4266 41.6883 40.8936C40.9744 39.8039 40.3222 38.659 39.7726 37.4618C38.6741 35.0733 37.9699 32.5021 37.6926 29.8837C37.595 29.2344 37.5647 28.5612 37.5231 27.9202C37.4974 27.2891 37.5185 26.6585 37.5796 26.0414C37.7183 24.8119 38.0572 23.624 38.6787 22.6661C39.295 21.7077 40.1943 20.9831 41.3956 20.6367C42.5923 20.2725 43.8351 20.3702 45.0472 20.9125C46.2495 21.4553 47.3271 22.4043 48.2418 23.4655C49.1714 24.5309 49.988 25.7328 50.63 26.9946L50.6356 27.0133C50.6711 27.0792 50.7635 27.1166 50.8405 27.0932C50.9278 27.06 50.9689 26.9759 50.9381 26.9016C50.4297 25.5547 49.7414 24.2743 48.8992 23.077C48.0415 21.8989 46.9989 20.7821 45.6481 20.0201C44.9753 19.6367 44.2157 19.3605 43.4294 19.2436C43.1213 19.1945 42.81 19.1716 42.4988 19.1716C42.0109 19.1716 41.523 19.2277 41.0463 19.3277ZM51.6571 41.6884C51.631 41.3985 51.6212 41.0993 51.6309 40.795C51.6571 39.5753 51.9191 38.3033 52.294 37.041C52.484 36.4006 52.6997 35.7788 52.9514 35.1336C53.1923 34.4937 53.4085 33.8434 53.6858 33.2169L54.0705 32.2726L54.5024 31.3516C54.7695 30.7299 55.1136 30.1502 55.4161 29.5565C56.0843 28.4018 56.8136 27.2989 57.6354 26.3312C58.3446 25.4958 59.1438 24.716 60.0693 24.0761C60.7852 23.5805 62.1899 22.4941 63.1631 22.9232C63.8406 23.2219 63.8031 23.9564 63.6485 24.5248C63.5987 24.7072 63.5417 24.8811 63.4954 25.0335C63.0132 26.6197 62.1827 28.0881 61.3332 29.5336C60.6394 30.7158 59.8998 31.8897 59.1196 33.0491C57.5532 35.3534 55.8943 37.6254 54.1121 39.7712C53.3571 40.6739 52.5816 41.5528 51.765 42.3751C51.7188 42.1741 51.6777 41.9361 51.6571 41.6884Z" fill="url(#paint0_linear_4775_10927)"/>
<path d="M71.4203 37.7391L71.414 37.7513C70.5202 38.9233 69.3413 39.8718 68.1027 40.7214C66.8573 41.5584 65.5396 42.3156 64.1886 42.9909C62.8309 43.6609 61.4274 44.2744 60.0291 44.7209C59.8575 44.7774 59.6854 44.8266 59.5262 44.8699C59.3541 44.9142 59.2148 44.9386 59.0229 44.9756C58.6651 45.0501 58.3074 45.0997 57.9501 45.1431C57.2351 45.2297 56.5331 45.2424 55.8503 45.1932C55.1421 45.1372 54.4661 44.9819 53.8899 44.7273C53.8306 44.7896 53.7776 44.8451 53.7183 44.9011C53.3933 45.2239 53.0558 45.5404 52.7184 45.8564C53.6715 46.3151 54.7578 46.5259 55.8108 46.5512C56.6054 46.5697 57.4072 46.5011 58.1815 46.3643C58.9568 46.2284 59.7446 46.0609 60.4794 45.7692C61.9432 45.2054 63.3275 44.5043 64.6722 43.7413C66.0164 42.9729 67.3076 42.1354 68.5197 41.1864C69.7256 40.2379 70.8639 39.1838 71.699 37.9061C71.7448 37.8379 71.725 37.7513 71.6522 37.7011C71.6246 37.6826 71.5919 37.6733 71.5591 37.6733C71.5066 37.6733 71.4536 37.6967 71.4203 37.7391Z" fill="url(#paint1_linear_4775_10927)"/>
<path d="M80.1213 42.122V26.6403H82.9251V39.771H89.742V42.122H80.1213Z" fill="black"/>
<path d="M93.6671 26.6403L97.0755 32.3099H97.1964L100.62 26.6403H103.817L99.048 34.3811L103.892 42.122H100.643L97.1964 36.4902H97.0755L93.6293 42.122H90.3947L95.2844 34.3811L90.4551 26.6403H93.6671Z" fill="black"/>
<path d="M110.412 42.122H105.167V26.6403H110.517C112.054 26.6403 113.374 26.9502 114.477 27.5701C115.586 28.1849 116.437 29.0694 117.032 30.2234C117.626 31.3775 117.924 32.7584 117.924 34.366C117.924 35.9787 117.624 37.3646 117.024 38.5237C116.43 39.6829 115.571 40.5723 114.447 41.1922C113.329 41.8121 111.983 42.122 110.412 42.122ZM107.97 39.6954H110.275C111.354 39.6954 112.253 39.4989 112.974 39.1058C113.694 38.7077 114.236 38.1155 114.598 37.3293C114.961 36.5381 115.143 35.5503 115.143 34.366C115.143 33.1817 114.961 32.199 114.598 31.4178C114.236 30.6317 113.699 30.0445 112.989 29.6565C112.283 29.2634 111.407 29.0668 110.359 29.0668H107.97V39.6954Z" fill="black"/>
<path d="M120.893 42.122H117.9L123.349 26.6403H126.81L132.267 42.122H129.274L125.14 29.8152H125.019L120.893 42.122ZM120.991 36.0518H129.153V38.3045H120.991V36.0518Z" fill="black"/>
<path d="M146.557 34.3811C146.557 36.0493 146.245 37.478 145.62 38.6674C145 39.8517 144.154 40.7588 143.08 41.3888C142.012 42.0187 140.801 42.3337 139.445 42.3337C138.09 42.3337 136.876 42.0187 135.803 41.3888C134.734 40.7538 133.888 39.8441 133.263 38.6598C132.644 37.4704 132.334 36.0442 132.334 34.3811C132.334 32.713 132.644 31.2868 133.263 30.1025C133.888 28.9131 134.734 28.0035 135.803 27.3735C136.876 26.7436 138.09 26.4286 139.445 26.4286C140.801 26.4286 142.012 26.7436 143.08 27.3735C144.154 28.0035 145 28.9131 145.62 30.1025C146.245 31.2868 146.557 32.713 146.557 34.3811ZM143.738 34.3811C143.738 33.2069 143.554 32.2166 143.186 31.4103C142.824 30.5989 142.32 29.9866 141.675 29.5733C141.03 29.155 140.287 28.9459 139.445 28.9459C138.604 28.9459 137.861 29.155 137.216 29.5733C136.571 29.9866 136.065 30.5989 135.697 31.4103C135.334 32.2166 135.153 33.2069 135.153 34.3811C135.153 35.5554 135.334 36.5482 135.697 37.3596C136.065 38.1659 136.571 38.7782 137.216 39.1965C137.861 39.6098 138.604 39.8164 139.445 39.8164C140.287 39.8164 141.03 39.6098 141.675 39.1965C142.32 38.7782 142.824 38.1659 143.186 37.3596C143.554 36.5482 143.738 35.5554 143.738 34.3811Z" fill="black"/>
<defs>
<linearGradient id="paint0_linear_4775_10927" x1="68.0152" y1="33.9729" x2="34.1367" y2="33.9729" gradientUnits="userSpaceOnUse">
<stop stop-color="#00FB8C"/>
<stop offset="0.0971267" stop-color="#64CCEB"/>
<stop offset="0.276683" stop-color="#64CCEB"/>
<stop offset="0.319606" stop-color="#64CCEB"/>
<stop offset="0.697546" stop-color="#0F39D9"/>
<stop offset="0.806149" stop-color="#0F39D9"/>
<stop offset="1" stop-color="#64CCEB"/>
</linearGradient>
<linearGradient id="paint1_linear_4775_10927" x1="67.5298" y1="44.6678" x2="57.329" y2="38.3781" gradientUnits="userSpaceOnUse">
<stop stop-color="#00FB8C"/>
<stop offset="0.0958371" stop-color="#64CCEB"/>
<stop offset="0.477009" stop-color="#64CCEB"/>
<stop offset="0.646695" stop-color="#64CCEB"/>
<stop offset="1" stop-color="#0F39D9"/>
</linearGradient>
</defs>
</svg>
