<svg width="112" height="30" viewBox="0 0 112 30" fill="none" xmlns="http://www.w3.org/2000/svg">
<path d="M6.04634 0.327723C4.49016 0.641409 3.09832 1.54788 2.20981 2.7498C1.31102 3.94658 0.828247 5.34438 0.571965 6.75107C0.319791 8.1629 0.340337 9.59342 0.417376 11.0006C0.581212 13.8383 1.21344 16.6385 2.29147 19.3032C2.83639 20.6356 3.48352 21.9264 4.25391 23.1647C5.03457 24.3994 5.94876 25.5583 6.9554 26.6434C7.97744 27.7088 9.0714 28.7747 10.5403 29.4338C10.9101 29.6021 11.3158 29.705 11.7369 29.7615C12.1786 29.8036 12.6049 29.7382 12.9952 29.6302C13.781 29.4109 14.4744 29.0369 15.1266 28.6297C16.0306 28.0599 16.8626 27.4007 17.6432 26.7135C17.9771 26.4091 18.3109 26.1053 18.6345 25.7972C18.691 25.7458 18.7423 25.6892 18.804 25.6336C19.8106 24.6565 20.7505 23.6182 21.6544 22.5664C23.5598 20.3271 25.3112 17.9943 26.893 15.5633C28.4698 13.1328 29.9694 10.6504 31.0942 7.9946C31.6694 6.68095 31.9827 5.15692 31.5924 3.70816C31.4024 2.98775 31.0172 2.28231 30.37 1.77227C29.7281 1.26317 28.8395 1.04299 28.0127 1.08974C27.1755 1.13181 26.4257 1.40343 25.7066 1.6886C24.9825 1.99247 24.2891 2.35664 23.6625 2.79187C22.394 3.64692 21.3154 4.72262 20.4161 5.88154C18.6139 8.22368 17.3916 10.8603 16.4358 13.5437C15.5118 16.2225 14.6131 18.9858 14.7255 21.8698C14.762 22.585 14.8544 23.2956 15.0958 23.9927C15.178 24.226 15.2859 24.4602 15.4091 24.6794C14.7255 25.2923 14.0276 25.858 13.3496 26.2969C12.8617 26.6059 11.9732 26.9842 11.9732 26.9842C11.9732 26.9842 11.8807 26.9659 11.8242 26.9332C11.511 26.835 11.0282 26.5307 10.5659 26.1712C10.1032 25.8154 9.63121 25.3853 9.17463 24.9178C8.72164 24.4602 8.23938 23.9361 7.84905 23.4457C7.43304 22.959 7.05812 22.4266 6.68833 21.8936C5.97444 20.8039 5.32217 19.659 4.77263 18.4618C3.67406 16.0733 2.96993 13.5021 2.69259 10.8837C2.59501 10.2344 2.5647 9.56117 2.5231 8.92024C2.49742 8.28913 2.51848 7.65847 2.5796 7.04138C2.71827 5.81188 3.05724 4.62398 3.67868 3.66608C4.29499 2.70772 5.19429 1.98311 6.39558 1.6367C7.59225 1.27252 8.83514 1.37024 10.0472 1.91253C11.2495 2.45529 12.3271 3.4043 13.2418 4.46551C14.1714 5.53092 14.988 6.73284 15.63 7.9946L15.6356 8.0133C15.6711 8.07922 15.7635 8.11662 15.8405 8.09324C15.9278 8.06005 15.9689 7.9759 15.9381 7.90157C15.4297 6.55472 14.7414 5.27426 13.8992 4.07701C13.0415 2.89893 11.9989 1.78209 10.6481 1.02007C9.97532 0.636728 9.21571 0.360451 8.42941 0.243576C8.12125 0.19449 7.81002 0.171587 7.49878 0.171587C7.01087 0.171587 6.52295 0.227678 6.04634 0.327723ZM16.6571 22.6884C16.631 22.3985 16.6212 22.0993 16.6309 21.795C16.6571 20.5753 16.9191 19.3033 17.294 18.041C17.484 17.4006 17.6997 16.7788 17.9514 16.1336C18.1923 15.4937 18.4085 14.8434 18.6858 14.2169L19.0705 13.2726L19.5024 12.3516C19.7695 11.7299 20.1136 11.1502 20.4161 10.5565C21.0843 9.40176 21.8136 8.29893 22.6354 7.33122C23.3446 6.49582 24.1438 5.71605 25.0693 5.07605C25.7852 4.58051 27.1899 3.49405 28.1631 3.92321C28.8406 4.22194 28.8031 4.95637 28.6485 5.52484C28.5987 5.70716 28.5417 5.88106 28.4954 6.03346C28.0132 7.61967 27.1827 9.08807 26.3332 10.5336C25.6394 11.7158 24.8998 12.8897 24.1196 14.0491C22.5532 16.3534 20.8943 18.6254 19.1121 20.7712C18.3571 21.6739 17.5816 22.5528 16.765 23.3751C16.7188 23.1741 16.6777 22.9361 16.6571 22.6884Z" fill="url(#paint0_linear_3275_3186)"/>
<path d="M36.4203 18.7391L36.4141 18.7513C35.5202 19.9233 34.3413 20.8718 33.1027 21.7214C31.8573 22.5584 30.5396 23.3156 29.1886 23.9909C27.8309 24.6609 26.4274 25.2744 25.0291 25.7209C24.8575 25.7774 24.6854 25.8266 24.5263 25.8699C24.3541 25.9142 24.2148 25.9386 24.0229 25.9756C23.6652 26.0501 23.3074 26.0997 22.9501 26.1431C22.2351 26.2297 21.5331 26.2424 20.8504 26.1932C20.1421 26.1372 19.4661 25.9819 18.89 25.7273C18.8307 25.7896 18.7776 25.8451 18.7184 25.9011C18.3934 26.2239 18.0559 26.5404 17.7184 26.8564C18.6716 27.3151 19.7578 27.5259 20.8108 27.5512C21.6054 27.5697 22.4073 27.5011 23.1815 27.3643C23.9569 27.2284 24.7447 27.0609 25.4794 26.7692C26.9433 26.2054 28.3275 25.5043 29.6722 24.7413C31.0164 23.9729 32.3076 23.1354 33.5197 22.1864C34.7256 21.2379 35.8639 20.1838 36.699 18.9061C36.7448 18.8379 36.725 18.7513 36.6522 18.7011C36.6247 18.6826 36.5919 18.6733 36.5592 18.6733C36.5066 18.6733 36.4536 18.6967 36.4203 18.7391Z" fill="url(#paint1_linear_3275_3186)"/>
<path d="M45.1213 23.122V7.64025H47.9252V20.771H54.742V23.122H45.1213Z" fill="black"/>
<path d="M58.6671 7.64025L62.0755 13.3099H62.1964L65.62 7.64025H68.8168L64.048 15.3811L68.8924 23.122H65.6427L62.1964 17.4902H62.0755L58.6293 23.122H55.3947L60.2844 15.3811L55.4552 7.64025H58.6671Z" fill="black"/>
<path d="M75.4116 23.122H70.1667V7.64025H75.5174C77.0541 7.64025 78.3741 7.95019 79.4775 8.57007C80.5859 9.1849 81.4374 10.0694 82.0319 11.2234C82.6265 12.3775 82.9237 13.7584 82.9237 15.366C82.9237 16.9787 82.6239 18.3646 82.0244 19.5237C81.4299 20.6829 80.5708 21.5723 79.4473 22.1922C78.3288 22.8121 76.9835 23.122 75.4116 23.122ZM72.9705 20.6954H75.2755C76.3537 20.6954 77.2531 20.4989 77.9736 20.1058C78.694 19.7077 79.2357 19.1155 79.5984 18.3293C79.9612 17.5381 80.1426 16.5503 80.1426 15.366C80.1426 14.1817 79.9612 13.199 79.5984 12.4178C79.2357 11.6317 78.6991 11.0445 77.9887 10.6565C77.2833 10.2634 76.4066 10.0668 75.3587 10.0668H72.9705V20.6954Z" fill="black"/>
<path d="M85.8928 23.122H82.9L88.3489 7.64025H91.8103L97.2668 23.122H94.274L90.1401 10.8152H90.0191L85.8928 23.122ZM85.991 17.0518H94.1531V19.3045H85.991V17.0518Z" fill="black"/>
<path d="M111.557 15.3811C111.557 17.0493 111.245 18.478 110.62 19.6674C110 20.8517 109.154 21.7588 108.081 22.3888C107.012 23.0187 105.801 23.3337 104.445 23.3337C103.09 23.3337 101.876 23.0187 100.803 22.3888C99.7345 21.7538 98.8881 20.8441 98.2633 19.6598C97.6436 18.4704 97.3337 17.0442 97.3337 15.3811C97.3337 13.713 97.6436 12.2868 98.2633 11.1025C98.8881 9.91313 99.7345 9.00348 100.803 8.37352C101.876 7.74357 103.09 7.42859 104.445 7.42859C105.801 7.42859 107.012 7.74357 108.081 8.37352C109.154 9.00348 110 9.91313 110.62 11.1025C111.245 12.2868 111.557 13.713 111.557 15.3811ZM108.738 15.3811C108.738 14.2069 108.554 13.2166 108.186 12.4103C107.824 11.5989 107.32 10.9866 106.675 10.5733C106.03 10.155 105.287 9.94589 104.445 9.94589C103.604 9.94589 102.861 10.155 102.216 10.5733C101.571 10.9866 101.065 11.5989 100.697 12.4103C100.334 13.2166 100.153 14.2069 100.153 15.3811C100.153 16.5554 100.334 17.5482 100.697 18.3596C101.065 19.1659 101.571 19.7782 102.216 20.1965C102.861 20.6098 103.604 20.8164 104.445 20.8164C105.287 20.8164 106.03 20.6098 106.675 20.1965C107.32 19.7782 107.824 19.1659 108.186 18.3596C108.554 17.5482 108.738 16.5554 108.738 15.3811Z" fill="black"/>
<defs>
<linearGradient id="paint0_linear_3275_3186" x1="33.0152" y1="14.9729" x2="-0.863264" y2="14.9729" gradientUnits="userSpaceOnUse">
<stop stop-color="#00FB8C"/>
<stop offset="0.0971267" stop-color="#64CCEB"/>
<stop offset="0.276683" stop-color="#64CCEB"/>
<stop offset="0.319606" stop-color="#64CCEB"/>
<stop offset="0.697546" stop-color="#0F39D9"/>
<stop offset="0.806149" stop-color="#0F39D9"/>
<stop offset="1" stop-color="#64CCEB"/>
</linearGradient>
<linearGradient id="paint1_linear_3275_3186" x1="32.5299" y1="25.6678" x2="22.329" y2="19.3781" gradientUnits="userSpaceOnUse">
<stop stop-color="#00FB8C"/>
<stop offset="0.0958371" stop-color="#64CCEB"/>
<stop offset="0.477009" stop-color="#64CCEB"/>
<stop offset="0.646695" stop-color="#64CCEB"/>
<stop offset="1" stop-color="#0F39D9"/>
</linearGradient>
</defs>
</svg>
