<svg width="180" height="70" viewBox="0 0 180 70" fill="none" xmlns="http://www.w3.org/2000/svg">
<g id="Frame 12114">
<rect width="180" height="70" fill="white"/>
<g id="Group 115">
<path id="Vector" d="M71.2752 44.2579H67.9022V27.7285H71.2752V44.2579Z" fill="#121212"/>
<path id="Vector_2" d="M83.4631 27.4033C85.3251 27.4033 86.8462 28.0608 88.0248 29.3758C89.2016 30.6907 89.7918 32.3627 89.7918 34.3898V44.2555H86.4189V34.9072C86.4189 33.6349 86.0119 32.583 85.1978 31.753C84.3839 30.9231 83.3783 30.508 82.1793 30.508C80.8295 30.508 79.7272 30.9231 78.8709 31.753C78.0145 32.583 77.5855 33.6349 77.5855 34.9072V44.2555H74.2125V27.7278H77.5855V31.9972C78.0348 30.5746 78.7793 29.4527 79.8188 28.6329C80.8567 27.8132 82.0726 27.4033 83.4648 27.4033H83.4631Z" fill="#121212"/>
<path id="Vector_3" d="M100.307 27.4033C102.941 27.4033 105.083 28.3528 106.731 30.2501C108.379 32.1492 109.054 34.4444 108.754 37.1409H95.1672C95.403 38.4782 96.0134 39.5626 96.9987 40.3925C97.984 41.2225 99.171 41.6375 100.563 41.6375C101.633 41.6375 102.591 41.3728 103.438 40.8451C104.284 40.3174 104.942 39.6001 105.413 38.6933L108.24 39.9554C107.513 41.3575 106.473 42.4777 105.125 43.3196C103.777 44.1616 102.223 44.5817 100.467 44.5817C98.0043 44.5817 95.9372 43.762 94.2668 42.1242C92.5965 40.4865 91.7604 38.4474 91.7604 36.0104C91.7604 33.5734 92.5795 31.531 94.2176 29.8796C95.8557 28.2299 97.8839 27.405 100.306 27.405L100.307 27.4033ZM100.307 30.3475C99.0642 30.3475 97.9891 30.7301 97.0784 31.4968C96.1678 32.2619 95.5624 33.2593 95.264 34.4888H105.351C105.072 33.2593 104.477 32.2619 103.568 31.4968C102.658 30.7318 101.571 30.3475 100.307 30.3475Z" fill="#121212"/>
<path id="Vector_4" d="M118.079 27.4033C120.05 27.4033 121.656 27.9208 122.897 28.9556C124.139 29.9906 124.761 31.4798 124.761 33.4198V44.2572H121.388V39.8581C120.381 43.0071 118.358 44.5817 115.317 44.5817C113.903 44.5817 112.726 44.1564 111.783 43.3043C110.84 42.4521 110.37 41.3369 110.37 39.9571C110.37 38.3398 110.937 37.1256 112.073 36.3178C113.207 35.51 114.654 35.008 116.409 34.8133L119.589 34.4888C120.788 34.3812 121.388 33.8416 121.388 32.8716C121.388 32.074 121.083 31.4371 120.472 30.964C119.862 30.4892 119.065 30.2519 118.079 30.2519C117.094 30.2519 116.221 30.5115 115.526 31.0289C114.83 31.5463 114.386 32.3012 114.193 33.2934L110.852 32.4839C111.152 30.9316 111.954 29.6968 113.262 28.7797C114.567 27.8644 116.173 27.405 118.079 27.405V27.4033ZM116.409 41.8305C117.801 41.8305 118.978 41.3608 119.941 40.4233C120.905 39.4857 121.386 38.391 121.386 37.1393V36.2341C121.13 36.6662 120.508 36.9344 119.523 37.0419L116.407 37.4296C115.593 37.5389 114.946 37.7797 114.464 38.1571C113.982 38.5345 113.742 39.0469 113.742 39.6941C113.742 40.3413 113.982 40.8588 114.464 41.2464C114.946 41.6341 115.593 41.8288 116.407 41.8288L116.409 41.8305Z" fill="#121212"/>
<path id="Vector_5" d="M65.5792 44.2579H50V27.7285H53.5646V41.0559H65.5792V44.2579Z" fill="#121212"/>
<path id="Vector_6" d="M127.941 27.4041C129.696 27.4041 131.12 25.9705 131.12 24.202C131.12 22.4336 129.696 21 127.941 21C126.185 21 124.761 22.4336 124.761 24.202C124.761 25.9705 126.185 27.4041 127.941 27.4041Z" fill="#121212"/>
</g>
</g>
</svg>
