<svg width="20" height="19" viewBox="0 0 20 19" fill="none" xmlns="http://www.w3.org/2000/svg">
<path d="M1.69033 10.4552L1.76238 10.3505L6.10644 4.06377C6.12077 4.04284 6.14096 4.02589 6.16486 4.01472C6.18876 4.00356 6.21549 3.99859 6.2422 4.00035C6.26891 4.0021 6.29461 4.01052 6.31656 4.02471C6.33851 4.0389 6.3559 4.05832 6.36688 4.08092C7.09261 5.58568 7.71951 7.45712 7.42613 8.62188C7.30055 9.10189 6.95776 9.75046 6.57173 10.3505C6.52155 10.4382 6.46693 10.5237 6.40806 10.6067C6.39444 10.6253 6.37602 10.6406 6.35447 10.6511C6.33291 10.6615 6.30888 10.6669 6.28453 10.6667H1.81694C1.79014 10.667 1.76373 10.6606 1.74055 10.6482C1.71736 10.6357 1.69825 10.6177 1.68526 10.596C1.67227 10.5743 1.66588 10.5497 1.66677 10.525C1.66766 10.5002 1.6758 10.4761 1.69033 10.4552Z" fill="#101828"/>
<path d="M20 11.8521V12.8681C19.9999 12.8964 19.9913 12.924 19.9754 12.9477C19.9594 12.9713 19.9367 12.99 19.91 13.0013C19.583 13.1374 18.465 13.6361 18 14.2652C16.813 15.8703 15.907 18.1667 13.88 18.1667H5.425C2.428 18.1667 0 15.7974 0 12.8749V12.7806C0 12.7028 0.0649998 12.6396 0.145 12.6396H4.858C4.952 12.6396 5.02 12.7242 5.012 12.8127C4.978 13.1111 5.035 13.4154 5.18 13.6925C5.46 14.2457 6.04 14.5909 6.667 14.5909H9V12.8195H6.693C6.66615 12.8189 6.63995 12.8114 6.61717 12.7975C6.59439 12.7837 6.57587 12.7642 6.56358 12.741C6.55128 12.7178 6.54567 12.6917 6.54733 12.6657C6.54899 12.6396 6.55786 12.6145 6.573 12.5929C6.598 12.555 6.627 12.5161 6.657 12.4724C6.875 12.171 7.187 11.7034 7.497 11.1696C7.708 10.8099 7.913 10.4259 8.078 10.0409C8.112 9.97085 8.138 9.89988 8.165 9.82988C8.21 9.70641 8.257 9.59169 8.29 9.47696C8.323 9.37974 8.35 9.27766 8.377 9.18141C8.455 8.85474 8.488 8.50766 8.488 8.14794C8.488 8.00697 8.482 7.85919 8.468 7.71821C8.45926 7.56373 8.44391 7.40966 8.422 7.25641C8.40651 7.11847 8.38482 6.98126 8.357 6.84516C8.32192 6.63816 8.27721 6.43281 8.223 6.22974L8.205 6.15197C8.165 6.01099 8.132 5.87585 8.085 5.73488C7.95615 5.30342 7.80835 4.87752 7.642 4.45835C7.583 4.29794 7.517 4.14433 7.45 3.98974C7.352 3.75835 7.252 3.54738 7.16 3.34808C7.11626 3.26286 7.07392 3.17697 7.033 3.09044C6.98866 2.99569 6.94266 2.9017 6.895 2.80849C6.862 2.73946 6.823 2.67433 6.797 2.60919L6.512 2.0978C6.50318 2.08231 6.49922 2.06464 6.50064 2.04698C6.50205 2.02933 6.50876 2.01246 6.51995 1.99848C6.53113 1.98451 6.54629 1.97403 6.56354 1.96835C6.58079 1.96267 6.59938 1.96205 6.617 1.96655L8.4 2.43613H8.405L8.412 2.43808L8.647 2.50127L8.905 2.57224L9 2.59849V1.56794C9 1.07016 9.41 0.666687 9.917 0.666687C10.17 0.666687 10.4 0.766826 10.565 0.931131C10.737 1.10089 10.8333 1.32967 10.833 1.56794V3.09724L11.023 3.14877C11.038 3.15363 11.053 3.16044 11.067 3.17016C11.113 3.20419 11.18 3.25474 11.265 3.31599C11.332 3.36752 11.403 3.43071 11.49 3.49585C11.662 3.63002 11.867 3.80405 12.092 4.00335C12.152 4.05294 12.21 4.10544 12.263 4.15697C12.553 4.41947 12.878 4.72766 13.188 5.06794C13.275 5.16322 13.36 5.26044 13.447 5.36252C13.533 5.46655 13.625 5.56863 13.705 5.67072C13.81 5.80683 13.923 5.9478 14.022 6.0946C14.068 6.1646 14.122 6.23558 14.167 6.30558C14.293 6.49224 14.405 6.68474 14.512 6.87724C14.557 6.96669 14.603 7.06391 14.643 7.15919C14.762 7.41683 14.855 7.67933 14.915 7.94183C14.933 7.99919 14.947 8.06044 14.953 8.11585V8.12849C14.973 8.20627 14.98 8.28891 14.987 8.37349C15.0272 8.76163 14.9776 9.15358 14.842 9.52071C14.802 9.63058 14.762 9.7453 14.71 9.85419C14.61 10.0797 14.492 10.3043 14.352 10.5153C14.307 10.5931 14.253 10.6757 14.2 10.7535C14.142 10.8361 14.082 10.9139 14.028 10.9897C13.955 11.087 13.877 11.189 13.797 11.2804C13.7274 11.3762 13.6523 11.4681 13.572 11.5556C13.46 11.6839 13.353 11.8054 13.242 11.9221C13.1749 11.9997 13.1041 12.0743 13.03 12.1457C12.958 12.2235 12.885 12.2925 12.818 12.3577C12.7258 12.4473 12.6314 12.5348 12.535 12.6202L12.352 12.7835C12.3246 12.8068 12.2894 12.8195 12.253 12.8195H10.833V14.5909H12.62C13.02 14.5909 13.4 14.4528 13.707 14.2C13.812 14.1106 14.27 13.7256 14.812 13.1432C14.8302 13.1237 14.8538 13.1099 14.88 13.1034L19.815 11.716C19.8366 11.7102 19.8593 11.7093 19.8814 11.7134C19.9034 11.7174 19.9242 11.7264 19.9421 11.7396C19.96 11.7528 19.9745 11.7698 19.9846 11.7893C19.9946 11.8088 19.9999 11.8303 20 11.8521Z" fill="#101828"/>
</svg>
