<?xml version="1.0" standalone="no"?>
<!DOCTYPE svg PUBLIC "-//W3C//DTD SVG 20010904//EN"
 "http://www.w3.org/TR/2001/REC-SVG-20010904/DTD/svg10.dtd">
<svg version="1.0" xmlns="http://www.w3.org/2000/svg"
 width="512.000000pt" height="512.000000pt" viewBox="0 0 512.000000 512.000000"
 preserveAspectRatio="xMidYMid meet">

<g transform="translate(0.000000,512.000000) scale(0.100000,-0.100000)"
fill="#000000" stroke="none">
<path d="M2335 5110 c-151 -15 -333 -50 -478 -92 -992 -283 -1709 -1132 -1838
-2173 -6 -55 -12 -190 -12 -300 1 -337 58 -635 178 -935 324 -808 1021 -1388
1870 -1558 183 -37 287 -46 505 -46 269 0 454 24 692 90 686 190 1270 670
1589 1305 186 372 271 733 271 1154 1 530 -137 989 -428 1425 -400 601 -1033
1003 -1747 1111 -152 23 -464 33 -602 19z m541 -275 c1037 -144 1850 -974
1974 -2014 14 -120 14 -413 0 -528 -65 -529 -283 -977 -660 -1354 -355 -356
-767 -567 -1275 -656 -141 -24 -547 -25 -694 0 -334 55 -646 176 -916 355
-542 360 -891 891 -1007 1532 -20 110 -23 158 -23 390 0 233 3 279 23 385 62
328 170 601 340 860 401 612 1036 987 1777 1049 91 7 349 -3 461 -19z"/>
<path d="M1964 3721 c-62 -16 -125 -54 -164 -99 -74 -87 -70 -27 -70 -1076 l0
-941 24 -51 c46 -100 135 -163 241 -172 50 -4 73 0 126 22 84 33 1560 884
1617 932 96 80 124 213 69 325 -44 91 -111 146 -347 282 -860 498 -1293 746
-1328 760 -50 20 -127 28 -168 18z m465 -468 c941 -541 1143 -659 1152 -675 7
-12 3 -24 -13 -42 -13 -14 -189 -121 -393 -239 -203 -117 -540 -311 -747 -431
-290 -167 -383 -217 -405 -214 l-28 3 -3 897 c-2 818 -1 898 14 913 9 9 24 13
32 10 8 -3 185 -103 391 -222z"/>
</g>
</svg>
