<svg width="32" height="30" viewBox="0 0 32 30" fill="none" xmlns="http://www.w3.org/2000/svg">
<path d="M6.04634 0.327723C4.49016 0.641409 3.09832 1.54788 2.20981 2.7498C1.31102 3.94658 0.828247 5.34438 0.571965 6.75107C0.319791 8.1629 0.340337 9.59342 0.417376 11.0006C0.581212 13.8383 1.21344 16.6385 2.29147 19.3032C2.83639 20.6356 3.48352 21.9264 4.25391 23.1647C5.03457 24.3994 5.94876 25.5583 6.9554 26.6434C7.97744 27.7088 9.0714 28.7747 10.5403 29.4338C10.9101 29.6021 11.3158 29.705 11.7369 29.7615C12.1786 29.8036 12.6049 29.7382 12.9952 29.6302C13.781 29.4109 14.4744 29.0369 15.1266 28.6297C16.0306 28.0599 16.8626 27.4007 17.6432 26.7135C17.9771 26.4091 18.3109 26.1053 18.6345 25.7972C18.691 25.7458 18.7423 25.6892 18.804 25.6336C19.8106 24.6565 20.7505 23.6182 21.6544 22.5664C23.5598 20.3271 25.3112 17.9943 26.893 15.5633C28.4698 13.1328 29.9694 10.6504 31.0942 7.9946C31.6694 6.68095 31.9827 5.15692 31.5924 3.70816C31.4024 2.98775 31.0172 2.28231 30.37 1.77227C29.7281 1.26317 28.8395 1.04299 28.0127 1.08974C27.1755 1.13181 26.4257 1.40343 25.7066 1.6886C24.9825 1.99247 24.2891 2.35664 23.6625 2.79187C22.394 3.64692 21.3154 4.72262 20.4161 5.88154C18.6139 8.22368 17.3916 10.8603 16.4358 13.5437C15.5118 16.2225 14.6131 18.9858 14.7255 21.8698C14.762 22.585 14.8544 23.2956 15.0958 23.9927C15.178 24.226 15.2859 24.4602 15.4091 24.6794C14.7255 25.2923 14.0276 25.858 13.3496 26.2969C12.8617 26.6059 11.9732 26.9842 11.9732 26.9842C11.9732 26.9842 11.8807 26.9659 11.8242 26.9332C11.511 26.835 11.0282 26.5307 10.5659 26.1712C10.1032 25.8154 9.63121 25.3853 9.17463 24.9178C8.72164 24.4602 8.23938 23.9361 7.84905 23.4457C7.43304 22.959 7.05812 22.4266 6.68833 21.8936C5.97444 20.8039 5.32217 19.659 4.77263 18.4618C3.67406 16.0733 2.96993 13.5021 2.69259 10.8837C2.59501 10.2344 2.5647 9.56117 2.5231 8.92024C2.49742 8.28913 2.51848 7.65847 2.5796 7.04138C2.71827 5.81188 3.05724 4.62398 3.67868 3.66608C4.29499 2.70772 5.19429 1.98311 6.39558 1.6367C7.59225 1.27252 8.83514 1.37024 10.0472 1.91253C11.2495 2.45529 12.3271 3.4043 13.2418 4.46551C14.1714 5.53092 14.988 6.73284 15.63 7.9946L15.6356 8.0133C15.6711 8.07922 15.7635 8.11662 15.8405 8.09324C15.9278 8.06005 15.9689 7.9759 15.9381 7.90157C15.4297 6.55472 14.7414 5.27426 13.8992 4.07701C13.0415 2.89893 11.9989 1.78209 10.6481 1.02007C9.97532 0.636728 9.21571 0.360451 8.42941 0.243576C8.12125 0.19449 7.81002 0.171587 7.49878 0.171587C7.01087 0.171587 6.52295 0.227678 6.04634 0.327723ZM16.6571 22.6884C16.631 22.3985 16.6212 22.0993 16.6309 21.795C16.6571 20.5753 16.9191 19.3033 17.294 18.041C17.484 17.4006 17.6997 16.7788 17.9514 16.1336C18.1923 15.4937 18.4085 14.8434 18.6858 14.2169L19.0705 13.2726L19.5024 12.3516C19.7695 11.7299 20.1136 11.1502 20.4161 10.5565C21.0843 9.40176 21.8136 8.29893 22.6354 7.33122C23.3446 6.49582 24.1438 5.71605 25.0693 5.07605C25.7852 4.58051 27.1899 3.49405 28.1631 3.92321C28.8406 4.22194 28.8031 4.95637 28.6485 5.52484C28.5987 5.70716 28.5417 5.88106 28.4954 6.03346C28.0132 7.61967 27.1827 9.08807 26.3332 10.5336C25.6394 11.7158 24.8998 12.8897 24.1196 14.0491C22.5532 16.3534 20.8943 18.6254 19.1121 20.7712C18.3571 21.6739 17.5816 22.5528 16.765 23.3751C16.7188 23.1741 16.6777 22.9361 16.6571 22.6884Z" fill="url(#paint0_linear_3575_170)"/>
<defs>
<linearGradient id="paint0_linear_3575_170" x1="33.0152" y1="14.9729" x2="-0.863264" y2="14.9729" gradientUnits="userSpaceOnUse">
<stop stop-color="#00FB8C"/>
<stop offset="0.0971267" stop-color="#64CCEB"/>
<stop offset="0.276683" stop-color="#64CCEB"/>
<stop offset="0.319606" stop-color="#64CCEB"/>
<stop offset="0.697546" stop-color="#0F39D9"/>
<stop offset="0.806149" stop-color="#0F39D9"/>
<stop offset="1" stop-color="#64CCEB"/>
</linearGradient>
</defs>
</svg>
