<svg width="14" height="15" viewBox="0 0 14 15" fill="none" xmlns="http://www.w3.org/2000/svg">
<path d="M5.66634 6.83337H0.999674C0.599674 6.83337 0.333008 6.56671 0.333008 6.16671V1.50004C0.333008 1.10004 0.599674 0.833374 0.999674 0.833374H5.66634C6.06634 0.833374 6.33301 1.10004 6.33301 1.50004V6.16671C6.33301 6.56671 6.06634 6.83337 5.66634 6.83337ZM1.66634 5.50004H4.99967V2.16671H1.66634V5.50004ZM12.9997 6.83337H8.33301C7.93301 6.83337 7.66634 6.56671 7.66634 6.16671V1.50004C7.66634 1.10004 7.93301 0.833374 8.33301 0.833374H12.9997C13.3997 0.833374 13.6663 1.10004 13.6663 1.50004V6.16671C13.6663 6.56671 13.3997 6.83337 12.9997 6.83337ZM8.99967 5.50004H12.333V2.16671H8.99967V5.50004ZM5.66634 14.1667H0.999674C0.599674 14.1667 0.333008 13.9 0.333008 13.5V8.83337C0.333008 8.43337 0.599674 8.16671 0.999674 8.16671H5.66634C6.06634 8.16671 6.33301 8.43337 6.33301 8.83337V13.5C6.33301 13.9 6.06634 14.1667 5.66634 14.1667ZM1.66634 12.8334H4.99967V9.50004H1.66634V12.8334ZM12.9997 11.8334H10.6663C10.2663 11.8334 9.99967 11.5667 9.99967 11.1667V9.50004H8.99967V11.1667C8.99967 11.5667 8.73301 11.8334 8.33301 11.8334C7.93301 11.8334 7.66634 11.5667 7.66634 11.1667V8.83337C7.66634 8.43337 7.93301 8.16671 8.33301 8.16671H10.6663C11.0663 8.16671 11.333 8.43337 11.333 8.83337V10.5H12.333V8.83337C12.333 8.43337 12.5997 8.16671 12.9997 8.16671C13.3997 8.16671 13.6663 8.43337 13.6663 8.83337V11.1667C13.6663 11.5667 13.3997 11.8334 12.9997 11.8334ZM10.6663 14.1667H8.33301C7.93301 14.1667 7.66634 13.9 7.66634 13.5C7.66634 13.1 7.93301 12.8334 8.33301 12.8334H10.6663C11.0663 12.8334 11.333 13.1 11.333 13.5C11.333 13.9 11.0663 14.1667 10.6663 14.1667Z" fill="#929F9E"/>
</svg>
