<svg width="60" height="56" viewBox="0 0 60 56" fill="none" xmlns="http://www.w3.org/2000/svg">
<path d="M53.6316 21C53.6316 20.0717 53.2434 19.1815 52.5525 18.5251C51.8616 17.8687 50.9245 17.5 49.9473 17.5H42.5789V10.5C42.5789 9.57174 42.1908 8.6815 41.4998 8.02513C40.8089 7.36875 39.8718 7 38.8947 7H9.42103C8.44392 7 7.50683 7.36875 6.8159 8.02513C6.12498 8.6815 5.73682 9.57174 5.73682 10.5V38.5C5.73584 38.8314 5.83517 39.156 6.02296 39.4353C6.21076 39.7145 6.47911 39.9366 6.79603 40.075C7.10643 40.2191 7.454 40.2752 7.79707 40.2364C8.14013 40.1976 8.46414 40.0656 8.73024 39.8563L16.7895 33.6656V40.25C16.7895 41.1783 17.1776 42.0685 17.8685 42.7249C18.5595 43.3812 19.4966 43.75 20.4737 43.75H42.0263L50.6381 50.3563C50.9042 50.5656 51.2282 50.6976 51.5713 50.7364C51.9144 50.7752 52.262 50.7191 52.5723 50.575C52.8893 50.4366 53.1576 50.2145 53.3454 49.9353C53.5332 49.656 53.6325 49.3314 53.6316 49V21ZM43.8223 40.6437C43.4999 40.3869 43.0918 40.2473 42.671 40.25H20.4737V33.25H38.8947C39.8718 33.25 40.8089 32.8813 41.4998 32.2249C42.1908 31.5685 42.5789 30.6783 42.5789 29.75V21H49.9473V45.325L43.8223 40.6437Z" fill="#101828"/>
</svg>
