<svg width="57" height="56" viewBox="0 0 57 56" fill="none" xmlns="http://www.w3.org/2000/svg">
<path d="M26.7756 34.5408C29.1235 32.981 30.9069 30.7068 31.8619 28.0547C32.8169 25.4026 32.8927 22.5136 32.078 19.8151C31.2634 17.1165 29.6017 14.752 27.3387 13.0713C25.0758 11.3906 22.3319 10.4832 19.5131 10.4832C16.6943 10.4832 13.9504 11.3906 11.6874 13.0713C9.4245 14.752 7.76276 17.1165 6.94813 19.8151C6.13351 22.5136 6.20929 25.4026 7.16426 28.0547C8.11923 30.7068 9.90265 32.981 12.2506 34.5408C8.24521 36.0136 4.78701 38.6779 2.34121 42.1751C2.15017 42.4345 2.03646 42.7427 2.01323 43.064C1.99 43.3853 2.05821 43.7066 2.20996 43.9908C2.35992 44.2731 2.58345 44.5095 2.85688 44.6751C3.1303 44.8407 3.44343 44.9293 3.76308 44.9314H35.2631C35.5827 44.9293 35.8959 44.8407 36.1693 44.6751C36.4427 44.5095 36.6663 44.2731 36.8162 43.9908C36.968 43.7066 37.0362 43.3853 37.0129 43.064C36.9897 42.7427 36.876 42.4345 36.685 42.1751C34.2392 38.6779 30.781 36.0136 26.7756 34.5408Z" fill="#101828"/>
<path d="M54.5351 42.1751C52.0754 38.6821 48.6118 36.0196 44.6038 34.5407C46.9592 32.9869 48.7501 30.7143 49.71 28.0609C50.67 25.4075 50.7477 22.515 49.9317 19.8139C49.1157 17.1127 47.4496 14.7472 45.1811 13.069C42.9126 11.3909 40.163 10.4899 37.3413 10.5001C36.137 10.5065 34.9386 10.6682 33.7757 10.9813C33.5025 11.0634 33.2529 11.2094 33.0475 11.4072C32.842 11.605 32.6867 11.849 32.5944 12.1188C32.5064 12.3865 32.4843 12.6714 32.53 12.9494C32.5757 13.2275 32.6879 13.4903 32.8569 13.7157C34.8353 16.3739 35.9719 19.5639 36.1201 22.8742C36.2683 26.1845 35.4212 29.4633 33.6882 32.2876C33.466 32.6629 33.3899 33.1069 33.4747 33.5348C33.5595 33.9626 33.799 34.3441 34.1476 34.6063C34.8038 35.1168 35.4382 35.6418 36.0507 36.1813L36.1601 36.2907C38.495 38.4514 40.3893 41.0439 41.7382 43.9251C41.8766 44.2262 42.0987 44.4811 42.3779 44.6595C42.6572 44.8379 42.9818 44.9323 43.3132 44.9313H53.0913C53.411 44.9292 53.7241 44.8407 53.9975 44.6751C54.2709 44.5095 54.4945 44.273 54.6444 43.9907C54.7944 43.7071 54.8635 43.3878 54.8442 43.0676C54.8249 42.7474 54.7179 42.4386 54.5351 42.1751Z" fill="#101828"/>
</svg>
