<svg width="24" height="24" viewBox="0 0 24 24" fill="none" xmlns="http://www.w3.org/2000/svg">
<g clip-path="url(#clip0_413_1629)">
<path d="M8.36432 0.66147C7.65378 0.706824 6.47459 1.08477 5.79429 1.48287C5.43146 1.69453 4.76123 2.1783 4.76123 2.23373C4.76123 2.24885 4.88217 2.37987 5.02831 2.52601L5.30043 2.79309L5.69854 2.51089C6.42924 1.98176 7.47741 1.5635 8.22826 1.49295C8.40464 1.47784 8.56086 1.43752 8.57094 1.40225C8.58605 1.36697 8.59109 1.18556 8.58101 0.994063L8.5659 0.646352L8.36432 0.66147Z" fill="#396AFF"/>
<path d="M9.40721 1.04446L9.42233 1.45264L9.74988 1.48791C10.541 1.57862 11.5791 1.99184 12.2897 2.50585L12.6878 2.79309L12.9599 2.52601C13.106 2.37987 13.227 2.24885 13.227 2.22869C13.227 2.1783 12.4761 1.63909 12.1435 1.45264C11.4431 1.05957 10.5108 0.757217 9.7398 0.676588L9.39209 0.641313L9.40721 1.04446Z" fill="#396AFF"/>
<path d="M8.15273 2.30941C7.13983 2.49082 6.31339 2.93428 5.56758 3.69018C4.91751 4.34528 4.49925 5.0911 4.27248 5.99313C4.13642 6.53234 4.15153 7.67626 4.29767 8.20538C4.44381 8.71939 4.61011 9.13765 4.67058 9.13765C4.69578 9.13765 4.91247 9.08222 5.15435 9.01167C5.66332 8.86553 6.39906 8.73451 6.69638 8.73451C6.97354 8.73451 7.01889 8.69419 6.98866 8.46742L6.9685 8.28097H6.57039H6.17229V7.87783V7.47468H6.57543H6.97858V7.07154V6.6684H6.57543H6.17229V6.26525V5.86211H6.57039H6.9685L7.00377 5.58495C7.04913 5.207 7.33133 4.66276 7.61353 4.40072C7.73951 4.28481 7.99147 4.11852 8.17793 4.03285C8.48533 3.88671 8.56091 3.87159 8.99429 3.87159C9.42767 3.87159 9.50326 3.88671 9.81066 4.03285C10.2743 4.24954 10.5716 4.54182 10.7883 4.98527C10.9445 5.30275 10.9747 5.41361 10.9999 5.80668L11.0251 6.26525H10.6119H10.2037V5.98305C10.2037 5.57487 10.113 5.33298 9.86609 5.05582C9.53854 4.693 9.10516 4.57205 8.62139 4.71315C8.34422 4.79378 7.92596 5.21204 7.84534 5.4892C7.73447 5.86211 7.73447 5.86211 8.18801 5.86211H8.59115V6.26525V6.6684H8.18801H7.78486V7.07154V7.47468H8.18801H8.59115V7.87783V8.28097H8.18297H7.77479L7.81006 8.46742C7.85541 8.72947 7.86549 8.73451 8.10234 8.73451C8.36942 8.73451 9.06988 8.85545 9.52342 8.98143C9.71491 9.03686 9.89129 9.0671 9.91648 9.05198C10.0425 8.97639 10.2037 8.49262 10.2037 8.19026V7.87783H10.6119H11.0251L10.9999 8.32128C10.9798 8.66396 10.9395 8.84033 10.8286 9.08726C10.7278 9.31403 10.7026 9.41481 10.748 9.42993C11.0201 9.52064 12.1086 10.1858 12.3555 10.4126C12.4916 10.5335 12.4764 10.5436 12.5974 10.2211C12.7435 9.81292 13.0207 9.28883 13.2979 8.89073C13.6657 8.3616 13.6808 8.32129 13.7665 7.81232C13.9076 6.9506 13.7867 5.99313 13.4339 5.16165C12.9401 4.00261 11.8465 2.96452 10.6724 2.53618C9.87113 2.24894 8.94894 2.16327 8.15273 2.30941Z" fill="#396AFF"/>
<path d="M3.83891 3.22155C3.1586 4.12862 2.71514 5.23726 2.59924 6.32575L2.56396 6.67346L2.96711 6.65834L3.37529 6.64323L3.41057 6.31567C3.50127 5.5245 3.9145 4.48641 4.4285 3.77587L4.71574 3.37776L4.44866 3.10564C4.30252 2.9595 4.1715 2.83856 4.15134 2.83856C4.13622 2.83856 3.99512 3.0099 3.83891 3.22155Z" fill="#396AFF"/>
<path d="M13.5391 3.10577L13.272 3.37789L13.5542 3.77599C14.2345 4.71834 14.5671 5.68085 14.6225 6.87516L14.6527 7.45972L15.0508 7.20271L15.454 6.94571L15.4187 6.56776C15.3431 5.71612 15.1315 4.97535 14.7384 4.1741C14.5167 3.7256 13.9472 2.88404 13.8414 2.84876C13.8213 2.84372 13.6852 2.95963 13.5391 3.10577Z" fill="#396AFF"/>
<path d="M17.4854 7.12196C16.8051 7.22778 15.8678 7.60069 15.2983 7.99376C14.9506 8.2306 14.2502 8.92099 14.0083 9.26366C12.8795 10.851 12.7182 12.9121 13.59 14.6507C13.8571 15.1899 14.0335 15.4368 14.4769 15.9004C16.1097 17.6087 18.5336 18.032 20.6349 16.9788C21.1489 16.7218 21.411 16.5303 21.8595 16.0969C22.7313 15.2554 23.2453 14.2878 23.4317 13.1439C23.8702 10.468 22.1669 7.90305 19.5011 7.2177C19.0375 7.1018 17.9641 7.05141 17.4854 7.12196ZM19.2239 8.3969C20.2772 8.68414 21.0784 9.25862 21.6428 10.1304C22.0913 10.8158 22.2727 11.4356 22.2727 12.3124C22.2727 13.4463 21.8897 14.3836 21.1137 15.1596C20.3376 15.9357 19.4003 16.3187 18.2665 16.3187C17.3896 16.3187 16.7698 16.1373 16.0845 15.6888C14.9909 14.9782 14.3358 13.8494 14.2502 12.5342C14.1191 10.5184 15.5301 8.73957 17.5862 8.33643C17.9238 8.27092 18.8813 8.30619 19.2239 8.3969Z" fill="#396AFF"/>
<path d="M17.8637 9.89354V10.2967H17.259H16.6543V12.3124V14.3281H17.259H17.8637V14.7313V15.1344H18.2669H18.67V14.7313C18.67 14.3936 18.6851 14.3281 18.7506 14.3281C19.1387 14.3281 19.7031 13.8847 19.819 13.4916C19.9298 13.1136 19.8794 12.7559 19.6678 12.4485C19.572 12.3124 19.572 12.3124 19.6678 12.1713C19.9903 11.7077 19.9399 11.1433 19.5418 10.6998C19.3302 10.468 19.0026 10.2967 18.7607 10.2967C18.6801 10.2967 18.67 10.2513 18.67 9.89354V9.49039H18.2669H17.8637V9.89354ZM18.9472 11.2289C19.0278 11.3045 19.0732 11.4104 19.0732 11.5061C19.0732 11.6019 19.0278 11.7077 18.9472 11.7833C18.8313 11.9042 18.801 11.9093 18.1409 11.9093H17.4606V11.5061V11.103H18.1409C18.801 11.103 18.8313 11.108 18.9472 11.2289ZM18.9472 12.8415C19.0278 12.9171 19.0732 13.0229 19.0732 13.1187C19.0732 13.2144 19.0278 13.3203 18.9472 13.3958C18.8313 13.5168 18.801 13.5218 18.1409 13.5218H17.4606V13.1187V12.7155H18.1409C18.801 12.7155 18.8313 12.7206 18.9472 12.8415Z" fill="#396AFF"/>
<path d="M2.57418 7.68644C2.64473 8.21053 2.7052 8.52801 2.77575 8.78501C2.8967 9.20831 3.14866 9.84326 3.19905 9.84326C3.22425 9.84326 3.39055 9.76263 3.57196 9.66689L3.89448 9.48547L3.77353 9.21335C3.63747 8.89587 3.47621 8.30628 3.42582 7.94849C3.36031 7.43952 3.39559 7.47479 2.94709 7.47479H2.54395L2.57418 7.68644Z" fill="#396AFF"/>
<path d="M6.47414 9.54593C5.0581 9.72735 3.62694 10.3825 2.54349 11.355C2.43263 11.4508 2.40743 11.4911 2.47798 11.4558C2.53846 11.4306 2.69467 11.4054 2.83073 11.4054C3.28427 11.4054 3.60175 11.7229 3.60175 12.1764C3.60175 12.3125 3.57655 12.4687 3.54127 12.5292C3.49592 12.6249 3.49592 12.63 3.55639 12.5846C4.14095 12.121 4.47354 11.9043 4.93716 11.6826C5.56707 11.3752 6.04076 11.2341 6.72107 11.1484C7.15949 11.093 7.17964 11.0829 7.04358 11.0275C6.84705 10.9418 6.6354 10.6848 6.59509 10.4732C6.52454 10.0952 6.72107 9.70719 7.05366 9.56105L7.20484 9.49554L7.00327 9.50058C6.8924 9.50058 6.65556 9.52074 6.47414 9.54593Z" fill="#396AFF"/>
<path d="M7.70918 9.55589C8.04681 9.71211 8.2383 10.0951 8.16775 10.473C8.12744 10.6847 7.91579 10.9417 7.71925 11.0274C7.58319 11.0828 7.60335 11.0929 8.04177 11.1483C8.72207 11.234 9.19577 11.3751 9.82568 11.6825C10.3145 11.9193 10.5362 12.0655 11.1309 12.519C11.272 12.6299 11.272 12.6299 11.2165 12.524C11.1258 12.3527 11.151 11.9546 11.2619 11.7681C11.4231 11.5061 11.6398 11.4003 11.9825 11.4154C12.1387 11.4255 12.2697 11.4204 12.2697 11.4053C12.2697 11.3902 12.1337 11.2692 11.9674 11.1382C10.7983 10.1908 9.40238 9.62644 7.96114 9.51558C7.58823 9.49038 7.56807 9.49038 7.70918 9.55589Z" fill="#396AFF"/>
<path d="M1.78261 12.146C0.820101 13.3454 0.260739 14.7161 0.149875 16.1674C0.124679 16.5403 0.124679 16.5605 0.190189 16.4194C0.346407 16.0817 0.729394 15.8902 1.10734 15.9608C1.31899 16.0011 1.57599 16.2128 1.66166 16.4093C1.7171 16.5453 1.72717 16.5252 1.78261 16.0868C1.86827 15.4065 2.00937 14.9328 2.31677 14.3029C2.55362 13.8141 2.69976 13.5923 3.15329 12.9977C3.26416 12.8566 3.26416 12.8566 3.15833 12.912C3.1029 12.9423 2.94668 12.9674 2.81062 12.9674C2.35708 12.9674 2.03961 12.65 2.03961 12.1964C2.03961 12.0604 2.06481 11.9092 2.09 11.8538C2.19079 11.6724 2.09504 11.758 1.78261 12.146Z" fill="#396AFF"/>
<path d="M6.53981 11.9849C5.52691 12.1663 4.70047 12.6098 3.95465 13.3656C3.30458 14.0208 2.88632 14.7666 2.65955 15.6686C2.53861 16.1473 2.53861 17.3467 2.65955 17.8254C2.88632 18.7275 3.30458 19.4733 3.95465 20.1284C4.84661 21.0355 5.89478 21.5041 7.1546 21.5696C8.55049 21.6402 9.77 21.1614 10.7829 20.1485C11.4733 19.4582 11.8714 18.7577 12.1032 17.8254C12.2241 17.3467 12.2241 16.1473 12.1032 15.6686C11.9772 15.1697 11.7404 14.6104 11.4733 14.177C11.1608 13.663 10.4352 12.9524 9.90606 12.6249C8.91836 12.0202 7.66357 11.7783 6.53981 11.9849ZM9.93125 14.5045C10.4402 15.1798 10.6569 15.5124 10.6368 15.5678C10.6166 15.6132 10.0673 16.5505 9.40717 17.644C8.34388 19.4178 8.18766 19.6496 7.99617 19.7756C7.59806 20.0276 7.1546 20.0276 6.76154 19.7655C6.57005 19.6396 6.39871 19.3876 5.35054 17.639C4.69543 16.5454 4.14615 15.6132 4.12599 15.5678C4.10583 15.5124 4.32252 15.1798 4.83149 14.5045L5.56723 13.5219H7.38137H9.19552L9.93125 14.5045Z" fill="#396AFF"/>
<path d="M7.06943 14.6405L7.38186 14.958L7.6943 14.6405L8.01178 14.3281H7.38186H6.75195L7.06943 14.6405Z" fill="#396AFF"/>
<path d="M5.57249 14.8572L5.36084 15.1344H5.87989H6.39389L6.12177 14.8572C5.97059 14.7061 5.83453 14.5801 5.81438 14.5801C5.79422 14.5801 5.68839 14.7061 5.57249 14.8572Z" fill="#396AFF"/>
<path d="M8.64126 14.8572L8.36914 15.1344H8.88315H9.4022L9.19055 14.8572C9.07464 14.7061 8.96882 14.5801 8.94866 14.5801C8.9285 14.5801 8.79244 14.7061 8.64126 14.8572Z" fill="#396AFF"/>
<path d="M6.06672 17.266C6.5001 17.9916 6.88812 18.6316 6.91836 18.687C6.96371 18.7626 6.97379 18.4653 6.97883 17.3617V15.9406H6.12215H5.27051L6.06672 17.266Z" fill="#396AFF"/>
<path d="M7.78467 17.3617C7.78971 18.4653 7.79979 18.7626 7.84514 18.687C7.87538 18.6316 8.2634 17.9916 8.69678 17.266L9.49299 15.9406H8.64135H7.78467V17.3617Z" fill="#396AFF"/>
<path d="M11.6097 12.9979C12.0632 13.5875 12.2093 13.8143 12.4462 14.3031C12.7435 14.9078 12.8947 15.4117 12.9804 16.1072C13.0358 16.5305 13.0459 16.5506 13.1013 16.4095C13.1366 16.3289 13.2374 16.2029 13.323 16.1374L13.4843 16.0114L13.2474 15.6637C12.7838 14.9683 12.4462 14.1317 12.3152 13.3557L12.2497 12.9677H11.9775C11.8314 12.9677 11.6601 12.9425 11.6046 12.9122C11.4988 12.8568 11.4988 12.8568 11.6097 12.9979Z" fill="#396AFF"/>
<path d="M0.125 17.0493C0.125 17.2962 0.230825 18.037 0.33665 18.4603C0.603733 19.574 1.20341 20.7078 1.98954 21.5847C2.08528 21.6955 2.1256 21.7207 2.09032 21.6502C2.06513 21.5897 2.03993 21.4335 2.03993 21.2974C2.03993 20.8439 2.35741 20.5264 2.81094 20.5264C2.947 20.5264 3.10322 20.5516 3.15865 20.5819C3.26448 20.6373 3.26448 20.6373 3.15361 20.4962C2.70008 19.9016 2.55394 19.6798 2.31709 19.191C2.0097 18.5611 1.8686 18.0874 1.78293 17.4071C1.72749 16.9687 1.71742 16.9485 1.66198 17.0846C1.57632 17.2811 1.31931 17.4928 1.10766 17.5331C0.729715 17.6036 0.34169 17.4071 0.19555 17.0745C0.130039 16.9284 0.130039 16.9284 0.125 17.0493Z" fill="#396AFF"/>
<path d="M12.98 17.387C12.8288 18.5813 12.4458 19.4279 11.5438 20.5718C11.4984 20.6323 11.5035 20.6323 11.5992 20.5869C11.6597 20.5516 11.8159 20.5264 11.952 20.5264C12.4055 20.5264 12.723 20.8439 12.723 21.2974C12.723 21.4335 12.6978 21.5897 12.6726 21.6502C12.5718 21.8618 13.1362 21.2067 13.4033 20.8036C14.0735 19.7907 14.4666 18.6669 14.6026 17.3668C14.6178 17.2509 14.6178 17.1451 14.6026 17.13C14.5875 17.1199 14.4968 17.1955 14.391 17.3013C14.008 17.7044 13.3126 17.5885 13.1009 17.0846C13.0455 16.9485 13.0354 16.9637 12.98 17.387Z" fill="#396AFF"/>
<path d="M3.54115 20.9648C3.6369 21.1412 3.61674 21.5393 3.50084 21.7258C3.35973 21.9576 3.11785 22.0886 2.83061 22.0886C2.69455 22.0886 2.53833 22.0634 2.47786 22.0382C2.32668 21.9626 2.62904 22.2297 3.0725 22.5673C4.07028 23.3182 5.3049 23.812 6.54961 23.9531C7.15936 24.0186 7.24503 24.0186 7.05354 23.933C6.72094 23.7868 6.52441 23.3988 6.59496 23.0209C6.63528 22.8092 6.84693 22.5522 7.04346 22.4665C7.17952 22.4111 7.1644 22.401 6.7411 22.3456C5.54679 22.1944 4.70019 21.8114 3.55627 20.9094C3.4958 20.864 3.4958 20.8691 3.54115 20.9648Z" fill="#396AFF"/>
<path d="M11.0301 21.0456C10.2087 21.746 9.15041 22.2046 8.02161 22.3457C7.59831 22.4011 7.58319 22.4112 7.71925 22.4666C7.91579 22.5523 8.12744 22.8093 8.16775 23.021C8.2383 23.3989 8.04681 23.7819 7.70918 23.9381C7.56807 24.0036 7.58823 24.0036 7.96114 23.9784C9.17561 23.8827 10.4052 23.4594 11.4383 22.769C11.8414 22.5019 12.4915 21.9375 12.2849 22.0383C12.2244 22.0635 12.0682 22.0887 11.9321 22.0887C11.4786 22.0887 11.1611 21.7712 11.1611 21.3177C11.1611 21.1816 11.1863 21.0304 11.2115 20.975C11.2871 20.844 11.2619 20.8541 11.0301 21.0456Z" fill="#396AFF"/>
</g>
<defs>
<clipPath id="clip0_413_1629">
<rect width="24" height="24" fill="white"/>
</clipPath>
</defs>
</svg>
