<svg width="23" height="19" viewBox="0 0 23 19" fill="none" xmlns="http://www.w3.org/2000/svg">
    <path
        d="M22.2964 3.02393C21.4584 3.38747 20.5722 3.62779 19.6654 3.73742C20.6221 3.16587 21.3391 2.26673 21.6832 1.20678C20.7842 1.74196 19.8 2.11903 18.7736 2.3216C18.0874 1.57753 17.1738 1.08225 16.1758 0.913414C15.1779 0.74458 14.1521 0.911749 13.2594 1.3887C12.3667 1.86566 11.6576 2.62542 11.2432 3.54883C10.8289 4.47224 10.7327 5.50707 10.9698 6.49102C9.15203 6.39908 7.37391 5.92576 5.75097 5.1018C4.12803 4.27785 2.69658 3.1217 1.5496 1.70845C1.1473 2.41097 0.935913 3.20657 0.936449 4.01612C0.935022 4.76794 1.11952 5.50844 1.47352 6.1717C1.82752 6.83496 2.34003 7.40039 2.96542 7.81766C2.23853 7.79788 1.52718 7.60283 0.891856 7.2491V7.30484C0.897304 8.35823 1.26643 9.3774 1.93679 10.19C2.60716 11.0025 3.53761 11.5586 4.57076 11.7641C4.17306 11.8852 3.76015 11.949 3.34446 11.9536C3.05671 11.9503 2.76968 11.9242 2.48605 11.8756C2.78026 12.7817 3.34961 13.5736 4.11488 14.1411C4.88015 14.7086 5.80328 15.0234 6.75581 15.0417C5.14735 16.3073 3.1615 16.998 1.11482 17.0038C0.742175 17.005 0.369825 16.9827 0 16.9369C2.08965 18.2861 4.52484 19.0023 7.01222 18.9993C8.72869 19.0171 10.4315 18.6927 12.0212 18.0451C13.6109 17.3975 15.0557 16.4395 16.271 15.2273C17.4864 14.0151 18.448 12.5728 19.0997 10.9848C19.7514 9.39671 20.0802 7.69473 20.0668 5.97821C20.0668 5.78869 20.0668 5.58802 20.0668 5.38735C20.9415 4.73497 21.696 3.93522 22.2964 3.02393Z"
        fill="#929F9E" />
</svg>