<svg width="16" height="14" viewBox="0 0 16 14" fill="none" xmlns="http://www.w3.org/2000/svg">
<path d="M15.5 2.35004C14.9363 2.59461 14.3401 2.75628 13.73 2.83004C14.3736 2.44553 14.856 1.84062 15.0875 1.12754C14.4827 1.48758 13.8206 1.74126 13.13 1.87754C12.6684 1.37696 12.0537 1.04376 11.3824 0.930174C10.711 0.81659 10.0209 0.929054 9.42034 1.24993C8.81978 1.5708 8.3427 2.08193 8.06393 2.70316C7.78516 3.32439 7.72047 4.02058 7.88 4.68253C6.65707 4.62068 5.46083 4.30225 4.36899 3.74793C3.27715 3.19361 2.31413 2.4158 1.5425 1.46504C1.27185 1.93766 1.12964 2.4729 1.13 3.01754C1.12904 3.52332 1.25316 4.0215 1.49132 4.46771C1.72947 4.91392 2.07426 5.29432 2.495 5.57504C2.00598 5.56173 1.52741 5.43051 1.1 5.19254V5.23004C1.10367 5.9387 1.352 6.62435 1.80299 7.17101C2.25398 7.71766 2.87994 8.09177 3.575 8.23004C3.30744 8.31146 3.02966 8.35439 2.75 8.35754C2.55642 8.35527 2.36332 8.33772 2.1725 8.30504C2.37043 8.91464 2.75347 9.44739 3.26831 9.82915C3.78315 10.2109 4.40418 10.4227 5.045 10.435C3.9629 11.2865 2.62691 11.7512 1.25 11.755C0.999301 11.7559 0.748802 11.7408 0.5 11.71C1.90582 12.6177 3.54411 13.0996 5.2175 13.0975C6.37227 13.1095 7.51785 12.8913 8.58734 12.4556C9.65682 12.0199 10.6288 11.3754 11.4464 10.5599C12.264 9.74437 12.911 8.77408 13.3494 7.70571C13.7879 6.63735 14.009 5.49233 14 4.33753C14 4.21003 14 4.07503 14 3.94003C14.5885 3.50114 15.0961 2.9631 15.5 2.35004V2.35004Z" fill="#00C2FF"/>
</svg>
