<svg width="24" height="24" viewBox="0 0 24 24" fill="none" xmlns="http://www.w3.org/2000/svg">
<rect width="24" height="24" rx="12" fill="#F8FAFC"/>
<path d="M9.7695 17C14.298 17 16.7752 13.1517 16.7752 9.82038C16.7752 9.7127 16.7753 9.60347 16.7708 9.49578C17.253 9.13772 17.6693 8.69441 18 8.18662C17.5495 8.39034 17.0721 8.52461 16.5833 8.58506C17.0982 8.26942 17.4838 7.77278 17.6685 7.18745C17.1847 7.48137 16.6553 7.68771 16.1032 7.79741C15.7321 7.39207 15.2411 7.12354 14.7061 7.03342C14.1711 6.9433 13.622 7.03662 13.144 7.29893C12.666 7.56124 12.2856 7.97789 12.0618 8.48435C11.8381 8.99081 11.7834 9.55881 11.9062 10.1004C10.9273 10.05 9.96961 9.78921 9.09528 9.33483C8.22095 8.88045 7.44951 8.24265 6.831 7.46282C6.51701 8.019 6.42118 8.67691 6.56298 9.30292C6.70479 9.92894 7.07359 10.4761 7.5945 10.8334C7.20415 10.8198 6.82239 10.7123 6.48 10.5196V10.5542C6.48067 11.1368 6.67748 11.7014 7.03716 12.1524C7.39683 12.6034 7.89731 12.9132 8.454 13.0294C8.2427 13.0891 8.02442 13.1189 7.80525 13.1179C7.65074 13.1184 7.49654 13.1037 7.34475 13.0741C7.50209 13.5756 7.80845 14.0141 8.22094 14.3282C8.63342 14.6423 9.13135 14.8162 9.645 14.8255C8.77242 15.5284 7.69455 15.9096 6.585 15.9078C6.38949 15.9086 6.19412 15.897 6 15.8731C7.12614 16.6095 8.43397 17.0004 9.7695 17Z" fill="#101828"/>
</svg>
