<svg width="56" height="56" viewBox="0 0 56 56" fill="none" xmlns="http://www.w3.org/2000/svg">
<path d="M49.3097 22.3814C48.4784 21.5283 47.6253 20.6314 47.2972 19.8658C46.969 19.1002 46.9909 17.9627 46.969 16.8033C46.9472 14.6814 46.9034 12.2533 45.219 10.5689C43.5347 8.88455 41.1065 8.8408 38.9847 8.81892C37.8253 8.79705 36.644 8.77517 35.9222 8.4908C35.2003 8.20642 34.2597 7.30955 33.4065 6.4783C31.8972 5.03455 30.169 3.39392 27.894 3.39392C25.619 3.39392 23.8909 5.03455 22.3815 6.4783C21.5284 7.30955 20.6315 8.16267 19.8659 8.4908C19.1003 8.81892 17.9628 8.79705 16.8034 8.81892C14.6815 8.8408 12.2534 8.88455 10.569 10.5689C8.88467 12.2533 8.84092 14.6814 8.81904 16.8033C8.79717 17.9627 8.77529 19.1439 8.49092 19.8658C8.20654 20.5877 7.30967 21.5283 6.47842 22.3814C5.03467 23.8908 3.39404 25.6189 3.39404 27.8939C3.39404 30.1689 5.03467 31.897 6.47842 33.4064C7.30967 34.2595 8.16279 35.1564 8.49092 35.922C8.81904 36.6877 8.79717 37.8252 8.81904 38.9845C8.84092 41.1064 8.88467 43.5345 10.569 45.2189C12.2534 46.9033 14.6815 46.947 16.8034 46.9689C17.9628 46.9908 19.144 47.0127 19.8659 47.297C20.5878 47.5814 21.5284 48.4783 22.3815 49.3095C23.8909 50.7533 25.619 52.3939 27.894 52.3939C30.169 52.3939 31.8972 50.7533 33.4065 49.3095C34.2597 48.4783 35.1565 47.6252 35.9222 47.297C36.6878 46.9689 37.8253 46.9908 38.9847 46.9689C41.1065 46.947 43.5347 46.9033 45.219 45.2189C46.9034 43.5345 46.9472 41.1064 46.969 38.9845C46.9909 37.8252 47.0128 36.6439 47.2972 35.922C47.5815 35.2002 48.4784 34.2595 49.3097 33.4064C50.7534 31.897 52.394 30.1689 52.394 27.8939C52.394 25.6189 50.7534 23.8908 49.3097 22.3814ZM38.7222 23.9127L25.9034 36.1627C25.572 36.4744 25.1334 36.6467 24.6784 36.6439C24.2301 36.6456 23.7987 36.4731 23.4753 36.1627L17.0659 30.0377C16.8881 29.8826 16.7436 29.6931 16.6409 29.4807C16.5382 29.2683 16.4795 29.0374 16.4684 28.8017C16.4572 28.566 16.4938 28.3306 16.576 28.1094C16.6582 27.8883 16.7842 27.686 16.9466 27.5148C17.1089 27.3436 17.3042 27.2071 17.5206 27.1133C17.7371 27.0195 17.9703 26.9704 18.2062 26.969C18.4422 26.9677 18.6759 27.014 18.8935 27.1053C19.111 27.1966 19.3079 27.3309 19.4722 27.5002L24.6784 32.4658L36.3159 21.3752C36.6562 21.0783 37.098 20.9245 37.5491 20.9458C38.0002 20.9671 38.4255 21.162 38.7362 21.4897C39.047 21.8174 39.219 22.2524 39.2164 22.704C39.2137 23.1556 39.0367 23.5886 38.7222 23.9127Z" fill="#101828"/>
</svg>
