<svg width="20" height="20" viewBox="0 0 20 20" fill="none" xmlns="http://www.w3.org/2000/svg">
<path d="M18.472 13.0462L18.4979 12.9596C19.1674 11.0433 19.1674 8.95668 18.4979 7.04039L18.472 6.95385C17.8425 5.21128 16.6916 3.7049 15.1758 2.63961C13.6599 1.57432 11.8527 1.00182 10 1C8.14727 1.00182 6.34007 1.57432 4.82423 2.63961C3.30838 3.7049 2.15746 5.21128 1.52803 6.95385L1.50207 7.04039C0.832642 8.95668 0.832642 11.0433 1.50207 12.9596L1.52803 13.0462C2.1596 14.7873 3.31105 16.2923 4.82642 17.3573C6.34179 18.4222 8.14786 18.9957 10 19C11.8527 18.9982 13.6599 18.4257 15.1758 17.3604C16.6916 16.2951 17.8425 14.7887 18.472 13.0462ZM10 2.86923C11.0081 3.90622 11.7632 5.16188 12.2067 6.53846H7.79331C8.23675 5.16188 8.99192 3.90622 10 2.86923ZM7.79331 13.4615H12.2067C11.7632 14.8381 11.0081 16.0938 10 17.1308C8.99192 16.0938 8.23675 14.8381 7.79331 13.4615ZM7.42985 12.0769C7.16454 10.705 7.16454 9.29498 7.42985 7.92308H12.5701C12.8355 9.29498 12.8355 10.705 12.5701 12.0769H7.42985ZM13.9807 7.92308H17.3297C17.7105 9.2815 17.7105 10.7185 17.3297 12.0769H13.9807C14.2115 10.7019 14.2115 9.29808 13.9807 7.92308ZM16.7845 6.53846H13.6692C13.2528 5.08056 12.5431 3.72302 11.5836 2.54904C12.6915 2.78825 13.7326 3.27012 14.6319 3.95995C15.5312 4.64978 16.2664 5.53041 16.7845 6.53846ZM11.5836 17.451C12.5431 16.277 13.2528 14.9194 13.6692 13.4615H16.7845C16.2664 14.4696 15.5312 15.3502 14.6319 16.0401C13.7326 16.7299 12.6915 17.2117 11.5836 17.451Z" fill="#101828"/>
</svg>
