<svg width="20" height="17" viewBox="0 0 20 17" fill="none" xmlns="http://www.w3.org/2000/svg">
<path d="M7.7085 0.666672C3.91773 0.666672 0.833496 3.27635 0.833496 6.48398C0.833496 8.32906 1.85749 9.97251 3.44605 11.0384L2.60596 12.6986L4.83221 11.7587C5.52215 12.0289 6.26998 12.2109 7.05983 12.2737C6.91246 11.8323 6.82709 11.3702 6.82709 10.891C6.82709 7.97039 9.74737 5.60257 13.3495 5.60257C13.7469 5.60257 14.1343 5.6364 14.5119 5.6914C14.0525 2.85855 11.1805 0.666672 7.7085 0.666672ZM5.24055 3.83975C5.72744 3.83975 6.12196 4.23427 6.12196 4.72116C6.12196 5.20805 5.72744 5.60257 5.24055 5.60257C4.75366 5.60257 4.35914 5.20805 4.35914 4.72116C4.35914 4.23427 4.75366 3.83975 5.24055 3.83975ZM10.1764 3.83975C10.6633 3.83975 11.0579 4.23427 11.0579 4.72116C11.0579 5.20805 10.6633 5.60257 10.1764 5.60257C9.68955 5.60257 9.29504 5.20805 9.29504 4.72116C9.29504 4.23427 9.68955 3.83975 10.1764 3.83975ZM13.3495 6.3077C10.1419 6.3077 7.53221 8.36385 7.53221 10.891C7.53221 13.4182 10.1419 15.4744 13.3495 15.4744C13.8419 15.4744 14.3173 15.4209 14.7742 15.3298L17.9632 16.676L16.8752 14.5282C18.2651 13.6899 19.1668 12.3735 19.1668 10.891C19.1668 8.36385 16.5572 6.3077 13.3495 6.3077ZM11.5867 9.12821C12.0736 9.12821 12.4681 9.52273 12.4681 10.0096C12.4681 10.4965 12.0736 10.891 11.5867 10.891C11.0998 10.891 10.7053 10.4965 10.7053 10.0096C10.7053 9.52273 11.0998 9.12821 11.5867 9.12821ZM15.1123 9.12821C15.5992 9.12821 15.9938 9.52273 15.9938 10.0096C15.9938 10.4965 15.5992 10.891 15.1123 10.891C14.6255 10.891 14.2309 10.4965 14.2309 10.0096C14.2309 9.52273 14.6255 9.12821 15.1123 9.12821Z" fill="#101828"/>
</svg>
