<svg width="200" height="56" viewBox="0 0 200 56" fill="none" xmlns="http://www.w3.org/2000/svg">
<g filter="url(#filter0_d_4717_10797)">
<rect width="196" height="52" rx="5" fill="#CCFF00" shape-rendering="crispEdges"/>
<path fill-rule="evenodd" clip-rule="evenodd" d="M26.999 35.9999H33.1416C36.3066 35.9999 39.0262 34.0928 40.2139 31.365C39.911 31.4012 39.6028 31.4198 39.2901 31.4198H32.68V31.4199L26.999 35.9999Z" fill="#0F172A"/>
<path opacity="0.15" fill-rule="evenodd" clip-rule="evenodd" d="M40.1969 31.4063C40.0436 31.4154 39.8892 31.42 39.7336 31.42H32.6807V20.5801H33.1427C37.4008 20.5801 40.8527 24.0319 40.8527 28.29C40.8527 29.3991 40.6185 30.4534 40.1969 31.4063Z" fill="#0F172A"/>
<path opacity="0.8" d="M26.999 23.0995C26.999 21.5064 27.7201 19.9988 28.9603 18.9989L32.6802 16V31.4198L26.999 36V23.0995Z" fill="#0F172A"/>
<path opacity="0.7" d="M32.6807 16H39.2903C43.5484 16 47.0003 19.4518 47.0003 23.7099C47.0003 27.968 43.5484 31.4198 39.2903 31.4198H32.6807V16Z" fill="#0F172A"/>
<path d="M60.2638 32H56.3206V20.3636H60.3433C61.4986 20.3636 62.491 20.5966 63.3206 21.0625C64.1539 21.5246 64.7941 22.1894 65.241 23.0568C65.688 23.9242 65.9115 24.9621 65.9115 26.1705C65.9115 27.3826 65.6861 28.4242 65.2354 29.2955C64.7884 30.1667 64.1425 30.8352 63.2979 31.3011C62.4569 31.767 61.4456 32 60.2638 32ZM58.4285 30.1761H60.1615C60.9721 30.1761 61.6482 30.0284 62.1899 29.733C62.7316 29.4337 63.1388 28.9886 63.4115 28.3977C63.6842 27.803 63.8206 27.0606 63.8206 26.1705C63.8206 25.2803 63.6842 24.5417 63.4115 23.9545C63.1388 23.3636 62.7354 22.9223 62.2013 22.6307C61.671 22.3352 61.0119 22.1875 60.224 22.1875H58.4285V30.1761ZM71.6302 32.1705C70.778 32.1705 70.0393 31.983 69.4143 31.608C68.7893 31.233 68.3045 30.7083 67.9598 30.0341C67.6189 29.3598 67.4484 28.572 67.4484 27.6705C67.4484 26.7689 67.6189 25.9792 67.9598 25.3011C68.3045 24.6231 68.7893 24.0966 69.4143 23.7216C70.0393 23.3466 70.778 23.1591 71.6302 23.1591C72.4825 23.1591 73.2211 23.3466 73.8461 23.7216C74.4711 24.0966 74.9541 24.6231 75.295 25.3011C75.6397 25.9792 75.8121 26.7689 75.8121 27.6705C75.8121 28.572 75.6397 29.3598 75.295 30.0341C74.9541 30.7083 74.4711 31.233 73.8461 31.608C73.2211 31.983 72.4825 32.1705 71.6302 32.1705ZM71.6416 30.5227C72.1037 30.5227 72.4901 30.3958 72.8007 30.142C73.1113 29.8845 73.3424 29.5398 73.4939 29.108C73.6492 28.6761 73.7268 28.1951 73.7268 27.6648C73.7268 27.1307 73.6492 26.6477 73.4939 26.2159C73.3424 25.7803 73.1113 25.4337 72.8007 25.1761C72.4901 24.9186 72.1037 24.7898 71.6416 24.7898C71.1681 24.7898 70.7742 24.9186 70.4598 25.1761C70.1492 25.4337 69.9162 25.7803 69.7609 26.2159C69.6094 26.6477 69.5336 27.1307 69.5336 27.6648C69.5336 28.1951 69.6094 28.6761 69.7609 29.108C69.9162 29.5398 70.1492 29.8845 70.4598 30.142C70.7742 30.3958 71.1681 30.5227 71.6416 30.5227ZM79.6146 26.8864V32H77.5578V23.2727H79.5237V24.7557H79.626C79.8267 24.267 80.1468 23.8788 80.5862 23.5909C81.0294 23.303 81.5767 23.1591 82.2282 23.1591C82.8305 23.1591 83.3551 23.2879 83.8021 23.5455C84.2529 23.803 84.6014 24.1761 84.8476 24.6648C85.0976 25.1534 85.2207 25.7462 85.2169 26.4432V32H83.1601V26.7614C83.1601 26.178 83.0086 25.7216 82.7055 25.392C82.4063 25.0625 81.9915 24.8977 81.4612 24.8977C81.1014 24.8977 80.7813 24.9773 80.501 25.1364C80.2245 25.2917 80.0067 25.517 79.8476 25.8125C79.6923 26.108 79.6146 26.4659 79.6146 26.8864ZM89.8192 32.1761C89.2661 32.1761 88.768 32.0777 88.3248 31.8807C87.8854 31.6799 87.537 31.3845 87.2794 30.9943C87.0256 30.6042 86.8987 30.1231 86.8987 29.5511C86.8987 29.0587 86.9896 28.6515 87.1714 28.3295C87.3532 28.0076 87.6014 27.75 87.9157 27.5568C88.2301 27.3636 88.5843 27.2178 88.9782 27.1193C89.376 27.017 89.787 26.9432 90.2112 26.8977C90.7226 26.8447 91.1373 26.7973 91.4555 26.7557C91.7737 26.7102 92.0048 26.642 92.1487 26.5511C92.2964 26.4564 92.3703 26.3106 92.3703 26.1136V26.0795C92.3703 25.6515 92.2434 25.3201 91.9896 25.0852C91.7358 24.8504 91.3703 24.733 90.893 24.733C90.3892 24.733 89.9896 24.8428 89.6942 25.0625C89.4025 25.2822 89.2055 25.5417 89.1032 25.8409L87.1828 25.5682C87.3343 25.0379 87.5843 24.5947 87.9328 24.2386C88.2813 23.8788 88.7074 23.6098 89.2112 23.4318C89.715 23.25 90.2718 23.1591 90.8817 23.1591C91.3021 23.1591 91.7207 23.2083 92.1373 23.3068C92.554 23.4053 92.9347 23.5682 93.2794 23.7955C93.6241 24.0189 93.9006 24.3239 94.1089 24.7102C94.3211 25.0966 94.4271 25.5795 94.4271 26.1591V32H92.4498V30.8011H92.3817C92.2567 31.0436 92.0805 31.2708 91.8532 31.483C91.6298 31.6913 91.3476 31.8598 91.0067 31.9886C90.6695 32.1136 90.2737 32.1761 89.8192 32.1761ZM90.3532 30.6648C90.7661 30.6648 91.1241 30.5833 91.4271 30.4205C91.7301 30.2538 91.9631 30.0341 92.126 29.7614C92.2926 29.4886 92.376 29.1913 92.376 28.8693V27.8409C92.3116 27.8939 92.2017 27.9432 92.0464 27.9886C91.8949 28.0341 91.7245 28.0739 91.5351 28.108C91.3457 28.142 91.1582 28.1723 90.9726 28.1989C90.787 28.2254 90.626 28.2481 90.4896 28.267C90.1828 28.3087 89.9082 28.3769 89.6657 28.4716C89.4233 28.5663 89.232 28.6989 89.0919 28.8693C88.9517 29.036 88.8817 29.2519 88.8817 29.517C88.8817 29.8958 89.0199 30.1818 89.2964 30.375C89.5729 30.5682 89.9252 30.6648 90.3532 30.6648ZM100.853 23.2727V24.8636H95.8362V23.2727H100.853ZM97.0748 21.1818H99.1317V29.375C99.1317 29.6515 99.1733 29.8636 99.2567 30.0114C99.3438 30.1553 99.4574 30.2538 99.5976 30.3068C99.7377 30.3598 99.893 30.3864 100.063 30.3864C100.192 30.3864 100.31 30.3769 100.416 30.358C100.526 30.339 100.609 30.322 100.666 30.3068L101.012 31.9148C100.902 31.9527 100.745 31.9943 100.541 32.0398C100.34 32.0852 100.094 32.1117 99.8021 32.1193C99.287 32.1345 98.8229 32.0568 98.4101 31.8864C97.9972 31.7121 97.6695 31.4432 97.4271 31.0795C97.1885 30.7159 97.0711 30.2614 97.0748 29.7159V21.1818ZM106.343 32.1705C105.468 32.1705 104.713 31.9886 104.076 31.625C103.444 31.2576 102.957 30.7386 102.616 30.0682C102.275 29.3939 102.105 28.6004 102.105 27.6875C102.105 26.7898 102.275 26.0019 102.616 25.3239C102.961 24.642 103.442 24.1117 104.059 23.733C104.677 23.3504 105.402 23.1591 106.235 23.1591C106.773 23.1591 107.281 23.2462 107.758 23.4205C108.239 23.5909 108.663 23.8561 109.031 24.2159C109.402 24.5758 109.694 25.0341 109.906 25.5909C110.118 26.1439 110.224 26.803 110.224 27.5682V28.1989H103.071V26.8125H108.252C108.249 26.4186 108.163 26.0682 107.997 25.7614C107.83 25.4508 107.597 25.2064 107.298 25.0284C107.002 24.8504 106.658 24.7614 106.264 24.7614C105.843 24.7614 105.474 24.8636 105.156 25.0682C104.838 25.2689 104.59 25.5341 104.411 25.8636C104.237 26.1894 104.148 26.5473 104.144 26.9375V28.1477C104.144 28.6553 104.237 29.0909 104.423 29.4545C104.608 29.8144 104.868 30.0909 105.201 30.2841C105.535 30.4735 105.925 30.5682 106.372 30.5682C106.671 30.5682 106.942 30.5265 107.184 30.4432C107.427 30.3561 107.637 30.2292 107.815 30.0625C107.993 29.8958 108.127 29.6894 108.218 29.4432L110.139 29.6591C110.018 30.1667 109.786 30.6098 109.446 30.9886C109.108 31.3636 108.677 31.6553 108.15 31.8636C107.624 32.0682 107.021 32.1705 106.343 32.1705ZM116.117 32.1591C115.299 32.1591 114.572 32.0189 113.936 31.7386C113.303 31.4583 112.803 31.0682 112.436 30.5682C112.068 30.0682 111.873 29.4905 111.85 28.8352H113.987C114.006 29.1496 114.11 29.4242 114.299 29.6591C114.489 29.8902 114.741 30.0701 115.055 30.1989C115.369 30.3277 115.722 30.392 116.112 30.392C116.528 30.392 116.898 30.3201 117.22 30.1761C117.542 30.0284 117.794 29.8239 117.975 29.5625C118.157 29.3011 118.246 29 118.242 28.6591C118.246 28.3068 118.155 27.9962 117.97 27.7273C117.784 27.4583 117.515 27.2481 117.163 27.0966C116.814 26.9451 116.394 26.8693 115.902 26.8693H114.873V25.2443H115.902C116.307 25.2443 116.661 25.1742 116.964 25.0341C117.271 24.8939 117.511 24.697 117.686 24.4432C117.86 24.1856 117.945 23.8883 117.941 23.5511C117.945 23.2216 117.871 22.9356 117.72 22.6932C117.572 22.447 117.362 22.2557 117.089 22.1193C116.82 21.983 116.504 21.9148 116.14 21.9148C115.784 21.9148 115.455 21.9792 115.152 22.108C114.849 22.2367 114.604 22.4205 114.419 22.6591C114.233 22.8939 114.134 23.1742 114.123 23.5H112.095C112.11 22.8485 112.297 22.2765 112.657 21.7841C113.021 21.2879 113.506 20.9015 114.112 20.625C114.718 20.3447 115.398 20.2045 116.152 20.2045C116.928 20.2045 117.602 20.3504 118.174 20.642C118.75 20.9299 119.195 21.3182 119.509 21.8068C119.824 22.2955 119.981 22.8352 119.981 23.4261C119.985 24.0814 119.792 24.6307 119.402 25.0739C119.015 25.517 118.508 25.8068 117.879 25.9432V26.0341C118.697 26.1477 119.324 26.4508 119.759 26.9432C120.199 27.4318 120.417 28.0398 120.413 28.767C120.413 29.4186 120.227 30.0019 119.856 30.517C119.489 31.0284 118.981 31.4299 118.333 31.7216C117.689 32.0133 116.951 32.1591 116.117 32.1591ZM130.713 23.2727V24.8636H125.696V23.2727H130.713ZM126.934 21.1818H128.991V29.375C128.991 29.6515 129.033 29.8636 129.116 30.0114C129.203 30.1553 129.317 30.2538 129.457 30.3068C129.597 30.3598 129.752 30.3864 129.923 30.3864C130.052 30.3864 130.169 30.3769 130.275 30.358C130.385 30.339 130.468 30.322 130.525 30.3068L130.872 31.9148C130.762 31.9527 130.605 31.9943 130.4 32.0398C130.199 32.0852 129.953 32.1117 129.661 32.1193C129.146 32.1345 128.682 32.0568 128.269 31.8864C127.857 31.7121 127.529 31.4432 127.286 31.0795C127.048 30.7159 126.93 30.2614 126.934 29.7159V21.1818ZM136.146 32.1705C135.294 32.1705 134.555 31.983 133.93 31.608C133.305 31.233 132.82 30.7083 132.475 30.0341C132.134 29.3598 131.964 28.572 131.964 27.6705C131.964 26.7689 132.134 25.9792 132.475 25.3011C132.82 24.6231 133.305 24.0966 133.93 23.7216C134.555 23.3466 135.294 23.1591 136.146 23.1591C136.998 23.1591 137.737 23.3466 138.362 23.7216C138.987 24.0966 139.47 24.6231 139.811 25.3011C140.155 25.9792 140.328 26.7689 140.328 27.6705C140.328 28.572 140.155 29.3598 139.811 30.0341C139.47 30.7083 138.987 31.233 138.362 31.608C137.737 31.983 136.998 32.1705 136.146 32.1705ZM136.157 30.5227C136.619 30.5227 137.006 30.3958 137.316 30.142C137.627 29.8845 137.858 29.5398 138.009 29.108C138.165 28.6761 138.242 28.1951 138.242 27.6648C138.242 27.1307 138.165 26.6477 138.009 26.2159C137.858 25.7803 137.627 25.4337 137.316 25.1761C137.006 24.9186 136.619 24.7898 136.157 24.7898C135.684 24.7898 135.29 24.9186 134.975 25.1761C134.665 25.4337 134.432 25.7803 134.277 26.2159C134.125 26.6477 134.049 27.1307 134.049 27.6648C134.049 28.1951 134.125 28.6761 134.277 29.108C134.432 29.5398 134.665 29.8845 134.975 30.142C135.29 30.3958 135.684 30.5227 136.157 30.5227ZM146.042 32V23.2727H148.008V24.7557H148.11C148.292 24.2557 148.593 23.8655 149.014 23.5852C149.434 23.3011 149.936 23.1591 150.519 23.1591C151.11 23.1591 151.608 23.303 152.014 23.5909C152.423 23.875 152.711 24.2633 152.877 24.7557H152.968C153.161 24.2708 153.487 23.8845 153.946 23.5966C154.408 23.3049 154.955 23.1591 155.588 23.1591C156.391 23.1591 157.046 23.4129 157.554 23.9205C158.061 24.428 158.315 25.1686 158.315 26.142V32H156.252V26.4602C156.252 25.9186 156.108 25.5227 155.821 25.2727C155.533 25.0189 155.18 24.892 154.764 24.892C154.268 24.892 153.879 25.0473 153.599 25.358C153.322 25.6648 153.184 26.0644 153.184 26.5568V32H151.167V26.375C151.167 25.9242 151.031 25.5644 150.758 25.2955C150.489 25.0265 150.137 24.892 149.701 24.892C149.406 24.892 149.137 24.9678 148.894 25.1193C148.652 25.267 148.459 25.4773 148.315 25.75C148.171 26.0189 148.099 26.3333 148.099 26.6932V32H146.042ZM164.265 32.1705C163.39 32.1705 162.634 31.9886 161.998 31.625C161.366 31.2576 160.879 30.7386 160.538 30.0682C160.197 29.3939 160.027 28.6004 160.027 27.6875C160.027 26.7898 160.197 26.0019 160.538 25.3239C160.883 24.642 161.364 24.1117 161.981 23.733C162.599 23.3504 163.324 23.1591 164.157 23.1591C164.695 23.1591 165.203 23.2462 165.68 23.4205C166.161 23.5909 166.585 23.8561 166.953 24.2159C167.324 24.5758 167.616 25.0341 167.828 25.5909C168.04 26.1439 168.146 26.803 168.146 27.5682V28.1989H160.992V26.8125H166.174C166.17 26.4186 166.085 26.0682 165.919 25.7614C165.752 25.4508 165.519 25.2064 165.22 25.0284C164.924 24.8504 164.58 24.7614 164.186 24.7614C163.765 24.7614 163.396 24.8636 163.078 25.0682C162.759 25.2689 162.511 25.5341 162.333 25.8636C162.159 26.1894 162.07 26.5473 162.066 26.9375V28.1477C162.066 28.6553 162.159 29.0909 162.345 29.4545C162.53 29.8144 162.79 30.0909 163.123 30.2841C163.456 30.4735 163.847 30.5682 164.294 30.5682C164.593 30.5682 164.864 30.5265 165.106 30.4432C165.349 30.3561 165.559 30.2292 165.737 30.0625C165.915 29.8958 166.049 29.6894 166.14 29.4432L168.061 29.6591C167.939 30.1667 167.708 30.6098 167.367 30.9886C167.03 31.3636 166.599 31.6553 166.072 31.8636C165.545 32.0682 164.943 32.1705 164.265 32.1705Z" fill="#0F172A"/>
<rect x="0.5" y="0.5" width="195" height="51" rx="4.5" stroke="#0F172A" shape-rendering="crispEdges"/>
</g>
<defs>
<filter id="filter0_d_4717_10797" x="0" y="0" width="200" height="56" filterUnits="userSpaceOnUse" color-interpolation-filters="sRGB">
<feFlood flood-opacity="0" result="BackgroundImageFix"/>
<feColorMatrix in="SourceAlpha" type="matrix" values="0 0 0 0 0 0 0 0 0 0 0 0 0 0 0 0 0 0 127 0" result="hardAlpha"/>
<feOffset dx="4" dy="4"/>
<feComposite in2="hardAlpha" operator="out"/>
<feColorMatrix type="matrix" values="0 0 0 0 0.729412 0 0 0 0 0.807843 0 0 0 0 0.8 0 0 0 0.9 0"/>
<feBlend mode="normal" in2="BackgroundImageFix" result="effect1_dropShadow_4717_10797"/>
<feBlend mode="normal" in="SourceGraphic" in2="effect1_dropShadow_4717_10797" result="shape"/>
</filter>
</defs>
</svg>
