<svg width="32" height="32" viewBox="0 0 32 32" fill="none" xmlns="http://www.w3.org/2000/svg">
<g id="Frame 12041">
<rect width="32" height="32" rx="16" fill="#E2E8F0"/>
<path id="Vector" d="M25.8371 11.2194C25.1667 11.5102 24.4578 11.7025 23.7323 11.7902C24.4977 11.3329 25.0713 10.6136 25.3466 9.76567C24.6274 10.1938 23.84 10.4955 23.0189 10.6575C22.47 10.0623 21.739 9.66604 20.9407 9.53097C20.1423 9.39591 19.3217 9.52964 18.6075 9.91121C17.8934 10.2928 17.3261 10.9006 16.9946 11.6393C16.6631 12.378 16.5862 13.2059 16.7759 13.9931C15.3216 13.9195 13.8991 13.5409 12.6008 12.8817C11.3024 12.2225 10.1573 11.2976 9.23968 10.167C8.91784 10.729 8.74873 11.3655 8.74916 12.0131C8.74802 12.6146 8.89562 13.207 9.17882 13.7376C9.46201 14.2682 9.87202 14.7206 10.3723 15.0544C9.79083 15.0385 9.22174 14.8825 8.71348 14.5995V14.6441C8.71784 15.4868 9.01314 16.3022 9.54943 16.9522C10.0857 17.6023 10.8301 18.0471 11.6566 18.2115C11.3384 18.3084 11.0081 18.3594 10.6756 18.3632C10.4454 18.3605 10.2157 18.3396 9.98884 18.3007C10.2242 19.0256 10.6797 19.6592 11.2919 20.1131C11.9041 20.5671 12.6426 20.8189 13.4046 20.8336C12.1179 21.8461 10.5292 22.3987 8.89186 22.4033C8.59374 22.4042 8.29586 22.3864 8 22.3498C9.67172 23.4291 11.6199 24.0021 13.6098 23.9997C14.983 24.0139 16.3452 23.7544 17.617 23.2363C18.8888 22.7182 20.0445 21.9519 21.0168 20.9821C21.9891 20.0123 22.7584 18.8585 23.2798 17.588C23.8011 16.3176 24.0641 14.956 24.0534 13.5828C24.0534 13.4312 24.0534 13.2707 24.0534 13.1101C24.7532 12.5882 25.3568 11.9484 25.8371 11.2194Z" fill="#1E293B"/>
</g>
</svg>
