<svg width="24" height="24" viewBox="0 0 24 24" fill="none" xmlns="http://www.w3.org/2000/svg">
<g id="Frame 12052">
<rect width="24" height="24" fill="url(#paint0_linear_3842_235)"/>
<g id="polygon">
<path id="Vector" d="M15.3944 14.1552L18.7152 12.145C18.8912 12.0383 19 11.8402 19 11.6277V7.60726C19 7.39472 18.8912 7.19671 18.7152 7.08992L15.3944 5.0797C15.2184 4.97292 14.9999 4.97395 14.8248 5.0797L11.504 7.08992C11.328 7.19671 11.2193 7.39472 11.2193 7.60726V14.7918L8.89037 16.2007L6.56149 14.7918V11.973L8.89037 10.564L10.4262 11.4939V9.60296L9.17515 8.84511C9.08911 8.79328 8.99027 8.76529 8.89037 8.76529C8.79046 8.76529 8.69162 8.79328 8.60558 8.84511L5.28481 10.8553C5.10878 10.9621 5 11.1602 5 11.3727V15.3931C5 15.6057 5.10878 15.8037 5.28481 15.9104L8.60558 17.9207C8.78157 18.0264 8.99916 18.0264 9.17515 17.9207L12.4959 15.9104C12.672 15.8037 12.7807 15.6057 12.7807 15.3931V8.20753L12.8223 8.18264L15.1086 6.7986L17.4375 8.20753V11.0264L15.1086 12.4353L13.5748 11.5074V13.3985L14.8238 14.1543C14.9999 14.26 15.2184 14.26 15.3934 14.1543L15.3944 14.1552Z" fill="white"/>
</g>
</g>
<defs>
<linearGradient id="paint0_linear_3842_235" x1="-0.0779842" y1="19.9146" x2="24.2926" y2="7.38545" gradientUnits="userSpaceOnUse">
<stop stop-color="#A726C1"/>
<stop offset="0.88" stop-color="#803BDF"/>
<stop offset="1" stop-color="#7B3FE4"/>
</linearGradient>
</defs>
</svg>
