<svg width="46" height="44" viewBox="0 0 46 44" fill="none" xmlns="http://www.w3.org/2000/svg">
<path fill-rule="evenodd" clip-rule="evenodd" d="M1.68828 19.8149L6.81549 14.6877C7.4952 14.0079 8.41713 13.626 9.37844 13.626C10.3398 13.626 11.2617 14.0079 11.9414 14.6877L17.0673 19.8149C17.7471 20.4946 18.129 21.4165 18.129 22.3778C18.129 23.3391 17.7471 24.2611 17.0673 24.9408L11.9414 30.0667C11.2617 30.7465 10.3398 31.1284 9.37844 31.1284C8.41713 31.1284 7.4952 30.7465 6.81548 30.0667L1.68828 24.9408C1.0085 24.2611 0.626587 23.3391 0.626587 22.3778C0.626587 21.4165 1.0085 20.4946 1.68828 19.8149H1.68828ZM28.6883 19.8149L33.8142 14.6877C34.4939 14.0079 35.4158 13.626 36.3772 13.626C37.3385 13.626 38.2604 14.0079 38.9401 14.6877L44.066 19.8149C44.7458 20.4946 45.1277 21.4165 45.1277 22.3778C45.1277 23.3391 44.7458 24.2611 44.066 24.9408L38.9414 30.0667C38.2617 30.7465 37.3398 31.1284 36.3784 31.1284C35.4171 31.1284 34.4952 30.7465 33.8155 30.0667L28.6883 24.9408C28.0085 24.2611 27.6266 23.3391 27.6266 22.3778C27.6266 21.4165 28.0085 20.4946 28.6883 19.8149H28.6883Z" fill="#CCFF00"/>
<path fill-rule="evenodd" clip-rule="evenodd" d="M15.1883 32.3149L20.3155 27.189C20.9952 26.5092 21.9171 26.1273 22.8784 26.1273C23.8398 26.1273 24.7617 26.5092 25.4414 27.189L30.5673 32.3149C31.2471 32.9946 31.629 33.9165 31.629 34.8778C31.629 35.8391 31.2471 36.7611 30.5673 37.4408L25.4414 42.5667C24.7617 43.2465 23.8398 43.6284 22.8784 43.6284C21.9171 43.6284 20.9952 43.2465 20.3155 42.5667L15.1883 37.4408C14.5085 36.7611 14.1266 35.8391 14.1266 34.8778C14.1266 33.9165 14.5085 32.9946 15.1883 32.3149ZM15.1883 6.31487L20.3155 1.18896C20.9952 0.509167 21.9171 0.127258 22.8784 0.127258C23.8398 0.127258 24.7617 0.509167 25.4414 1.18896L30.5673 6.31487C31.2471 6.99458 31.629 7.91651 31.629 8.87782C31.629 9.83914 31.2471 10.7611 30.5673 11.4408L25.4414 16.568C24.7617 17.2478 23.8398 17.6297 22.8784 17.6297C21.9171 17.6297 20.9952 17.2478 20.3155 16.568L15.1883 11.4408C14.5085 10.7611 14.1266 9.83914 14.1266 8.87782C14.1266 7.91651 14.5085 6.99458 15.1883 6.31487Z" fill="#CCFF00"/>
</svg>
