<svg width="48" height="48" viewBox="0 0 48 48" fill="none" xmlns="http://www.w3.org/2000/svg">
<path d="M6.5 21C6.5 20.7239 6.72386 20.5 7 20.5H34C34.2761 20.5 34.5 20.7239 34.5 21V32C34.5 38.3513 29.3513 43.5 23 43.5H18C11.6487 43.5 6.5 38.3513 6.5 32V21Z" fill="#CCFF00" stroke="#CCFF00"/>
<mask id="path-2-inside-1_3275_3170" fill="white">
<path fill-rule="evenodd" clip-rule="evenodd" d="M36.5 23H33V26H36.5C37.8807 26 39 27.1193 39 28.5C39 29.8807 37.8807 31 36.5 31H33V34H36.5C39.5376 34 42 31.5376 42 28.5C42 25.4624 39.5376 23 36.5 23Z"/>
</mask>
<path fill-rule="evenodd" clip-rule="evenodd" d="M36.5 23H33V26H36.5C37.8807 26 39 27.1193 39 28.5C39 29.8807 37.8807 31 36.5 31H33V34H36.5C39.5376 34 42 31.5376 42 28.5C42 25.4624 39.5376 23 36.5 23Z" fill="#CCFF00"/>
<path d="M33 23V22H32V23H33ZM33 26H32V27H33V26ZM33 31V30H32V31H33ZM33 34H32V35H33V34ZM33 24H36.5V22H33V24ZM34 26V23H32V26H34ZM33 27H36.5V25H33V27ZM36.5 27C37.3284 27 38 27.6716 38 28.5H40C40 26.567 38.433 25 36.5 25V27ZM38 28.5C38 29.3284 37.3284 30 36.5 30V32C38.433 32 40 30.433 40 28.5H38ZM36.5 30H33V32H36.5V30ZM34 34V31H32V34H34ZM36.5 33H33V35H36.5V33ZM41 28.5C41 30.9853 38.9853 33 36.5 33V35C40.0899 35 43 32.0899 43 28.5H41ZM36.5 24C38.9853 24 41 26.0147 41 28.5H43C43 24.9101 40.0899 22 36.5 22V24Z" fill="#CCFF00" mask="url(#path-2-inside-1_3275_3170)"/>
<path d="M16.5 16L17.0623 15.0873C17.6233 14.1767 17.5442 13.0103 16.8653 12.1838V12.1838C16.3258 11.527 16.1562 10.6415 16.4148 9.8319L17 8" stroke="#CCFF00" stroke-width="3" stroke-linecap="round" stroke-linejoin="round"/>
<path d="M24.5 16L25.0623 15.0873C25.6233 14.1767 25.5442 13.0103 24.8653 12.1838V12.1838C24.3258 11.527 24.1562 10.6415 24.4148 9.8319L25 8" stroke="#CCFF00" stroke-width="3" stroke-linecap="round" stroke-linejoin="round"/>
</svg>
