<svg width="45" height="44" viewBox="0 0 45 44" fill="none" xmlns="http://www.w3.org/2000/svg">
<path d="M17.7353 27.312L10.3626 22.9226C9.78921 22.5913 9.09291 22.5913 8.51948 22.9226L0.983017 27.312C0.40959 27.6433 0 28.2644 0 28.927V37.7472C0 38.4097 0.40959 39.0309 0.983017 39.3621L8.43756 43.7515C8.72428 43.9172 9.05195 44 9.37962 44C9.70729 44 10.035 43.9172 10.3217 43.7515L17.6943 39.3621C18.2677 39.0309 18.5135 38.4097 18.5135 37.7472V28.927C18.5544 28.2644 18.3087 27.6847 17.7353 27.312ZM44.0989 27.312L36.6444 22.9226C36.0709 22.5913 35.3746 22.5913 34.7602 22.9226L27.3467 27.312C26.7732 27.6433 26.4456 28.2644 26.4456 28.927V37.7472C26.4456 38.4097 26.8142 39.0309 27.3467 39.3621L34.8012 43.7515C35.0879 43.9172 35.4156 44 35.7433 44C36.0709 44 36.3986 43.9172 36.6853 43.7515L44.0989 39.3621C44.6723 39.0309 45 38.4097 45 37.7472V28.927C45 28.2644 44.6723 27.6847 44.0989 27.312ZM30.8352 4.63786L23.4625 0.248457C22.8891 -0.0828189 22.1928 -0.0828189 21.6194 0.248457L14.1239 4.63786C13.5505 4.96914 13.1409 5.59028 13.1409 6.25283V15.073C13.1409 15.7356 13.5505 16.3567 14.1239 16.688L21.5784 21.0774C21.8651 21.2431 22.1928 21.3259 22.5205 21.3259C22.8482 21.3259 23.1758 21.2431 23.4625 21.0774L30.8352 16.688C31.4086 16.3567 31.6543 15.7356 31.6543 15.073V6.29424C31.6953 5.63169 31.4086 5.01055 30.8352 4.63786Z" fill="#CCFF00"/>
</svg>
