<svg width="16" height="16" viewBox="0 0 16 16" fill="none" xmlns="http://www.w3.org/2000/svg">
<path d="M8.08352 1.33331V6.24127C8.08352 6.2621 8.06268 6.28294 8.04185 6.28294C7.89601 6.34663 7.771 6.40973 7.62516 6.47283C7.43765 6.55676 7.22931 6.64129 7.0418 6.74665L6.35427 7.06214L5.79175 7.31513L5.10422 7.63121C4.91671 7.71574 4.7292 7.79967 4.52086 7.90504C4.37502 7.96813 4.20834 8.05266 4.0625 8.11576C4.04167 8.11576 4.04167 8.13659 4.02083 8.11576H4C4.0625 8.0104 4.12501 7.92587 4.18751 7.8211C4.52086 7.25203 4.87504 6.68355 5.20839 6.11448C5.56257 5.50433 5.93759 4.893 6.29177 4.28225C6.62512 3.71378 6.95847 3.1453 7.29181 2.59766C7.54183 2.17561 7.79184 1.77619 8.02101 1.35415C8.06268 1.35415 8.06268 1.33331 8.08352 1.33331C8.08352 1.33331 8.06268 1.33331 8.08352 1.33331Z" fill="#8C8C8C"/>
<path d="M12.1252 8.1158C11.8127 8.32652 11.4793 8.51582 11.1668 8.70511C10.1459 9.31645 9.14588 9.90636 8.125 10.5171C8.10417 10.5171 8.10417 10.5379 8.08333 10.5379C8.0625 10.5379 8.0625 10.5171 8.0625 10.5171V6.28298C8.0625 6.26215 8.08333 6.26215 8.10417 6.26215C8.18751 6.30381 8.27084 6.34667 8.37501 6.38834C8.62503 6.51513 8.89587 6.6205 9.14588 6.74669C9.37506 6.85205 9.5834 6.95742 9.81258 7.04135C10.0418 7.14671 10.2501 7.25207 10.4793 7.35743C10.6668 7.44196 10.8751 7.52589 11.0626 7.63126C11.2501 7.71578 11.4585 7.79971 11.646 7.90508C11.7918 7.96817 11.9377 8.0527 12.1043 8.1158C12.1043 8.09497 12.1043 8.1158 12.1252 8.1158Z" fill="#141414"/>
<path d="M8.08368 14.6666C8.08368 14.6666 8.06284 14.6666 8.08368 14.6666C8.06284 14.6666 8.06284 14.6666 8.04201 14.6452C7.62532 14.0559 7.22947 13.4868 6.81279 12.8969L5.56273 11.1278C5.16688 10.5593 4.7502 9.99083 4.35434 9.40033L4.04183 8.95805C4.04183 8.93722 4.021 8.93722 4.021 8.91638C4.04183 8.91638 4.04183 8.93722 4.06266 8.93722C4.62519 9.27414 5.20855 9.61106 5.77107 9.94798C6.41694 10.3486 7.08363 10.7278 7.7295 11.1278C7.83367 11.1909 7.95867 11.254 8.06284 11.3171C8.08368 11.3171 8.08368 11.3385 8.08368 11.3593V14.6666Z" fill="#8C8C8C"/>
<path d="M4 7.89532C4 7.87449 4 7.87449 4 7.89532C4.20834 7.78996 4.41669 7.70603 4.62503 7.60067L5.43756 7.22148C5.64591 7.11612 5.85425 7.03219 6.06259 6.92683C6.35427 6.7792 6.66679 6.65301 6.95847 6.50538C7.16681 6.42085 7.37515 6.31549 7.58349 6.23156C7.72933 6.16846 7.87517 6.10536 8.02101 6.02083C8.04185 6.02083 8.04185 6 8.06268 6V10.2966C8.04185 10.3181 8.04185 10.2966 8.02101 10.2966C7.95851 10.255 7.89601 10.2335 7.85434 10.1913L4.04167 7.91675C4.02083 7.89532 4 7.89532 4 7.89532ZM12.0629 8.67512C12.0629 8.69595 12.0629 8.69595 12.042 8.71679C10.8336 10.4442 9.62525 12.1503 8.41686 13.8777C8.29186 14.067 8.16685 14.2355 8.04185 14.4254V11.0758C8.31269 10.9074 8.58354 10.7389 8.85438 10.5919L12.042 8.69595C12.042 8.67512 12.0629 8.67512 12.0629 8.67512Z" fill="#3C3C3B"/>
<path d="M8.0835 6.26211V1.35535L12.0837 8.05326C12.1045 8.0741 12.1253 8.09493 12.1253 8.11636C12.042 8.07469 11.9587 8.03184 11.8545 7.99017C11.7503 7.9479 11.6462 7.88481 11.542 7.84254C11.4795 7.82171 11.417 7.77944 11.3336 7.75801C11.2295 7.71635 11.1045 7.65265 11.0003 7.61098C10.9378 7.58955 10.8753 7.54789 10.8128 7.52646L10.3753 7.33716C10.2919 7.2949 10.2294 7.27406 10.1461 7.2318C10.0419 7.18954 9.93775 7.12644 9.83357 7.08417C9.77107 7.06334 9.70857 7.02108 9.64607 7.00024L9.20855 6.81035C9.12521 6.76868 9.06271 6.74725 8.97937 6.70499C8.8752 6.66332 8.77103 6.59963 8.66686 6.55736C8.60435 6.5157 8.52102 6.49427 8.45851 6.4526L8.0835 6.26271V6.26211Z" fill="#343434"/>
</svg>
