<svg width="17" height="16" viewBox="0 0 17 16" fill="none" xmlns="http://www.w3.org/2000/svg">
<g clip-path="url(#clip0_350_1989)">
<path d="M16.4858 7.99719C16.4858 12.3936 12.922 15.9574 8.52563 15.9574C4.12937 15.9574 0.56543 12.3936 0.56543 7.99719C0.56543 3.60085 4.12937 0.0369873 8.52563 0.0369873C12.922 0.0369873 16.4858 3.60085 16.4858 7.99719Z" fill="#1BA27A"/>
<path d="M12.2616 4.05103H4.72412V5.87073H7.58303V8.54535H9.40273V5.87073H12.2616V4.05103Z" fill="white"/>
<path d="M8.5101 8.83021C6.14512 8.83021 4.22775 8.45592 4.22775 7.99415C4.22775 7.53246 6.14504 7.15809 8.5101 7.15809C10.8751 7.15809 12.7924 7.53246 12.7924 7.99415C12.7924 8.45592 10.8751 8.83021 8.5101 8.83021ZM13.3185 8.13353C13.3185 7.53811 11.1657 7.05548 8.5101 7.05548C5.85458 7.05548 3.70166 7.53811 3.70166 8.13353C3.70166 8.65787 5.37099 9.09472 7.58305 9.19152V13.031H9.40259V9.19303C11.6317 9.09926 13.3185 8.66058 13.3185 8.13353Z" fill="white"/>
</g>
<defs>
<clipPath id="clip0_350_1989">
<rect width="16" height="16" fill="white" transform="translate(0.5)"/>
</clipPath>
</defs>
</svg>
